<mxfile host="app.diagrams.net" modified="2022-11-03T23:49:56.737Z" agent="5.0 (Windows NT 10.0; Win64; x64) AppleWebKit/537.36 (KHTML, like Gecko) Chrome/107.0.0.0 Safari/537.36 Edg/107.0.1418.26" etag="GQc7yaZe8G_t_6h3_g_z" version="20.5.1" type="github">
  <diagram name="Page-1" id="099fd60b-425b-db50-ffb0-6b813814b670">
    <mxGraphModel dx="821" dy="474" grid="1" gridSize="10" guides="1" tooltips="1" connect="1" arrows="1" fold="1" page="1" pageScale="1" pageWidth="850" pageHeight="1100" background="none" math="0" shadow="0">
      <root>
        <mxCell id="0" />
        <mxCell id="1" parent="0" />
        <mxCell id="LoWtPLJ9Arp_CeYnU33a-3" value="" style="edgeStyle=orthogonalEdgeStyle;rounded=0;orthogonalLoop=1;jettySize=auto;html=1;" parent="1" source="LoWtPLJ9Arp_CeYnU33a-1" target="LoWtPLJ9Arp_CeYnU33a-2" edge="1">
          <mxGeometry relative="1" as="geometry" />
        </mxCell>
        <mxCell id="LoWtPLJ9Arp_CeYnU33a-1" value="" style="whiteSpace=wrap;html=1;aspect=fixed;" parent="1" vertex="1">
          <mxGeometry x="210" y="210" width="80" height="80" as="geometry" />
        </mxCell>
        <mxCell id="LoWtPLJ9Arp_CeYnU33a-5" value="" style="edgeStyle=orthogonalEdgeStyle;rounded=0;orthogonalLoop=1;jettySize=auto;html=1;" parent="1" source="LoWtPLJ9Arp_CeYnU33a-2" target="LoWtPLJ9Arp_CeYnU33a-4" edge="1">
          <mxGeometry relative="1" as="geometry" />
        </mxCell>
        <mxCell id="LoWtPLJ9Arp_CeYnU33a-2" value="" style="whiteSpace=wrap;html=1;aspect=fixed;" parent="1" vertex="1">
          <mxGeometry x="370" y="210" width="80" height="80" as="geometry" />
        </mxCell>
        <mxCell id="LoWtPLJ9Arp_CeYnU33a-4" value="" style="whiteSpace=wrap;html=1;aspect=fixed;" parent="1" vertex="1">
          <mxGeometry x="530" y="210" width="80" height="80" as="geometry" />
        </mxCell>
        <mxCell id="MNUL-8dyjSf_dXkeAGJ2-1" value="" style="shape=image;verticalLabelPosition=bottom;labelBackgroundColor=default;verticalAlign=top;aspect=fixed;imageAspect=0;image=data:image/png,iVBORw0KGgoAAAANSUhEUgAAAVUAAAFPCAYAAAD9QV3TAAEAAElEQVR42uz9aZAlWXbnh/3udfe3xr5lROS+VmVVdS1dVd2NBqobjQYwAwIEBhxSFIekzZjpi8xkkpmkLzR+kEwcEyWjmT6MJJqMkozGEYecMQPJAWbAIYCpRnejl+qqyu6qysp9z4yMfX3xdl/u1Qd/18PfC39bLLlVullaZr7Fn/v1e88953/O+f+F1poX/VBKOebfUkqPl8dzNcYvn9/Te5bdjpfPY/dh9/sF3/dzW1tbry0tLX1nc3PztUKh8FqlUpn1PC/X6WForVNP6qbabBQ5oPIsDb7W2nlaYyKE6GXM+j0c4LAW2WGeu++jdfwO4fxP+15zPXymcpjjIIRwn9TzE0J4juNUMpnM6tDQ0J2RkZFrk5OTH01OTl5KpVJbfZ2718XkeV7u8ePHv/fpp5/+327fvn1yY2ODcrlMtVqlVqvh+/6+Fma37x6kR93PuZ6kJx//LSHEoY7nE9jE9mTA+zX2nT7/BAxf27HYz2/v97q7jWE/5+/3WpJ+u9s5zPvms73O/YO4j/jrlmWRSqXI5/PkcjmGh4c5depU5e233/6H586d+//lcrmFAzGqQRA4jx49+sMf/OAH/93du3dZWFigWCyilEJr3fTnIA1Z/GZ7WVjxz+zXoBykMev1PnqZfP2M8SF5onu+9oMe/8MwmPF5ZP4d/3988R+0oez0fi/zoh9jdBAbU6/j38vnWsfV3Ec/3z2o6xNCIKWMjGw2m2VqaorTp0/zrW996x++9tpr/49sNru6Z6NarVYnf/azn/1/P/zwwz+cm5ujXq/vMqRx4/qseodPy8vt5/PxSWT+Vko9sfDevK+UQimFEALLspqMyV43wX4MYK/j1e6c+/1trTVBEDQtrqSF9zThgrjRSTKk/Xqqe/Hu97NJ9HJfB+mB9nMu89zjfwshSKVSHDlyhG9961t3vvvd7/57k5OTl/o2qtVqdfK//W//25VPPvmEQqHQZDzNv1u91cPy9g7aSPZj6A7TyMZ3aClltIh79f4P6p7jv+f7PkEQIKUknU73ZLz248E9CQ+0n98KgoBarYaUEsuymp5L66b3LBhVc21SSpRSBEFwqNcV/3w7z3g/hi6+WfQKFxykx9xqTM3zN//O5/O8/fbb/NEf/dHvzMzM/DgpUZdoVEul0sl/9I/+0YPbt29Tr9cjD8YY0iAI8H0/8qSSzrHXBbYfQ2ZeT4ICzAPo9Jl+frP1fPu5v1QqRSaTicbX/OlmCPfzu3FDKoSInmsQBJGRt207eq+bQWkNldtN2KSF2WmRtobkB2WM2hmDIAioVqvR9dq23bSwWo1rv15e63geBP5q23YUVSilKJVKiWPXzuPu1Qju9Zp7fYbdPNWDxoI7XZeZ/0nPP51Oc+7cOf7+3//7v3P06NEPuxrVcrk8+4//8T+e/+ijj5oMKYDv+7iuGy28g/b6+jWe/RrU+GTey7lbz5U0AdpNinbXZVkWIyMjCCHwfR/P83adu921tsOSOxmO+GfihtAY8rhRdRyn6TtmchnvKH5OpVS00cbfj3t5SYsy7p23W/zdjPVBRTGtRtXgavFF1e4++lnAB+m9mnPYtk0mkwGgVqtRLpcTDWHSxtBpA2wd+71AIU/yM3v5XOuajd+rWQeO40Qblxnvr33ta/yDf/AP3h4bG/sift5dJVX/8l/+y09/8YtfNA2mlJJ6vU69Xt+F8x1k6HeQHmrSZ5RSFAoFCoVC08Lv9BDihidugCYmJqJJ3M14dvKUBwYGsG2bIAhwXXcXVtaPt9rNE2v97fhvxL1Wc8S95dZJ1XqYHd3zPDzPi+aN2cji9xW/PvN+Eibb6rm028T6DVm7YdXxTSQ+B/bjNbfeQzfPvh+jYXBg13XJ5/PYtk2tVos2yF7GrHX8kzD+vVxf630edFKz2zPs5PW2+0yr42HWQSaTieZ1EAR8+eWXfPjhh3/2h3/4h+9nMpnVRKN6+fLl/+iv/uqvZlt/qFqtNiWpnqQh7XXwOnlp8UlcqVQoFos944VJk6NWqzE0NEQqlerqlSaF2+Z9E/ZLKanVamitqVarEabZzdi3M77tnk/r78f/3+qVGoPXalDbhbvGuzXjau6nnWebSqVIpVLUajXS6TTZbHaX4Wz9ux/8Lul5FItFCoUC6XQax3F6SsCZ61leXqZWqzVtDEmlQL0khzo9q142+FbDPD4+zujoKK7rks1mI691e3s78Vo7/bbWmvn5+cjT7TVC6DTfzDE4OMj09DTZbJbnoekovr7MfM5ms9HaVErxF3/xFydPnjz5H7333nv/kWVZXpNRrdfrI//kn/yT/4tZSOaEtVotMqj9eKYHjal2wkDb/b/1O93wmvhklVImGivznkkImExxt4mW9LcJLQE8z0Nrzfr6OhMTE2SzWdLpNOl0um0WXikVeYWpVCo6j+u60a4a9wbj3mEcH9/a2qJerzcZP/NZ27axHQmY9zQCjSU9LAv8QBIICx1IpPBAZ0mlQqgoXrvcaoCMZzU4OMixY8cYHBxMfJatz6Edntlu04k/+5WVFXzfp1KpRJhZr4vryJEj/N2/+3e7Gpl27yXNvU4wQq+/sbW1xT//5/88+r/ruti2TTqdRimFZVlNc791I26NHEyy0sA4vWT5O60tY3x836derzdBh/14lt1gsF6+02nTawcBxD/num7kJJhxVUrx4Ycf/u9ee+21//vg4ODDJqP6q1/96j9ZXl5uOonneVQqlZ481MOugzyMJFcrBJA0+Vu9rCAIIvzR9/2ek1WdEl3xcNP3fc6fP8/g4CDj4+NRONealWxshNy+fZtUKsX58+fRWrOxscGXX37J66+/zvDw8C6vNI6fGsN3+/Ztbt68ueuaI1xVSNABQgty2QoZUQLbJ1AuGZGh6qeouXnq7iCkKhDYZLNZtre3d4X4xkgqpSiXy1y9epUf/vCH0aYSvz+zecUx5qQFHDc2rXPUOAnG0IyNjTEzM9OzQY2PRS6X6+hJd1vk3T7XySC3w6XjOQ6Dyxss2LKsRIPR6pkmGcd4ZUGnjaEXmKDfsrb9wgMHYYtajbG5pmq1imVZUYQJcOvWLX7+85//v377t3/7jyzL8uyGoXD+1b/6V//rOA5mwtz97CCHlZTaC8aaFH4n7dLxRWl2o9bF1Yo79pI4SUoqtU50M/7xjGM8C9lq+KWUnDlzBsuycBwHpRRDQ0N87WtfY2RkBMdxIo86jo8GQdB0b0mLJ74wlQqQCDKpMgOZKratOTo9ykA+zdxCCb1RQmTqaKGoB1lk4xzZbLYpYRKfWzMzMziOw8OHD6Od3/wx2LLxtNLpNEEQRJUoreNtQvn4d82GIITA87zImAdBwDvvvMPjx48pFos9z81+Gjf2ipX2k/hshV2SIq34hpZkKNphneZZWZYVRWLGc229tyRoJx5dtMPMn2Tp3EHis0II6vU6juM0lbP9+Mc//r3vfe97ecuytuyGpf1fPH78OHoIUkpc140maC+h9pPaTfZifHtZKAZvLZfLTXWaAwMD0Y4fT3jV6/UIU03KCveyW7ca5KTdsTWTHq9F9H2PUqnE6Ogok5OTSCnZ2NhgZWWFWq3W9DxbF5aZ/Mbbbh0XY+DCBSCxrSqOXSFtKUYGs2xteCw8LjOQsxgdTbO+VSefq+Fv2Si5Y+TMNcf/FkKQzWYZGxsjn883wSnGmLduIEIIcrncLi/fLGDz/3Q6vWvhGmjEeBhHjhzBRGX7Wdz9VCUcZgNBp806KUHWLgGY5HQYmMZ4wfHn1OoomE0sDh2ZteN5XvQcDsNbPWxDHT+3gTKM86O1ZmlpiYWFhe+fOnXqv7cB5ubm/tBMbLOIq9XqUzeoveKo7XDLdmFv67mUUlECy4xBEARUKhV832d4eDgKF41xKJVKkeExtYKdSm7aGd1evSCzQ87NzbGysoxSASrwWFlZ5dix46DDsG99fZ2Pfv43TE0dIZ8fQIjwt0+fPsPg4CBKgZQ2vu92bL1sCsMJSFs1crZiaDDDx18scvvuBr6ncRyb//nfvciZGcm9FRfpeKjAaUpSxcc8blht2yaVSuG6btNv9oMvtssyxzfAeGLQLPJeEy3dDGkvHWe9erP9JIS64fi9VBd0g/GMITXOleu6KNX6PRVtWHE4LPR0Qyxea1BKo5Ruwvlbvdx+Mda92JNe8h69JDAN7myev+/7XLly5X9/4sSJf2EDXLt27ffiF2Z2p2cFH+01EdWpLKK1sD6O05nkhVKqyTia3bder+/yVj0v9BJTqRS2bTeF5K0LrTUD3gsO23qOer3Gnbs3uXHjOrdv36FSKWNbgkzG5tadz/jzP/9noFyy2Qwjw0dZWpqjXCnheS5TU1MsLS3yzW/+GvmBIaC3GuOdEE8gLRifSpNxbApbddCKdEagleaXn83zD/69t7i/NIcjXfwg1zFpFE+UmdKfdnhzq9GPh5ZJeGMSVh036AZz7Nc7eVIlg/32yj+J6zLPJ4w8Wn9zB3qIY7udDObzFPq3u36ThI3XrX766ae/9rf/9t92bM/zcouLi315T3sJww9zIJM81SQMNclT1VpH9betdZhSSrLZLPl8PkqktG4+1Wo1qjM1nmtrsXgrttRr44T5vXq9zr17d7l+4wo3btxkdXUdHQAIpIRUykIAWkvqbkBxe51avUbdqyMQFDYXqNfC6/3GN3+d4eHhvg1KOHYgpMKyJU7KAa3RUhKuHxHVBnSr52yHde/ykBsRQ/w1YxQ7eV9J9bemLMbADS+P9uO2e1OVHZPV8Yqh5nP252A9L8Y23oEYj2BXV1epVquTdrFYPF8sFtsCzE8CD+3HSCdhoZ0SUkkbRGvYG+8iik8cs/hMEsjzvF3GO26oHcdpSnDFscx4IXk/HpDneTx+/JgrV65w48Z11tc3UYEAAVIqEKEhVRrQFqCx7BJojZACEHiBz8OHD/E8H43kvfe+wcjISNfwNTJOCLS22NqsM5jPMzLssFWQBL6NZStef3WC+3dW0BK8DrS5rdl9x3FIp9OUy+VoDE2WXggR1eyaulZT32g+n0qlSKfT+L4fJVVN4sq2bZRSTXkB27b7MqpPkkZwL97qYXmpSdj+znVptFbRv3fSArujBilF4nx/HonxkzBo48Gb8alUKmxtbb1m12q1ydY6xl7wy36N7EH0qnfzctpdf6de706lYkopqtVqU11aUq1n3DC3Xm88491qwIxBTjI45lhaWuLatWtcuXKVzc3N8DNSY1uCkSHJwICgXIGtbYXyIW0Lpo4o0mnB5pbDxqZHIDSBksw9XiRQgsnJI1FrbKdJHrXkakndz1CqVVldLXJ8doRSscZ2yWdiPIsK4OH8NgGDBL4TwQtJuHL8uZmysa2trSgZMjIywtGjR3Echxs3bkQ0kwMDA5w4cQKtNVevXsV1Q1jjyJEj1Go1bt26he/7pFIpxsbGmJ6eZmtri7m5uaiWN5/Pc+TIEdLpdF+dWO086SeROGmXUOrH0PeDFbbeY2vUABIpNFpbKPwGpqpBp0D6CESLpyoaBrc/KKBb/eteN5heq5l6Gdt41Gu810qlMmvX6/Xh53H3OAimqlaKu/iEchyHTCZDPp8nm81SKpWibHnroBrDaAxDp7rJTpMqDuKb+kyTNNzY2Ggq4chmBGdPeZw/DQ/mBJevOxQV5IYC3n0rYGIYvrgBhRJozwIZnvvx48dMTU1FG0F8YrQ1rmj8IIXr5ynWXFABs7MjHPE1mYzNZtEjUCmq1SxCyK5hX/yeM5lM1A1k7m19fT0qpYovmNXV1SYPtV6vR1n8fD4fjbfneaysrBAEAblcDqUUjuMwMjLS1Dr78kg+khouIoPeaP5AK2wh8IWFUh5C15HaQou9bxoHub6fZBQR5wLxfT9n73dnfZI9/92y/Em4arfzmtIpUyZhAPlMJsPQ0BC5XC56PW6IkkpQ4sawdWJ2axmNn79UKlEqlSJPOe7FGmPjpKBSS7OwrNkua1IpmxwWUsLSSkC56FIsp0mnNShFoN0ImvB9n42NDRzHYWNjY1fyZvc80CAErpenVHUa1+Aj0golBHU/jetncVUKKfyenqdpyfV9n/Hx8abXzQQdHR2NMspxLHV0dHSXlzI+Pp6YLMzn800bXKFQiGCcl0f7Ta9dbetwXiPtLBuFOl4AEo0UKfKDAY4j2drShwpNPIuG1diRqNHkoAzqQUpq9HLeflmy2l2DMTTZbDbCSUx9nTFqBq8zuGpr+18SvmoMbysLU6unnHSv1WoV13XJ5XK4rsvm5mZ0Htu2GRgYQAjB6hasbWo04KQljgNaKO7MKbTOIYUklXaBgErFje5va2uLyclJKpVK1PXUw+ihkFTrGaRIY+EjpSLQAhXYBFKipQ/awZTZdDuMfIXJpLYjPW9N8LUmsFqTgq3RR7wduPW57WXeHFaov1dYrNcwudd728VsJQFfkM0EfPPNKpNHFP/0v7NQuAgpGckG/Nr7isEBl//+L3P4no8Q9u6NGd01SfasOna9Jvm01o6dNLC9sr13win2WtO6FyPaugBbs5Gthi5eHmWOeHLDfNf00cfD/XgiJN52Gfcm455qvPC9W5OAOd/ExAQDAwMcPXqUarXKn/7pn+6qTYz+yJ371UIDAilstJnAWiJE0ER9WCgU+Pt//+/zT//pPyWbzXL79u2u2HMTlqQFCgeCyN4iNAgsdI8GNc78Y4rKW2EPYzjj7ZbxcY1XbMQzsnFj2lo/nEqlunLVHkShfj9eTr9Gu1Nt8V5JozsxmymlQcHEmMvklCYla/gMIhvJqqOzPtNHFJ4LWvuNZFY8+68br3XH79th2t2ew0Fvau1+s1srceSp9ms8D6qr6aB2oE7hhnnddV3K5XLUzZNUT9oNNjAL2HSGJPEFJBWgJ7UHxkut4m2GcQ83brTbPY92qgvx4upWb0YIEdEWJm0wTyK83Nzc5PHjx9F9mnK01s2t9Rrj45FEVRjfvOIdXeY76XSaubm5iHHqoLzVpxmq7zVp086I7E7YWihVA6G4dRceLdggaWT+Na6ruHwVHi87+L5uJKvCKgGw9n1Pz/L4Jx32fg1cvwz6e+EQ6CXUT+pljn/fdd2InWh0dJSRkRHW1tZwHIfR0VG2trYiqrR4j3xSfWqS12Do8Vpb+TqFCq3Z/15CvV4nZWvZUDs9o4NUcO1nLm1tbVEul5s6nOLyFa3Jw9bx7oc9KR5NeJ7H/fv3+9b/ehYxwk5dXXth0I8X8Ufn1RqtAxCC9TWHlVWLWhUQLlpbCKGZX9HMLVpU6sYv1QdKSn8YBvUwIRu70yTqxQAmeWbtcMR2Bq8T3rrXydyOaV0IQTqd5sSJExF2Ojk5mUiuYTBU05KWRIcWJ0FJWoTtFmRSLe3u+knRVQZZSkEQKMLAvxGGm/MEKlwUCLTeKWtpB910k4g5qLpl8xtxKrVdsEYHyZX9LLhejGkvOkn7nYv7WfRJkVGvLbX9biRaCIQIvf9y1UEjgAChgrDRQ0OxHCYyBQqERmCiwP153ofNbnVY37H3YuFbJ2hrjWv89VZ9o3bfeZIAdblcxnVdZmdnKRaL1Ov1RKMaX+CGJSkuCNfqWbVOyNZ7b+1QiYeru8c2TgkoGrhUDLNGh4bSNwynAkSAJmjgWQJLKDQBNGGQpie7d/x8v9BMO5ysndTHYXkp+11ArbWTpumgX29wr5815NOtkE2/nUlJta9tvyN0iJ1KCdpndARSqYDHi41KD2UjpGZsRJG2NMsbrXhqsiN2GEKI/Tz7w4w87F4WTlLImMvlmJmZQUrJwsICxWIRKSXHjh2jUChElG/nzp1jdXWV7e3tqFZwZWWlp9/qhud2K+pvN8FMRv3MmTMopVhbW4sSHEkTtJXlqbVIOim0bi21indrmY2lNWHSbFzDP0KE5VK+L/F9HXUJCQECHdUGqkbSQAiNUC4C8KLJrcLXBViWwAnzkz0nOg5iMztIz2+vhvSgBATNOebm5vjZz35GpVLpGo73Y/DarYvZ2Vm+853vMDk5eWgespmXpoRNBX4jGSoYHVR8+506R4/Bf/6PZTjfJMxMwAfvuwzl4B//WRrPBSEON5zv996eJHyzJ081n89z8uTJyEjMzMxE1F4nT55kbW2Ne/fuobXmlVdeYWxsjEuXLpFKpZiZmWF5efnAtOD3OnE2NjZ4/fXXGRgY4M6dOx3hitbEUSchuGQDSVMJUGtVQnvOAoUQkMmmUVpRKlajOtZ0SnBkMmB0WLO5ZbG8JvADi4FswMkTisGcZmHZYXHVxveDhsdLgwBGdmzjfRKG7kWoYyyVSty6dYutra0DIVbuBr14npfIKdsNb+33MOT0UkqEEgRCoIOAwcE6A0OwvARSSLQCKQNmRhXZNKwXQAUKIawoquon299P5NCvZ9qvTdnPddpaa6ffcqeBgQEcx+HatWtRltXzPGZnZ1lYWGBmZoaFhYWodzudTnPs2DE2Nzej/vj90pJ1w5O6Ld5SqcSXX36JZVkUCoWuA2zqQ1up4+IZ+qSSp6QC/3YsSub7pi62VhsJkznSRsodjSjf90k5koF8wPSUwg98lldtXFehM4rpcZ/JUShXPeYWs3heM1ep67k8fPgQpRTFYrEH5iYdYbyqQSWoVeipIAIEErQKF5K2QARd55HjOAwNDUWL2MAi7Vj1e5Ek6TXaMgmrvUIerVFLp3bp/W4eSby6vRiGbmusVV4lfhhYI5VKNaJ+CwKXumfxy8uwvJhGhsASSsNmxeYXn/ssLVuEOS5FvCa1k6jgfvDWdkTvnaptOnXUtYuCtRYR1wEoFAoZ1TiAEAHxVjJ7Lw/aFFDHpXxTqRSDg4PMz88DMDY2xtLSEkEQcOXKFb7xjW9gZK9bB6AT6N5r5r9fjCkIAubm5nZ168S/Gydq7lT/1y6z3orDdSOHMZ7r2toa5XKZTCbFysoKx4+f4Pr1601jpQKFV1e4dRq1qAqQKA1+I/RH2qhAg1BIIYGQonBsdJx/9s/+GePj49y5cycidm6/AA20ECACgRQKafkIApSyQWVRaLQMEEKhtez6jCYmJnj99dejZFUvkEG3NsF2m2l8/H3fj3gFTNh+ECFjO6HJg/LInwTmHL+XKIpCoXWAEA7rq4LVdQiUT6AA7RMoweMFCy0svCBMY+2Mv2jCg+MJyYO4xl7rb7sxw7WqJeyqImo4CRoB0kJoETK0qbBdVysbgURrF7TubFSTLsaUXBiS4XQ6TS6XY2pqiqGhoWiCT01Nsbq6GhWb37p1izfeeCPSvOqng+KgyLGTDGunsCI+2J30kdoxYXXzmtoZ2tHRUaanpxkYGMRx0qyvb1IuV6OoQGuNG2juLzgsrwvqnqLmhtnWSkXzq18JHBtqXlgOI4WF1hKtAyqVKlNTR3CcUKLk3LlzzM/Pd34OQiG0QCrIZGukrCpoNyz6FwIvKOC6w7h+Gp3gpSZteqlUitXVVT788MNIEA4gm81GxMjGQ8vlcpEiQ9KzN63Gtm1HWL6RUzEYtEkmDg4O8nf+zt+JIqaDwve6eTsHYUgPUi2gZ10plcayAtCqgdFXQQ0idFhqKIXGUz5Ki9B7E8nS760lcgclwdQu2ZmkaZZ0z0ncvLs2bKFRQiG1wAo0GhlWO0iBQGOrsPvFFxolRcru9yYAtre3mZqa4tvf/jZBELC+vk46nebevXssLS2hteab3/wm6XQ6qvN88OABr732Gtvb2x213vfCiLWXlkMpJYODg1iWFVUAtO5qQRA0tVAmTcI4PNCale1UF9rOEBsoITyXiEiwdyljogl8QUVJNLrBaSoRUlJ2Qbsa3w0rAiypG2GZJAg8BgeH8TwvwsE71dU2zBYChePUyGUrZC2YnBgknbHYXK+xUawjrU1w89TcYQRB1zlkxqpcLlOr1fB9P5LxMfXBZvzq9XrEgdBu4mcymSZ6RmNETdIlznUbV2zoZa704nF262Y6CCPSD4H1QWDeWmuQLmAhpIXGY3JgACetWVjwQ4FdbaNxmRpzyNia+VXdlt4y7pwclBFtbWxp5dyIy/i0wh5JTTFJ0EjgeKgBHytr4Vk+2tIIYSGkRgcutpfFUjZBXSEDgS2E8NrhEe0WfqVS4cqVK5FWvPEE4qxHly5dwvM8fvrTn0Yexl/+5V/uKnbvhqn2UrPaLmvfjssxl8vxjW98gzfeeAPP85ibm+OnP/3pLmzV1FLGpZaTiuoNjV0n1cukUDTOFRAffwOr1Ot1stksk5OTfOtb34quIwgCarUarldGyAooje9aoDXpVEAmIxEyBzqHlRoim89gydBAGz5Rw0naTmKm6R4R2NIla9dISxgfT+N7gq2NKrm8zWDGwisrhlI1XDcX7uRdFoIhAB8aGsK27ciIGigpm802jaXRA+sWEXQi33Ech1wut0u2uV042Ql3TAovO3XV7Rc/TDLS7eZ40lpqVZ7oNYyWWoKl0IHD2KjL3/7NGhfPwX/8fx1EiypIODGu+Td/p8rYCPxn/x8Ht06UaAWrqyRMrzh2kkT71NQUr7zyCul0mgcPHvDw4UPOnz/PqVOn8DyPX/ziF5w5c4arV6/iOA7f/OY3+fGPf4yUkgsXLjA4OMjExETUFJLJZDh58iSlYpGbt26xtLxMaWaNzH/wBQPvtIa6UK9BpQj+NuiFGdKz/4ctu9ddq3WCGimMOCQQH6x6vd70OtCUuWztj0+agAclTd06iUZHR7Ftm//mv/lvqFQqOI4ThZvt1FNd123yguIVAEbwrJfe5U54m4FOTD2sYWg6e/YsFy5caDrn1maBaq3G1OQoAhuNhSKgISLE4vxDhoZHSWWyBNoNP9N4NnGlh94kRnxsxyWVrjE8mOdvPpnn/sNNtLIQ0uMP/9brHJ+xWFwsYdl1fD/bkwcX79tPSgC2Pod+PLGkJJL5vV707PsNz5PK+A4iSdUNU+0nYdercGATzm8JtErhe1VGhjW+Bz/8BJRykZaFVprJcUWhDHfmwPcUQshG4f/ht7PncjnW1tZYWVnhzJkzTExMUCgU+OlPf0oul+PChQsMDAyQSqU4e/YsJ0+eZHh4mOHh4ai78ic/+UkkpXT+/HmuXbtG2knx6quvsra+jpWysHJgZRslilGnDcgBsMcgFYB4Y5EtCuftvTzkeIF/u7C2Vx2pbgTTB/kQWpsQ6vV69Kfd4o8X+8c7quIF/8bA9tqm2w+zu2HDjzMtKaVCWRPpk86kAStsBgCUkqEygJWlWKkykcti4zQE/+QuYt1ePAZLaKT0GRvLkk5pKqUaQjXIipXN9ZsP+Q/+Z++xuLSFJX16VYHyfT+i/+uUrOon3G1f90skLXyQcylpHHs1YL1gnQdRtN6L2m/761T4ChCa4rbmo186zC1msCxNoKqAYG0DfvoLm8dLFoEKEMKs6/3pVPVaMz06Osrw8DBKKQYHB1laWqJSqVAqlXjrrbdYWVlhamqKEydOcOXKFc6cOcPo6CiXL1/mzJkznDt3Ds/zWF1dxXEcTp06hQAK29v4vhduEtJcdyPRr8PuRQ3he+Z9N8j1XPxvjJBhbWplwG/NHMZLF9rhilJKUqlUk8plr+Uie8W24tlI89sTExOsrKwkllbFO8Ba61PbhX+9JDF6ySC3lhjFDffmxjZbm9scmT6FtDRogVAClEIKRbFcYnVlgZGRr2NbOcDtiU0sOfyXWIBjSyzbQQrTURaOja/S5NMSgYOkN++q9f5apY874df9GIWkTX6/rc/tOAnacU/sFUfsp9Z0P0m3Tt+TfoBE4UvJ0moGJR3SqkaAg0IjlMWDBQkapPRAp9C4aFRT0movVJ29QHwmx/PgwQMqlQpf//rXd0V+KysrvPrqq9RqNa5evcrv//7vR00/9XqdW7duRc6L7/ssLCyQzWTIDwwQttgQdYmFTTcxH1w0DKtuGFvZoaSq9QaCIGBlZYXt7e0mL60THtf6eq1Wa6Ji0xrqdZdjx44xOjqcqA+1HxmWdsZudXWVlZUV/p1/598hCAI+++wzHj58mLgY4tdjmOhbC//3suu2GmnzWjqdZmNjg1KpRLlcJp1ON8EN5lwmZL98+VeJG1ulUiGbzXHjxq1E0pa4ATDPNClsBvDQeFqwtlbm7OkpRoYc1jYqKBwkAR+8P8ute1toIfCU1XM4apQVTGbf3H82m8WyLLa2tiLIJZPJRDyyGxsbKKXIZrPkcrmII9aE+KYixfO8pnMHQcDw8HAiM1cnSrfwPUG8oF2IsGaxXYibZPC6ZZm7GhWhQTbzknaCHXrO8He47kBaCB2QkgItJEIHeBKU6yEsha8lDhZKByGWLl0ETqgAgY8QYbmeSYru1fAnYeDxCMQw0M3NzXH27Fksy2J6eprHjx+zsrLCb/7mb/Lpp59GkOXC43mEhpTtcOLYcRSaUqlEEAQUS0UqtQpDAyMIBzxnm0yjLFs3HrmQDShANLxXjPdqVXoyqnE2JeNVGqse9+QmJibI5/O7mJgMxnrv3r2mzKvWmlIp7MOv1+uRMNv4+Djr6+tks1nK5fKBMbUbwN51XT7//HM+++yzrl0spr7O/J1kpFtD/6REVfwzcVmU+OeCIOD48eNNRsBIZ7dS3nVL7JmseTyiaAfBtHrcuw2LxK1nKIsKiysbHD85zEbBZbvocWTKIVAB9x9W8LRF4GVBsOuak458Ps/Y2Bjr6+vRM87n85w4cYJUKsW1a9eiexgcHOTMmTP4vs/m5iae53HkyBFmZ2ep1WpsbGxE4zY6Osrs7Czr6+vRQpFSks/no0Rd/x5T2OYbjpNu4IaibaKqF7XXXsP/XgxuN72xvUMGGiFsBCk0VUYGNVKmWF73UX4qxNCVzehoioytWd7SaKVCUpUO0dd+y9nMd430jjmnaYE/ceIEq6urDcFLj5/85Cesr68jpeQXv/gFhUIBheb6zRsMDg6ilKJcLvP48WMq1QpCKe5WPOyUQ9adoPKhT+VHdbROoUSAIwXSkjiDWRgpIYcWwYH8W4MP7F52h1byDxOqDQwMMDIyguM4VKtVfuu3fouvfe1riZNmbW2Nf/gP/2GigahUKmQyKRzHYWBggMHBQarVKtlslmq1emCTpB23aaf34xhcEvlEkiRyu5AlKfHQCicklTclEdMkGcVOOHc3YcfWhMsuOW6dwQ2G2C7VIQg4fmwQ1/MZymdZXPLwhKbuDqICiXR6D7Xjgn7mMF7n+Ph4pPoKob4WwJEjRyJPfXl5GSklR48ejcbRtm3W1tYAOH78eLSBGW8paUPrLcmpQu9UNFi524Snnbp9kp5H/55kPFsSuk7djFS3uRN/zVSJhNLrPloLlKcZGgn4O7/lcvIC/B//0xTYGq1tjk0H/NHf9hgbhP/sv0hTryuUEo2mEXZBgwdJqGLqkuNranV1lZXVlbCWVAikbbGwsBBFMo8fP8a2bWzbjhy9VhJ5haLsriGVJndjgMzNi6HMm1DIwEILTTaXYzCfQ2LjCw/cGv5/LBy7mzFtXdgGexgYGGBsdIzJqUmGhobIZrJMTU5FrakGszBaT3F5Z9/3sW07KruI1yXGw8Ck6oB+sbV4WG3bdlQHGc96m+x9a2lTfOKbTcV4rO0WZTu8LSlsaUeUnSS81s7jacf8FU9KdWrdi/+/tQqjCS4QgpqXw6pLslIxlM8RoLGExPehUp/ERyBtD4MqBUEQeYlJBqhSqVCr1chkMrt0vlqfRRAEUTG/1jpSRI2fO054Dc3k1qYsyxjVXhb37mdIY6H25ql2GvPkzSbmnRKWshmI2qiUanYSJTtzob8kaLfDdEem02mK5RKVUhkdKDI5ly0fVj4GHwu0h0QxOQybG/DwAbieC9i7BCCTalX3gwG3w7Z1o13aiBQqZRSBd2SlLSsUwgyUQtpW9F4TAZIItTIDIZCWHdIaqvC8vq2xNUitCKRCiTpCgGtlQbopuxsOFA8b44vcsR2Gh4YYHx0LjWo2SzaTobBVYHllmeXlZX7605/ieR7//r//7zM8PLyrlGqHjWlH7sT3fba2tlhbW4ughF7wyXYegTkMQ9ba2lpUB2q8GmPg43Wb8ay+8SjjmWqjHtAuodKtxrGTUU4ypp2SH8nUgarnSo6k6zaGLDJMOuwkKdfyVIWNJYkmq+c70URGNGfb22X1DQ5meGjjnLKtKrXxJEK7hpH4BmXmWByHjj+rzc3NXefqcTkjG9I0lgy7icKWxZj/2MhohJhib4ZW65DtSWgLJXwcFTLrCx2SRCMs0I2EiaVDDzFo/KLuLGHUq2RKe/zVDytKVJ1a2eZnP1esr9kIbeHhYQWCR4uKuWXB5jYEftjOrHWQ+DvdaqI71d8mYcaRHTFkwuyUcomIua2RXNIx50xpJAIdqEQ57vC8oWHVNM4vw1ZVg6EqAQqJjUArjcAHbbl2P7uDKfAPC6ltcrkc+XyeXC4XJReMp2CMj2HEb11c7SZXvLvJSF7sd/eNS4iY7iRzXaZd0dTdGk/bVAjk8/koQZXL5SgWi1EYGZdV6bcEpxfNqoPKknYypJ3wdNNR1gqBKNKooDUcbfaeTetpO/2z5eXliC4yDDODaDPwfR/P86LXTIKjVUPMTH5jmI3qQnyzjBtbM38///zztsY+KWILzwGWDEinIZvzsR3BxBE4ejzHwFAYggsd8it4ymdtrYRb9/tUGFBYUpIdzZIdziG0j24kSCzLZmg2S2pUwpCCQCAqkkCKtqmyA5lbykKIGtK22drUaJFq6FBVsJRGCc3aphWSjkjdqAjZX4VFv0npKInXZjMJOxBFU0lik4GFtr3/8SjBpP2lamSpZEjYrXVz4nNPbarGihsDauoohRAMDw8zNDzE6dOnOXXqFCMjI0xOTrK5udlVSaCT0FevtX/dujdaZTuMgSuVSpEHG69sqFQqkfE1f7fCEZ0853aG8yAMarudu9fMbiePNfJTGhBJvGoj9EZJzHybBJlppkgaj1a2fzOu5lmYyMEYyHgdcDv+hVZPKN6O2lox0U+J087vCBwHjp8ocPbsfRypeON1j7/122+GhOL4YamiFqxsTPKf/J9+ypdfziVCSYm/r8CSFvn8AN/8t97htf/wFJ5VRoUuVlh+mElTGV7isbON7aY4cuU4ev1JcIoKhJQILJA+KI32JSiNkAptBaHR0iGhj4la9tOQ0Ou6iPIzDW81KWknGq5lsyMjE3MS8Xm5815IFKOlRoswYtMClBWQtKXZe1nI4Q8qPN+L+rI3tzapVqsMDg1idBTGxsYi1qVisdiRZbx18iVlUvfS2tZuQsXLwuJGoLXEKZvNNnk86XS6iSeg19+P/+5eseG9GNpe4YJOh6nyiAyrsaeN8MqEvQZDbYIN2mwkRv7bYJ1mUzb1w0kEGN3gkE5OgIlEunePtVvYGtuBmdnHHJn+fyM0jEs4dSrmqzdyRxtb7zI8rNoSmLexW2gUTsomfUaw8e0fUlL3dk4uomWF1pDRR8g+/N8ihYM4IM+vveFqSPHIOsenNNmsw9VbHjgKy7cRdsDstCBjC+48EgSBqetMhrF6NazdjOnAwAADAwMhAY/n4jh2xAFRqVQobG9z5MgU6+sb2FIyPDwcSaKXShVSqRQbGxsADA4ORrmWsbGxyNEqFrep5Cv4J8rYo6FnLiwNliQQWTwvje2mkVUbqgKRkp6ttXY6TdIk7k+tNbV6ndW1NeqNvn/T+miSDkmJll5C3nbco70a1l65AuKT3fO8XUmauIHNZDIR7NEaUnbK5ibxqyZdQ68Lr1cPq9uG1ImVK+k5xccpCQs2BtXs9HHvMGk+tY5HvAX4IPSoOhaz9xD2J3k7IfqvkMJtZIF3K9nv1CtWo/KrdkxkiclNSyAdjRYBLo9QMuHcjd/01TJKCIS2enJU+hnH5vncIA7xNWkHPnjfY3rG48btNGhFIDXTI/DbHwTks3D/v5YxaEi1D9cTcNxeGyYMf8e5c+dIpVLU63Vq1RqObXPu3DkKhQIP5h5iWTZvfu0t7ty9y/bWJrOzs5w7d4H79++ztLTE+fPn+dGPfoSUklOnTkV19BMTE1QqFTY3N9gsbFAZ3yD/x1cYfjvmS1igAwhKUK+Dvw56O4uc+j87dr+7trnZcrkcFdya5M7o6GhEVtFaF2nYqrqFzYfZPdKJODqe4IljK0aFNZVK7UkQrt1k32v4fxC0ad2y1a3EyO163ONHN9w8ybB2q5h4Fo7oOjQhfWIM9dh1iY18hoXFK6+cwXWP4XkeX3zxRUfGfiEE4+PjXLx4kfxIlqkjI1SF394DNb+vd9mtA/dUhQhQAQS+AukyvwpzS4RWhbDELG0p5h5CzRUEPrHkc/+wRKc63vicNTj66upqpDG3tbXFwNAgDx48YGFhgXfffZfbt25z/Phxfv7gPgsLC4yPT/DJJ58QBAGvvvpqEyRlWRapVIq1tTUKhUKjkgGkJZA5ELkdhlhTgGHlwoaA9DFAVCkHW6/tWfjPdBjlcjkcx8H3fb7+9a+HfbMtobyRJP4v/8v/sm0Rer/4Sz+GtV3tpTlHnAYunu13HIdMJkM2m01sue1m4JK80fhDPKhEVaeQv9fNqJOUTC/96O34Hjp971k0oh3HzxdUywNUqmEmuPWKRcN1rdSO8Wu/9l0uXMjiui537tzpaFQty+L06dP8vb/399B2wObpJa675xDizs4Kbvkdm1mkZxFwuLI0WoHWAUqBV5N8dtmmUpYE+GF1g4LFdYvlLY3bMKpCGiYKuaf520vLd6VSYWVlhUwmw5EjR3BSDtvFYlSbOjQ0xNTkJKVikYF8nuHh4cYzEE0t9PGGnnq9ztbWFoODg4yPj6NUwMrqMkK2ztvW8KfRpqpBiVhHVT/sUAYHGx8bY2JiIpIZOXv2LOPj41HmdmVlBcdxmJqaIpvNNnmK8ZvZT+taPxhrK91eXLI6nq02rxnMxtAd9kMW065ONV6nl1SS1Utffq+Ch+0wx3ZwRTfugU6edydynH5qQQ/cEHbBXfvxomou3Lk7w8bW/wZkgIi1roY5Yo3QNpXaMK6bJ5122nIQJMESqVTYrTO4McbxK79PTZajkqlmeFeS0RlyhQGKutZ2g9tvHWh4vhDMtWyB76fZLjbeC/wG8bmm4oZ+m2xcaNSyKTpv2r16pUmvpVIpBgYGcF23QRWZi5ixNDAzPc3CwgK+77O4uMgrr7zK2tp69H1LSrYLBV67+BrlcpmBgQHm5uYYHR2NcOT8wCBIUEI3YdoxGHzXnie16C1R1bqgLMsinUozNDjE+Ng4g4ODZHNZ8vk8pVKJ9fV1VldXuXTpEkEQ8Ad/8Afk8/mekyNJuNdBSElYlhVdh2VZEU5qOkjidai2bUelRHGKQ8PLacKPdt5dO0+13Z92RmAv+ludqgN6w9GS76WbB9wrv2c/m2Q7I7kXFqheo6MkuCPU86qyvW1z//6pruOitYsQIRH422+/HUm3JHW5WZbF0aNHKZfL4fsli+mF89EqFq1ukggQWuAqRbVU2SUlE5+r3bSYuo6R1GHLqRVeidYaFahG7WzYXSYbxtegzwLZRKbSbwVCL225rutSLpfJ5XKsrq6yvr6OChSP5x5TKhZBax4+ekS1WiWdTnP+/HmEkNy9ezc6x61bt5mdncVxbObm5tjc3MS2bUZHR6lUKiwvL6LRpGQKf36Ibb2N9sK+fyEbyUMJMhsybjpDkBnPrPbFpxofmHid6sDAAOlsJuIl9X2fcrnM6upq206KdnhqJpNhfHyc1dXVnryZfhI8puTLZAy3t7ejrL/J8puicFM6ZRjn4wstk8lE9a3tvNLWP0nhfrwl1Rj5/eKrndoQ2xmkpGdi4I9+VTn7lbjeK7XfYcEFrbzA5k+pVOLDDz/sCc5oLdPxPK+pySFp3q+trfGXf/mXO+dplCyGTVWi4X8ZSFU3Ci/ELo0v03IZJ/3er+ffWs6W9Pp+52q/R71e5/Hjx9E6Nc9tfn4+yvnEuT5u3boFwIMHDyJYemNzg8J2IbJbWmuWl5fZ2NgIk6++hyUt0ssjqD9/G2V7gESL8Ik46ZBMPUi7BFqhsiWsfze32neiamcHlFGNqvHqhBCh15rNMjU1xezsLLZtc+zYsUTjlDS4RmXT9G4fBB7XCnDHmxTikySVSu0qdI93lrUyaCVlMdsZ1NZQ3wgOGi8oXgB/UImrTkz03XS2Wo3qYcAyhwn57Bebbi19y2QykebaXrhJ28EvcR6MYrHYErGJxHpg0cAqjaHN5XKRQTWtmO1I1/eT3O1uE9qPzUFUtiTBW/F6aLMpJkVc8eYSrTVagBQCXwUoV4UdUeacnhsW+WuN1gJ7O4UopJCmGqJRqJ3ONugBLUAJPF3G/9uqmU+1lXSjU0mQ0opAKTzfxw98VpZXsCyLI0eOkM1mI5mC+M4SfwCdsLzW0KVbprhX7yj+Hdu2yWaz1Ov1JrmUTpPBPJhu1H/tPNTW9wwzTj6fj2o0TWnSQZH4dgtzW+GROHHOXj2Mbt7lQRrGwzCw8RbXeFndYWHA7Zo3OhuaHQKAePbalLcZz6sbpNKJ1LtT8rKXz7XzYvdDRL9XfD7JroX9Aglj3IgSdBQ1NL4rZIM3NcxIhgmsRquy0EjfAeU3Y6q99tmHmvQ1VtdWQ9q3Bx5LS0vk83lGRkYSb9x13aaMWztDGQQB6XSa06dPs7W1xfb2dk8QQKfDtm1OnDgRGfbp6Wm+/PJLBgcHOXHiBOvr6wwMDEQLZ2FhgVwuR7VajdpST58+zfz8PKdOnSKTyZBKpahUKqyvr7O+vt6T15q0KRjO1HgVQrv+6L1KJvfrCSYJpR20R9gJithrImq/hs7MzThvbqfcwmGosfaSGNz5bbkrqWiaHOJJ171iy+0MaZLX3c4BS+JBfRJH13nUFDEkO5WR5Y19KWqHjXMC7NhioI1EdS/SuLVajfn5eebn56N+7Xb4S9ztNjtqkldsyhru3r2bWB2w1wksG90U5XKZer3O0NAQR48eZXt7m/Hx8Uhq22Apx48fJ5vNsra2FuFhMzMzrK+vs7a2xujoKIODg9y+fTtiT0pi9epkTOM7ealUiqoMWr3gXisM+g2vnpQyZ6+Y7mF5qv3cs5mfJpzudG1PuwQsKbozctxxRrg4vNDNsCUJVNp22KXUKR/SzQGIN80cxtjtpbzyMJ+f3eskjBf9W5ZFrVbrCFK3ez1O62YmQiqVIpPJNGFCceKMXph2Ok341u6d7e3tSPzPhN1TU1NMT08jhODhw4dRjaop+s9kMpEYn7l2kyQwdW9xvDUpi9zOGzGZTDMGrVhvOyXXfhf5QRqgg1oEhz3B94p9tuMXeFaOVqfEGFSzvjoZ0F4ivThXQjs573YRR6t6RKfIq1tTyV4906SNu5duuoMw3na7xZT0t+nJNt1R7eoROxF8xC9MKUU6nY7Yo1o1oLrJ9O4FcAcoFApRAm1paSli1apUKqyurlIoFBgeHo5IVExCzuz6cfatbvWbnbDg1mymYb9qlpzR+5ZAbk20PWnD9rwee4EW+hVV3K9hbZUZ74VbopfNtR3fbLsx6YX5LC7H3i7S6rUFvd/xbYddt5MY6ufZ78rX9LrDO47D0aNHOXr0aEQJF3+YSbtRJ8+nNdMa72TqBj/sFYcz5/U8j/X1dY4cOcLk5CSlUgnf9ykUChHxi+u6zMzMsLq6GnWOxeELkxlvpQvrJqvS6TAlXMYAxqnukmS8u/VHJ0UJrZvWYWKnB+FNHqTMc9+42x7qbZOK/dsli7pl1HvZmA0Wb9qE99Lr33pu08zT7nz9jrkZg3Q6TSqV2qOczeHjrd2kbvYV/nfq+jDlP/Hi+dYdqJ9MXlKY1a8x6mXnLRQK1Gq1iKnIKDAODQ1FhsywT1mWxdzcHFprvv3tb+O6Ll988UWUHTcGuJuAXCeG8m67cNzotZND6UeTyPf96P7Ms2xX6vVV9UT3A5ckhb5xh8PAR902sE7JsFasPb7J9wJZ9Ppsx8bGek6Y7WWd7rfj67DnRD812Umft3txl1sNa/wBtxOl65UkodNkOCi8xfM87t+/v+t1o3nUbnedm5vjwYMHTeGzlJLt7W22traasM92YUQvk66dmKAx4kkTsp+2YtO1Y/425++lr38vHt+zapiT6B/34xV3ipjaqecmGcp2r8X/nQSLJYkr7qU5ppMz0KvRTCq16mTYn/Qc6ddY7uf67F52y24TpVPfd7tQplNCbL8Jh3bfN1l+z/NwXTearKb11HipJgmXTqd3qZm2Yk29kkF0Sgi08zrj4xsXJ2sd227Z19bNqVOX117G+nnxbg8i4ulWopQUUbRCLb38ZrsypXZ8EZ34I/byPOPzOu48tEat7RjzO43VQazxbu3bWrR0xbWweSla9M3YLZy5+1k26lNFKGrYusE1Pp+yD2pSdiOZ7scLOOhFagYvk8kwPT3N8PAwn332WdT1tba2hu/7DAwM4DgOc3NzTE5OUiwWyWazUSucCaOllCEJbqFwKOVASaVk8cndTiW106RrXeBJC7WfDXW/YfJBjlmvVQuHhc8miSWacY1HOOb59aOk2q6JJMl4tqur7ed+kjxLQzreWiLZ2sgSr5V9Wjh9dF2Nwv6QpyAhKiBklooUorXqSRMLBEqZew6/b/DnRlmpax/kRO8kHdFP8W+3mspeyieSFpQp1ldKMTg4GOnHj4+PR5N+fX2d4eFhcrkcDx8+ZGZmJqpbbG1ZLRQKuzDPfryEduQjrQuqnzHtVAsaF8Hrh36w2/vdnul+S1l6nX9P6jp6gbFa60NbGb96abtu1zySFK30eu69bBhmzg8NDXHy5Em01ty7d496vc758+cjzozFxUWUUhHJyV4x3b0+k/HxcY4fP046nWZtbY25uTlc140k0A1XwDe+8Q1836darYacAFozPjHB2toaJ0+eZHx8nFKpxP3790MR0vU1VtfWCfyG0GJjTEZHh5mcnMCOOTvpdLYgewkDDkJLqR/mptbP9XtdSe9LKclkMpFelumaMd7n2toarutSrVaZmpqK2vwMAcva2hrT09M8ePCAsbExBgcHE0OzVqG5btfZ7f/x87S2T3Z6PelPr+Of9Bv9fL7f7x/Unyd1Ha3j3u73W59ht2vrds1JihO98Pn2sr47GVrzu7/7u78blf595zvfQWvN17/+der1Orlcju9973sMDQ0xOzv7VLL7w8PDbG1tcefOHU6dOEk2ncGWFufOnOXdd9+NSiFnZmb45aVLoDS/+Z3vYls2R48eZXh4mJMnT/L555/jeR5vvvlm9Bw9z6dcqVIqVSgVKxSLRRwnxfj4OOPj44yNjZHP56nX68N2Nw8nSWakH6+yF6+tUy3mQe5kvu+zubnJ1tZW03vlcpmRkRGKxSLlcjnahZVSXL16Nfr+3/zN36CU4uOPP25K+vRzj9081Vau1U7RQKcwPwkDi3tLSQu/15DwaZY5PSvQQ7ue+fjrZn7EW0b72WDbyfLsJeGzHzzZVPwopVhbW2N7e5tHjx4hpcTzPBYXFymVSpw4caIv8cl+PeleIBPTxFNz6/gq4My5s6xtrIMUjIyMRC28tXqdL768zKkzp5G2Fakl37p1i2q1ysbGBvl8vkGwFKrkIkDbQShbHTQqnpQOBQF35NVTPVH/7SW03csgHZZBNaGY53kR+5U5DB/A0tJS9Nrm5mZbzNJgTEndIO0A+n4Narewdq9F+90igl4TCL1SDu4Hm98r9LMfg9wPP22nsWrtBuyUqOrXqPbzXA8i5Db3GgQBX375Ja+99hqO47C9vc3nn3+O4zi8+eab+L7Pr371q0jH7GkcBuLzfZ/x8XEAzpw5Q6FQoF6vc/HiRS5fvtyUtG6F9XK5XET9aVR9hQYRgPYChEXELSuEBgJCmiqi5273YpDiHJPdMKV+8Kd2/0+q/9zvYMd2kp46JlrVCZJeP2hcsN1OvJdSkE5E0p0w1f14Fwe1KfbKRHRQXlAvbcC9GONOpDpJgom9GMpOeGu7+zgIDzGJwczzPD755BNs2+aP//iPuX79Or7vc+nSJVzXjUTznlY1SBAErK+vs7KyEvE8Ly8v8+jRI3zf54MPPogM5czMDFNTU6yuruL7PrVajVKpxKlTpyiXy4yOjlIul8NWXQtESmH7YMQepLQj6FCpnY4xIXpg/jcPqlwuUywWm4xSrw8l2ftqVVoMX89mMwwPDx+o0UriRO2nbjbJ+PWiC9UPKXQvRqobMUk3btVu2PZBJROepxKr/UZcnTqY+vH8u+Ghvail9vIs91KJYwyG8VKllDx+/Dji0YhDSa1NJk/yWa6vr0e8IaYu/caNG9TrdbTWfPrpp7iuy5dffsnAwABLS0ssLy9j2zYPHjxga2uLK1euMD09zerqKktLS2F7fsZhZGIIAoG0IPAADUr7rK6uYlk7LfbpdGrV7tWz9DyPlZUVSqVSYktqJ07R5M+JGK2WQAgbaQkmJycYHh4BDh4L68cI9VJC1Cnr38mbSPpsr4a6m0e4FzHCgw4Zn6fjIOqfk9jWkkrYOrV97pWEvdeNoZ/zJZ3f5BSGhobQWnP//n2UUnz00UcRKxbA9vY2lUqlrw2rXR17N0ipdUMpl8vRvw2EF78Po0Ry+/btpnObXIsQgo2NjYjK00QvY0NjjA2N7RoTIwpqvGTf9wkCP9ezRpX5Y+RSOg1Mt7bT8PWUMa3m1rBsiVJBo6zsYJMjB5GQ6NVr7UV8rlv//l7KYDoZ814W0pMsgXkRjk7GICkq6MdL3c88OKx7rFQqkYKHea1YLDbN6SAIIrjwIPHuw4DZ+ln/7V4zUKVRQAmCwLF7CW0MjpiED7Xu0p1Kd5ovPH4DIVGsbVtIKRK91L2KyR20J9OOtLsXI9fOuCZ5N3vBKLt5sJ0SVd0WfL+8pP2M4UE+j4NcqP0uvm5hfDfv7SCpBnuBufbCQZqEHz+Lffz94vK9OhSd1pgZh740qqQl0ewoPOrIm1QgGmJkKISwQpVBLBDh/6VR1Gl8RSJQDeZyiUIJcaAh/2HjcL16jN2y+T1PRvOxBtm4kAGW0Eih0QgCJVFaonVD3VL0FtodRO//XifosxK+97oZ9OJ8JBm1dhuXFgKJAmyECEjbCikDAi0IAgulrCbBv72Ox0FBHO3Ij7rBY/vBp/u614YN0bvi3L1i5TTOFYqRE5NhCa2faijK2qENJGwOsHvdoQSh5NWOSaShKijQKCRhNZfATCLV+JxuSA/QqEXQ4UTSGiyFUhJJgMCOPaTevNV2AnYHHQ7sx8vqtmh7WcjRJAWkAMcOyGXrpGQdxxYESlCtC2pemrqXaTz17lnlXmGA/UAkTzpcPUgD2yse2K/ia6iSqsLkrBCkpUs26zKQ9Uk5Aj+Amquou3lKFRvFwUIAe+Uj7jcqOcg61a5rGB1TPtFNisWtQp3tIszWqDG0WbpxbgFKAgGhxdIEAoS2EEKjUQ2zquirTVVqiRQi9IJ0w8NEI3QohK0FCClCD1Y7DcMqkFqjpAzFsRqKhFpohPYRWGisjpN2YmIiGpzh4WEWFxcZGBhgeHg4GriHDx8+EVigl/Czl2RRksfadYfXAkv6DOZqTIz5jA1lsG2LUsllc6tMseoi0FT9TLhx9mhQ96qYulc44HmIQvZCftzXeDb6zx0BQwNlcuk6IyMOQwMZUrZDqVJjbaNCEKQo1zMH4HsdjCPwrGHa8fEfGR5mbGyMQqFAoVCIuqds22ZhYYFyuczRo0ep1+usr68DcOLECTY3N7Esi8HBQebn57Esi+HhYYQUrK6tUM2X0WfqWJMKIRrlpRKUlaFeW0cqG7sm8TckTsryejaqGghkeBODuYDhIZtiSVMqS5QAhWJ8yCKf1awXBXVPIZBILRgbhVRasb4eEARplAiwtGR4IE0647OxBa7X/rfHx8ep1+sUCgWGhoYoFAqcPn2a1dVVqtUqJ06cYH5+/qmUcjzJQ0qNY1fJpmt4Nc21xQIb2x46CBgfzTA0mEZKD7+UwlOy68LpR5ngSXqbB7mo91rX2gvr/f7C8DCKy+dc8hmfai3gl5cLBIFkMCeZPZInl7XJZaDup/AD69CeQVIE+DSNZK8RZPy6pyanOHLkCK5b5/ix42itOXPmDOVyGaUUb7/9Nh999BHnz59HSskPfvADBgcHeeedd/jyyy/JZrMcP348qgI4f/48nu+xvLKEN1Yl/dtfkv+aF0FxQoIOQNUgCMIyK1W0CGb8vJ00WZIIOpQK0CpASMHFC4rf+U6NL67CJ19kWdtUCKX5jW9WOX8cPrsCv7qeoVIDT9v89ne2mR6Fv/nU4subIf6gge/8msvJIxV+8LHNtdtZBDLCZeM7s6kBGx4eplKpRCz8S0tLVKtV6vV61Ar4tAHxXqQi2lHFJWFwcVBVoEk7Pvk0LK3U+Nmn87j1AGlLjh8d4ttfnyWTCShWBH6HErd+vMzDrFvtxSt8ltQIesHO23muiYTsaIZyHpOjaW7dq/LFtVWEr8ASvHJmmF//xglGhwQV18evWj17bZ0E9npRV+1n/A8yw9/LZtpu0xufGMfzPB4+fEQunyObzZJKpbh16xa1Wo0TJ06Qy+WiOlvHcTh16hRbW1vRZ5VSnDx5kqWlJUZHRtgqFEKXNAP2lEfqyE6CvSXoCPFXFVDVlVnZ6w4SBAGuV0cHPptbsLYG+QyMDNZwZIDUNqtrFsU65AfBkmErZyBgeRmqPgwOBMighu8GaK2YX/GpB5DJ+GgdqkCGnV7J5MGFQoGVlRWASIDP1Jbtp4zjWRF467o7C41lK1Iph0D5uK4fjrMK2C7UyeYcMlkJorYLk+7UbfW06lP3S9TztA1wp6RNOzmUpqSV1DiOYnw8g9Bh0bolQ67OSl2RSgkG8xJL+gfqhb+Ih2VZ1N06tXotakU35C/1eh3XdSP6wtu3b3P69GlGRkZ48OBBw2lUFItFTp48yeTkJNvbxchaCiUgiOWKdfOf+KGEcnoP/zUEgUYpePhI8CebNo6lqNYFrhIIEfDF9TT35jwsLCrVAD9QSAc+/izHtbsSGZRQvkSj8JXi8tUB5uaqeH6AUhqUQCvRMKrBLqNQKBQijakzZ84wOjrK1tYWr732Gp9//nnU+fE8JEB68Q52LwIdZoQVZLNpHNsmCDRomJzIIqWiXFMN5fFkr6oXVcl+evOf9pg+7Wvppc44uexIooXC9SV1X3Hu3Dg/+Ok8yvKQ2DiOQEqbUsVF6/RT9dCfB8zb8zyGh4eZmJhgamqKQqHA+Pg4w8PDZLNZRkdHqdVqAMzPz/MHf/AH3L17l3q9zuDgYCSnVK1WOTI9zeL8PFOTk2gRIITcSbbr3d5qLD+GReDYvQ6ylAJLgNISP7DY2NIIYYcnVBpBuLu6ngNCo5SN1D7Cr1EJMlQ9hSUG0bZEBHXQFtVqFc/LEYgaOtBIaaEJAL/JKFSr1YiKT2tNtVrlzp07nDt3jnQ6zYMHD5oY+fey0J4FY9GRMZ1w7D3XoVItkUpJpqfzLC6VGcjbnD0zTK2qKJYtVGDteTHtpUlgP6qj/S7kp1lp0G+9cLvOOWNU0YJy2WJpucSJoyO8+eYk124uknEcxoezbG9X2Cg6VN3UMzUOz+Lx4MEDjh49ypkzZ1hdXWVtbY0vv/ySU6dOIYTg0qVL1Ot15ufnqVarPHz4kLm5OYIgiLqvhBA8fvyYgYFBtja3IAgQEtRAHVWH+kLDebUa9UlBw5AOgrTDR2ql0wW714khhEAhEUIRENLeGZ16ACkESIFsWHV0o79fAyLESoUI2/RSKhXVemkNvisQlkRII1fQzES/sLCwC+ddWlpiY2Mj8lyTrvmwy6v260G1ypu0etmtxdVSSyoqRcFNM5j2OXV8mJHBFPm8A2jWC1CspAkCq8krNaq33XHbvS3GgyzR2Q8O168hPAiV0Havt9am+r4fSbxrrUEGoG1KZYmVdlEPC5w/NUwuDdq3mZ7KUlcW5VoK5cvE+4rzcCQpA/RaFnaYG08/JO39rM3W79brdR4+fMj8/HzU1bWyssLW1lZE+wlw584dpJRcvnzZMPVTKpWa1trGxgZaa4qlbSxtM3BrEvVffEDNUmgElrBAhwrT6XQaYUt820WjSP+v8g/6KKkSkU6LbhjVVCqFZVltM8lJCZjQ27SiSeF5HlpphIwnUpp/2QxI/LzGXX8WQsD9GOpOeuSGx7JJQsW3KRezSL/OwECWgYEsQkDdt6nVsrh+FiWCsCY5RiLjeV5PXVTP+/EsdvaYRW2kN4QQaCUREnwl2C7kCfw6A3mL2WMSHUjqgUNxM0e5aqORhE01O3pIrcRGh1H0/7yNvyFTia83UxFkxssYUqNRl1RtYP42dseupBG1TOQImoA/k86Qy+ewsfCkwvc99Bb9YKp61wV3kjhOKo9oNbLmu3H+yb3oLh3mpNjrb/TCcpXElxD/nqnN3flOWOPrBhk2iimQQwjpo7WFCgSKACED0FajRjh8Rq7rRhyw7Rjwe4UAXh705Dy0VlsopQiCICJ7FkKiVPhMXT+LX8ywXXRxGu1wrg5zD1qE2ZBWh6IbXPRVfBatDUGdqEo78RvvsjPoFsdHNiJwC4GFIsDGQimBwk/1xSYbF/RqN4GSDGrrTbR2OHie1zF7fxCSLs+jh2UWYrQ4Aa19lNaNFl+NCiRahV1rAhsRSITeGUulVATQm7H/Kozns/AsWzesarUaIyPyEdgh+7HlEigfhU1N21R0CIsJLRsCds2Ojdkg263Dr+LG2IvC8F4wf9NNKlX4RwQaoQMEPmgP8MPGWCWROBDv/U/yAuPWP85JakJvI3y31+SDcce11riu2zVUftJh/n4LwHvBUltfj0v/mvHZUeKMj6tG6UZLrzYrT4V9rI02YqUU1Wo12gx7IafulGQ5bO/+ScAth3HupOgjLtscj/IqlQoDAwPhM5I+4ITwV0SjoZFYjRZJsQO76Z3SxtZocT91vgehDNBtXve7xpJe75XesJ0NUg3YMmwRbiR+Y9LzEOaFWnFypRRSSHTDidnJ9Yelb1qLxtoMUHiAdHvO/g8ODvLqq69iWRYTExNYlsXc3FxHwL4bgN3qrgshSKVSX6lwpdUbTxpHz/M6F3UnGDWtNfV6PcKQzOIzcrovutf/tAx7a24h7nQYL7NcLpPP53vi4Y2HsAaXbaUXfBEjj70kEVsbIOLJPGEit0ChGu87lo3ruhGMqfwg+p5uiqo1YUWS+R0RSbIYJ8gk7LXWvff+p1KpSLdlenoa27Z3cSnuZ7czF/e0PZ2nHS6aB9ma3fV9v6NBjE+oIAio1WpNBrWTquhBh4t71X46bK/4oPSaujkKSUZ1pzMxNKzb29tRJ08S7BN/NiH5cdB0Db3I4XyVIAAzLqdOnUJrzfz8PL7v88Ybb7C9vc38/Dyzs7NcvHiRUqnExx9/jJSSX//1X0dKydraGvfu3WNwcJDXX38drTWrq6vcunWLtfU1Nre2wlp6LZCyIRSYT5PNZkg7WSzLwrIsHCdd6UlOJYmdfr+hXuv3mrDDF8yotkvAdSO3jmtqmcVlNqBWdVSlVLT4jDdj2/ausD+J77YXQ7bXutJ+P3+Q/exPMomTWIIYM45x6MyMpWmxtm0by7Ki52XWg3mW7WSqX7QE436gAzO+09PTzM7OUiwWKZVKnDx5ks3NTWqVKmdPn+EXP/+IoaEh/vAP/k3+6q/+ihPHjvOvP/zXzM7M8pvf+S5XrlzBrde5fefOTmSgBJWyS6lYASwC5QKaV149y/T0NEJLfD8wCWHH7nfCiLBDf1d/lnnYrRUCcZywVSMqycvttfzoMDymXhb4fpoLermvdl5ra0hjHnh84zNjakKRTtr1/Rqy/chK76f3v1dpmcM00L38dtKm04TXxYyheYZxCWvf95vKfMy6aS1Z7CW66BVHTUro7HfDPEy2/3ZwWfw9M5ZDQ0McOXKElZUVLMvi5OlTXL95g1KlTKG4zfe+/1ukMmm8wGd9Y4NKtcrM0VksxyaXzzM6Osr29vZOjXiDhS/QCttJIbRCYGOLDNIG245UZ/N2vztJfiDP66+/zsrKClrfim5sdnaWN998k2vXrvHo0aNowU9NTfHd736XX/ziF8zNzUWGNZfL8Xu/93tcuXKFGzduPFe76WHgfe14YZM+b3qYW6OJfkmSD8rwHOZCet69r06bZKfP9pOAehZlS57WYVkW9+7dY2JigsnJSe7fv08ul4sgzFY4JmLrD6VQolxEqVSKNjmNDmlLLRFyqSq1Q1ZqeHF3vGXH7vsB6J0wNL7ogyBoEKI019AppRJ1rQxOaG7kZXlPf4a1dXK0TpR2i3ov3uKTuN8X6dl1CmW7bardEk6dYI1+lApeVMzV933W1tY4f/48KysrVCoVstksd+/e5b333qNcLjM+Ps7jx4+pVqtIKTly5AjHjh2L7JSJIqLkk9BhQ02DXN+SEpQiCMJS0HiSSgjh9e2plsolrt+4jm3ZTQ9lcXGRhYWFXeHFysoK/8P/8D/sKr2qVCr883/+z5/rh7tfnoF+u62S3u+m7PqieybPupFtVxq0H6awlwKN7e3T/Pw829vb3Lx5k3K5HDW/FAoFbt68ycWLF6lWq/zkJz/BsiwePXrEyZMnKRQKfPnllxGt6LFjx9jc3GRrawvbsshks0hpARIVKKzGMywUNkmnMyilCQIfx3HKXflUE3e5Rp9/Nzwmjikd1OLulw/yWfWyDpKc5OXCerY2zXbGNR5h9DMnkub700j+HbT3e5DcCybnYBy7UqkUfc6w2z1+/DgqA5VS4nken376aZO9KhQKfPzxx01Oy9jIKKPDI7t+N51O4zhOFHW7rsZxrILdy0AleUa9PvzDwiZfHodnCF4eBz9HX0YPz4bTE9/UkpLl7UrTkqA527bJ5XJNeljVanW25/DfsOtblsXa2hqWZVGpVDpmQDv17xvw+HkO615e48vjoGCB533jeV7upZN8eyeD3KsShBDC7UlNVSnF6uoq29tFfN/n9u07kWWOnzd+vfF2SiEEqtFqZ3aL119/7aV3tcdwZy9e60G3kj6vz+yw+HYPshTpJS5+MBFAr5tbLzXY7erLk2CdnsN/1/XY2ipQLpc74KTxfzcXmevYBcWLnPeywDtlxTvtogfV/fWkPJmD4hno1WD3K7jXjnHrWVfg7OQ5duLsfFIcBweF1z/LRm0vXu9+a2o7Gcm9OCztWPjsXi/AsnYIBaRssFC3GeDwB+Wu/5t/W7bd9wDsJUF1GJPrScn3PisJOQjr+zKZTKT1YyaQZVnkcjkqlQpBEOA4DtlslmKxeCBGNpvNIqWkXC737VFKKUmn06RTqSiCClTYvms6lYwscalUamoDTafTjI2NkU6ncV2Xra0tqtXqc5N136vxedqQxIvigffcURUWI9NiTFs7HNrTkJnxahQO7Dri3Va97mDtOBD321b5tELgZwlni9/b7Ows586di3qhK5VKZLTeffddLl26RKlUYmpqiosXL/LXf/3XHbksezmUUpw6dYpcLsfnn38e8Rj0alBSqRSnT5/m6MxsREgjLEmtVuPOnTusr6+Ty+V49913+eUvf8n29jZKKWZmZrhw4QK2bUfE3iZzfO/evefCgBxkZc2zfDyrEVHPLqOUAhFJRwsQGtG4Jy1AoxDaRggL0cBRBQ0xFxkSEVgIwEMJq8mA2LbNyZMnI6q71dVVarUaExMTDA8P47ouKysrlMvl6DvDw8OMjIxQKpVYX18nn89z5MgRqtUqS0tL2LbN0aNHCYKApaWlXc0Hz6Ln+ix4CUn3MDIywvSRacZGxyhub/Pw4SOUVji2zamTp/ji888BGBoc5HRDE6gTRNBpQ4mHUmNjY4yMjHQNx1vZziDsrJkYnyCdTvPw4UOUVmRzOc6dO4cQgnK5TDqd5tSpU1y9epXt7W2Gh4f5tV/7NUqlEnfu3KFSqUTG+e2336ZcLLG8spysU3yABuIg6fh6cQD2KmnyLN3z03RmWsfE7vXkAhEyXWsLS6hQnlWEFjU0rhJkQ/9aghAajY8lbKQWeEJhSQsdOAiajarR4L569SrDw8O88sorLC0tMTMzw+LiIuPjoaZ3pVKJPn/hwgU2Njb4+te/zs9//nPeeecdHj58yPnz55FSMjg4iOM4WJbFwMAA169f71g3+yx6rk/6/B1mDSvLy2SzWU6eOMnKyiqlcqmBBsU8Uk1ImJ1w3ZZlkc/nqVarZDIZgiCgVCrhOA7Dw8PkcjlKpRLb29sRuY6512w2y9jYWKQ7ZDTJDAQxNjZGPp9na2uLQqEQGyPN5uYmd+7eJVBBFO4PDQ014frGKJ88eZKxsTF+9KMfRdpGAMVikQ8++ICLFy+ysrKCOuSI4jAjlmcZsniWrq2X62n3GbtXAFcjEMJCS5+gsZZk9I6NaJDpBsJDaidU1ZECDxtL15HCQmmNFpqUkLsedDabjQiZbdsmlUoxPj7O5uYmi4uLkTiXqUZ4+PAhxWKRd999F8dxuHfvHoVCgbfeeot0Os3q6iqe5zE7O8vk5CTXrl3bl9rqV+VITsaISIny/PnznDx1klu3bu2MZQ8kHwMDA3zwwQcUi0XS6TR3795leXmZ119/nWw2S6lUYmhoiK2tLa5fvx4Vbw8NDfH222+zurrKkSNHePvtt/nRj35EuVwmk8nwG7/xGyil2Nra4uzZs2xvb3P58mWzF2BZFul0ikApcrlc9BsGQ43f5+nTp1leXmZjY2OHY1MpSqUS8/PzXDh3nnQmQ61ee4knHmI4/7yPRc8k1RpNoDUjeYfXL3poDfceWqytKQKhmRgVvHpWg4Ib9wSVcugVjuRqvP+2orANV67a+JZC62DXb6TTaY4ePUoul2N9fZ35+fkoBJyenubRo0e4rsvAwAALCwusrKxw4cIFHjx4QLlcZnNzkwsXLkSJjfX1dYaHh5mamuLatWsvLK3gkzG04YRfWFhgeHiYc+fOsbCwgGp4lL0YBikl4+PjbG1t8fnnn1Or1Th9+jTDw8Ncu3aNzc1Npqam+NrXvsbW1hb37t2LDNvdu3fZ2tpidXWV3//93+fVV1/l008/5etf/zqDg4P85Cc/oVqtMjk5yVtvvUW5XObBgwdIKTh18hTjE+MgBI7jUCqVuHfvHrVajWw22wQ7DAwMMD8/3+S9mlKZSqWC4zikHIdavfZc1Zl2qlp42pDTi7ge7U44jEkeKaUIfB+0z/AwfP/XA9IW/PiTgI9+KSlWJFMT8P1vuwigVPW5fS+D0hYjA4Lf+36d+UWYe+iwWrKx5O7fqlQq3Lhxg6mpKWZmZhgbGyOVSnH16lXOnDlDNpulXq9HOj+vvPIKIyMjfPnll1Gv7oMHD8hkMpw4cYKtrS2+9a1v8fnnn7O6utq2ZvN5e6hP49rj2fObt28xMzPDuTNnuX//fhT2Q0OyQiREOQ0D5boujx49Ynl5mYGBAUaGhylsFVhYWDDdKJw9e5apqSkeP34cck2USqyurhIEAZVKhfn5eU6dOsWvfvUrzp49y2effcba2hpCiBCLr1aZmpziwYMHaGBlZYVr168RKMWxY8c4efJk1HiShCMb9dq4KKWJnnQoxXfghu1JGbf98q4+CaHNw75/Q/RutPHMM0+n09Tr9eh5x6tB6rUa9Xod3cgnhcoqOoSxPB9hyZigo8Du9YZ9zwclWFpz+ZN/IRkbUawWJAEWQgQ8nlf8i7+wGBgQbBfB1wEEktUVhz/50xR2ysO3BK7vwg5x1s75fZ9KpUKtViOdTmNZFsePH+fMmTMA3LhxI9LjHh4e5uLFi2itGRoa4tKlS7zyyiucP3+ekZERfv7zn/Od73yHkZER3nrrLaamprh8+XIipvrSe+3NUzVzYXNzkytXr/DO2+9QqVRChh7RfTLHRR4BpJBY0iIIqhGGargwHcdpmhfxJpRqtcrU1FSkuR4vt9JaowKFNMaDMCG1uLiIHwSsra0xOjrK5OQkS0tLu8q+Njc3I6mg1uufmpqiXKlEuP7LcP3Z9saTDt/3+d73vsfKygqTk5M8fvyYlZUV3nvvvSh3c/nyZU6ePMmNGzciQdLCdpHFxUVqdRcp7UjZ+OjsLNljWaSQVKv1hjSL7fVcUqV0gNI+NVdwfS7AmhNopUO9F2FRcRVXHkpsIVE++FpiCR9PaC5dd3B0DpdKg/BV7PJSf/azn2FZFhsbG3z66adRfWA6nY6SVGYn2N7e5sMPP4wWQ7Va5ec//zm5XI5arUa1WuWjjz6KjKjBal8az717qkIIRANjvH/vPufOnuPixYtNBrCXyR0XNPQ8j3Q6g+M4eJ5HPp9nYGCAubm5qFojn883VYkcP36cpaWliHlodnaWO3fuhB6IkGSzWVbX1syvNYyxjlRly+UyAwMDTXRtBp64f/8+v/Vbv8XMzAyPHz+OeGunp6c5evQon3/++YErVLw0zk8Wj7Vtmxs3blAqlZiYmKBcLmNZFg8fPuThw4fRZr27oUXguj7SCr1Vpfwwm+TY2HYKpZQpw+udpNp4JFZgo7WDtAKEtNEKEApJComNRYBOSVIeKCEJsLE1eIGP0DlSlpsoVGc8AOOtGGNrXo9PYJM5jk9MI01hQrZSqdTWM3159O+pwk5m3/M9Pv/8c77//e93ZF1qN+G11tRqVZaXl3nzrbd45513mJub45VXXkFKyfz8fFQjmsvleP/993nw4AFnz55lZGSEH/zgBwgh+NWvfsV3v/tdtre3WV1d5fy5cziOw53btxuqmWKX3Ea1WmVsbCy67rhKwt27dzl37hx/62/9La5fv87y8jLj4+O89tprrK2tcePGjZe8Cs+54c3lcnznO99hamqKH/7wh2xsbFAoFPjggw/Y2tri5s2biWx70rJAWATKrAkbadkIa0eqKIITepkcoXchQQuU9BFC4qQzTaQokfYRptTKYGmh9GupXAICtJbIHoh4+8ESk1olO+FW7Xa1g4QCnsTiexL4qhCC9Y0NSuUynu9FVvbxwjyfXPqU8fFxarUwG14oFLhx40ZTksdEF/V6Par9BFBac/f+PWpunYsXL3LixAmWl5f5yU9+EpUzLS0tsbm5SbVa5fXXX6dSqfAnf/InbG1tAXDv3j28ustbb73Fa69eZGFhgX/9gw8pFoukUikWFxdDeR92nrcx2EYc8fr161Sr1Sii+fM//3Nee+01zp8/z6lTp6jVanzyySfcvXv3QGudn+TmfpiJqf0k7JLWa7+y1P2sWyEEpVKJv/7rv2ZmZoaZmRmklNy8eZPt7W1effVVxsfHmyTFm6KZBgymRWjgLCGxtLXLBtp7ezBE+jmtDyqpd/2g+tif5OR7lo3pkz7m5uZ2LQAzGePh89LSEgsLC7tCaxN1GAXL+Bg9fvw4Skq1hml37tyJ/n/37t2meWYM9tzcXMSRKaRolM6Gkhim7Mv8luHbnJ+fjxbAz3/+8yaZYa01169f59q1a03SJy8jnBfDU61WqyilWF9f59ixY5TLZX7zN3+Ter3O9vY2V69e5fjx4/zO7/wOKysrXL58mdXVNXzfAxS+H4CUOJZFrVZhu1SMhBsbLH7tWaqSlAqNVEp8cXUr14gLcpli7WcF1H4ZwvV+JBmY+L8NLaT5XBKJjTGorR5A0lyKCx2aeRNvZY7ku4ldQyNz2+434sqk8c3AXLsxrEEQ7BLt69RG/dWGhsRTL9HqZR0rpXAcJ2L8d12XTz75BIA/+7M/i3B9gB/+8IdN5xwaGiSdTgPN0bCUkkqlhBBWxCeRzWYX7G5ueXxytupP9eKix9sO4yUMXxXA/EUw3K3QStxAmedvvLx2RrfVGCadO2kjb/29+Ofiv29KYVo3gSQnIW6wjUE178e7uV42i7w4h9k0jcBffO6ZxGl83sQ14PL5PPl8PorSw0SSJJ3JRCTVRralXC6esrsZBfPDjuNE0gGWZeH7foRt9Vr/aeR2+w2pDiv8OgzD9yJ6we0w7G44da9KqUnzphNxcC+6XJ0SlK2eajtP66AUSzutrycZmR3WejooroKDYAHrxGjXujl3mhftSZwA5K55byL5riTV8cLnEydOcOLECWzbZnZ2FsdxuH37ds8GpHXHbxUCfBlafXXCxZfHy+NFczTiR9fifxPyGyNojKzBz/azm7zIUrkvj5ebx9P2UF8eT8ew2v1MDmMMjTHdzZkqmkoRzOsGLuhEPfa0wuWXeNmTGeOXxuTl8TTX9ZOcf9JcQBzn7CTBkUqlmJycjMgozJ+BgYGoODuON2SzWV555RWGh4fbSoV0k/LoFZt7GgY16V5eGpG9Px/RpYa5Hzn1J32PrY5G6/x+WnOiVx2m/a6h/ZZOxu3Jfs4VH+/9jnu760g6b1Ru2O8PGDYpkw0zr4+MjPD6668zNjbW9GNDQ0O89957jIyMdJxczwpzzkEtrie92L+qRvzl5vXyWTxLEa7WOmX3O2iGTaq1ZnVpaYkf//jHlMvlCAIQQrCxscH/+D/+j2xvb7+QHly3Lq2nNamfJ1jjRdlQv+qh9rNGMn3YBr9d1GT3aYUJgoByubyLSMN1XTY2Npq+b+jeVlZWdhVlv8gTLO6NfxUxW0Fc7DHS0Q3bRTXhaxGhAES6POHsbzpPNK6xf8S/aj4XP63u8P3npbvveXIqntXxbCUi7//emmeRKQltd+8R8U+vBjX+pX4xzr1oFvVr7A/Cy9yrAX0WPawnadRbI5BTJ0PBvnjZXKuMb79eRC/yxV0Zsgg5YdfW1tjY2Nj3ontWw+KnwSuQVLd80FLb/Z5zbW0t5EFNwGi7VWeEbHoSadlIKXAcm6GhITKZTMfr7Fqn2s7FNW18vSza1m6ZOGyw10X78nh2vZXx8XE++OAD8vl8NFcKhQKO4zAwMEC9XsfzPGzbjjrrTD20UipSPrUsC8dxIsrHkZERyuVyhOsDkWz04OBg1F5aLBaxLCvyKlKpVDRfbdsm0IpHDx/x05/+lGKp+PLhvUDwV6vNWFxcbNIacxyna3t9+HpI9Rf44bxMZ1IMDw+QyWQSjWrrYfe6YAqFAvV6HSEEhUIBKWUU7vdqVCMmKyGYnp7es2F9Gb7170Ec9piZeXL06FEGBwejzpVKpcLS0hIDAwOR0ctkMriuG7UOhryq6WhuDQ4Oksvl8DyP1dXVSA57ZWWF0dFRHMdha2sr2qBrtRrT09P4vs/6+jrpdJogCEilUtG5h4eHw9pqBFOTk6RTKV6a1OfbI+9nXppNvddqAN8PqJQraB2gVBCVkvZy2L2EU0opCoUCGxubVKt1tFIoHXQshTIWPx58mRuyLIsjR470JY17WKHqfozNs+w9d2v5Oywja1qZzW/6vh9xmBqi6CNHjrC8vEy1Wo08U0NS7bpuRGxSa8hYmIVRq9WiyV2tVhkfHyeVSnHnzp1ok3ZdN+rhz2azrK2tMTk5GeUAosVxAM9uP2WAT2JDPYy526nc8rDvv99zJjUntdbYx2GBnc9qlPIj2RTDytcr9GT3s8A8z6NWdRFSo7WPUpqQXT1etxWqb7a62SZxsdvYPp1J9xJOeDIL2og6mjrltbU1VlZW8H2fkZERNjY2cBwnMpjpdJpCoYBSinQ6HSnrKqUIYpIoQghWVlYiiWuz+VcqFVzXZWhoiHw+z/j4OAMDA81ehhBPewo+E89pr92Qz5Jj0S03E3cM4zXkcQa0JL4JpXb4oNsZ6HZj03NJVXjS0IpLIVAYlU2i1+MXtrvwVkTnsCz5TD+Il8feF+j6+nrT//P5PCdPnmRgYADf95mensbzPIaHh8nn82Sz2YjhJ5VKMTAwgOu6kTEdGBiIvN9jx46hG4JrmUwm0sgaHBwEIJVKceLECaSUZDIZ0uk04+PjEXZr5mO5Uj5QwumXx9OBtFrhxc5es8D3A5QyEXPImBdnrGrVUlMq1DkzzmCvTSl9yKnIcHMXulHDohuGVMe80x2ROCF09H9jVM17Uj47bsJLA3twYZkQgsXFRT766COOHTvWNAmLxWI0+QyJdLFYbDLAJhHVaqjjuLCRRIlXkRjlgfhzrFariddZq9W4c/dOkxzP04B7XkZLezeqrd2fUkqmpqYYHx+nXC6zvLwczYkdFjJBrVaPGUfVxBHdXAYZM29C9oynNq4r1ZX6L/JURYO2TyjQNhILLYIQc2AHi9DIsBRBgxYSZSlEEIqyhabVR+hME6dlO6wzqTxjvwbwWS2BehHgDSEEruty5dpV7t6/Z7bSkEiaeP1oLPxuqVuNrl2HIihSCJSZk+zASxqNFBIdiqRFsw926mR1/PyNzyitIvb3w8Aq93q+w3xe3ToYD8ODPOh5nM1meeedd5oknCqVCrdv327CzwcHBxkcHMRzPYTUKCFIpQSvnPM4f8zj48sZFpcsXB0wlBG8chZmZut8ed3h/iONLSRDQ4JXzilGhwJu3U2zvKHbGdCmMW5bp5p0U6GSpoGiLBABKB+tQWGB0FiNwm6jlKqlxhICoTRoC4ULlkQJm8Bym8qrWls7k7g0XxSy58NcpE/73kzp0+joaCLJcyv3aSJbWUPbzNRd6xj8lERU3U2fLKlA2+hfua77zMyFp3HuJ7H57uc3zLOyLIuJiQmmpqb45JNPmgjGS6USQggmJycZGRkhnU5TLBZRWqMUpETA1ITLr70d8PXXYX7N5cFymjQB5854fPANOHUUakWPe48s0mmft88rvv0u5AahUvdZ2Aj1y4x6SVfF1lZ3usMtAhYBoFUKFCh8kBpbaYSyCIQgAGwpQkMqNYIUgQ5wSKECCyEVKSUakILFxYsXGR0dRSnFnTt3WF1dxXEcUrbTcDI0fhDg+V5khJ9XY/SiwgzxaGNmZoaLr7xKOp0ml8+hlSbQiu3t7cjbzGYypDMZBFCr16lUK9Hiyedy2JYdYp/lMrV6HSHDTXZ4eDhEn6SkUi5Tq9XQIpxHQ0ND0XXUarUw8QVkMlmyjdrCQAWhgKHnUS6XWV9ffxlTP+PzyhhQI3cyPz/fpNRgnvn9+/cjQ2wMoGjENrYFN+9Krt20uXpDIlWAxKdYhC+uSy59prl21wJt4+qA5ZLiF9ckm0WbB48kxIQAO5Fg95SoagrH0SAUx8YE/8bvbpOx4eMvJF9ch3pdcPpUwPd/w8cW8IOfp1hYSFPTHrNjiv/w36qyuAp/+cMsm3ULj2x0cUNDQ1y6dIl8Ps/k5CRbW1tcfPUiJ0+ciC4ylU5x7fp1bt68magV9BITfbpHXILi9u3b3L97j7fffpv33nsvrHEubvNXf/VXBEFAJpPhzTe+xptvvonWmnv373Ppl5ei5NUHv/EbHJk6gpSSL774ghs3b+IHPoODg/zb//a/TQPZ59rVq3z22WcgBePj4/zhH/5hQzMoDAmvXLmCFJI3Xn+dd999Fyklm1ubfPzxx1H1wfPkfe5n835eoS5TGmfbdlP5Uzy5ZA5TShcZPhRIhUeahWV4vKYRnkPgaSR1fNI8WrB5tKgAH9+XOKKO7wru3klz/wFoZaEDiZOWfdkbuxMQvPPvAN/z0TqFsGqMDMHEADwYV2QcSb1ukbYlEyM+g1kYH3R5jIXWAoFkfBysNAwNV9mYz4G9Y/UXFhZ47733qNfr3Lx5k3q9zuUvL3Pl6pVwh9CaV155JZJzMW1nzwve+DRITnqV9T0oTzr+vSAI8F2viVdXKYXruniehxSyyaAFgU+tVouK9I1GFIDv+9TdOr7vk8mEOLz5Jd8PvyelxHe9EJbVgNIEnk+92niv8VtCCLTSeHUXz3UPpE71SWGLhzEXDloept3a2i/tXj/fb4J8hMQSNpaoo7SNchVaBw1YMqwmUTpAK43WAq0VChs0eAEIHeL3QmgcqbGsMMHeQ4u+22NHFSjlATUerwf8P//rAXJWjcBzKNZ9tAi48wD+8/8qjWVp6gF4voslNavrA/yn/8hhIO1Q9GwCVcPRXoTBzc3N8eDBg10lWAa/MHrsvXYzvDyeHhRhPAvdyKoapVLzulIKP/CbWpZNRt+8DyISaFNKRaFc3DsxnrHv+xEBuhVTcY1/vvUIf0shLXloxu9lZv/ZwGjDUiiiOvokvLYt0km8zIpd9qlDgr136r+wzEAgA4lfD9hSEl+7KB0mqbRWVFyJlg5SgS8FUoPQAaVqlorngvARwkFrP5rgrV5OPCHRRG7wFWG5el7DNBOWXbx4kTff+BrZbDZ6jvl8nj/+4z+OJuBgfiAyumfPnOXI1JEIYx8aGooM41tvvcXZ8+eanr+ZJxcvXuTkyZMR3hZBRakUb7/9NhcuXADCOlmzIQ8PD/P973+far3GT3/6057arJ+1KOTl0f8zaqfI28nJ0LGS0db5181B6ZlQxbKssAKgUQybSltkhI3WCikcpJAIGSCkAAUo8IULloWlBW49i5Q1pMggROhVGG/ELMo4N0ArFPFy0j69kLFX0hxjxKamptje3ubRo0ehVyliXgaCTXeTzc3NxO+bGtRILlqGpVFSSh4/fhyxBMY33FqtxuPHjxMrAra2tigUCtHvjI2NMTQ8HHENHNS8ep42/BcFc+3HqPYKebXKQyV5qN2Mq93LBQWBRkobtAQUUljYlhWxBe38qNPUFuaQin7I8ypoHBA+NGpe49n8dljMQU/UJ1FCcpjXf1AhUq8td70cJsyXCBzLRmvNo0eP+OEPfxhioGK30UmlUqTT6YiFyvzm0OAQE+PjFItFNjc38QMf0YERrbWcKp1OMzk5iVKKlZUVXNdtakn83ve+x/nz5w/FcD6Lxumgcc7nBxZQhBQPAqQApZsTWYlt9GJX2B96qhIhLOLt9/HfbC0VtPdmlEREpdbuYSUZlSTN7Zf40+F7mod9mOf63e98h9dffx2AN954g+PHj/Onf/qnlBslU63XNzo6yhtvvMHi4iKLi4u8+eabvP3W22QbSalbt27xk5/9FNd1O3LpWpYFwMzMDL/7u79LPp8nCAKWlpb4+OOPWVhYiMpw4gZ2vx7ey+PZmdO7jZ1FEGhc10cjw3YRvdN+EgQ7eL6BN2NPmnAfF1gymaukk+faU/G/WTg7MinJBrQTGbXB3MwC6DZYz6uxfV7oCQ8yBNRa8+abb/L6669Hz833wzKo7/7mb/IXf/kXTd6omQvz8/NsbGwwMzPD+++/z6lTp1BBwLVr15idneXChQtsbRf47LPP2iaezPzK5/N88MEHWJbF/fv3EUJw7NgxXnnlFba2tqhUKokh4cvjxTyUhlo9oFrzCAKNEK017io+gROrQaS00bakX/Yd2Y+x2EkUhBlU3/fxfR/PM397TX92XvPDrKtSKPVs4aMvivfxNO9Da82FCxcIlGJ5eRkhBPfv36darXLs6FGOHz/e5BWY+ZRKpTh16hTZTJarV69y7do1bt66yRdffMHHH39MpVLh4sWLTXWKSYfpuBkeHmZubo6/+Iu/4Be/+AVLS0vMzs4yOzubeM3PEu3jQaiIvshHBPH0MP+bcFBpIWUaKSyklOEfIXf+LSXSspr/L2UId0ZlAP1V4NndFmb0mgCFJtAat+ZRrdebpIU0ip0qQlPnJXaYtC2J1gLXD/C19VQn8WFN2m7yKk/id3uamAfsqeXzefL5PJtbm9x/+ICZmRlKpRKXLl3igw8+4PjRY9y/ew/Rwk4mhGB8bJy33nyTzc1NLl++zM2HN5meniabzVIqlRibGGdoaIjV1dWmBJYhuDaZ2XNnzuLW6lEveKFQ4NHDR3zj/feZnJjk4cOHEXdruxbWwxjzXj97mJ7zk6yf7fRbe4k+RUyQrFnKTHS5L4nj2KRsSSAUlpQRm5khfOp03Z7nUy5XG7+r0CpoxQh2wV89U//tBnJFQ1xNo+lAStFgqUI36ry0iBxji5c1py+Sp1sul/noo48ol8scOXIkev3hw4f8xm/8xo48eQI8YozcyMgIH3zwAcvLy9y+fZvFxUWCIOAMYevr9vZ2E4G1MaxaaxzbZnZ2Fs/32NzcjIhdNjbWqVQqDA4OkM1m8TzvmcQDX+Kih3F4WLbGdkApFykdbNsO2fZEnN6n3fwX2LbbaA5o/EH33vvf04BgjCsIqwFatDjjgmYFwvDHw8ZCbYwsIKR6OcOegtE8SFG2ZuxJRuVTJ0+ejEJy09E0PDzMyMgIgVZN1H/RfIrVEE5PTzM9Pc3i4iJXrlzhZz/7GceOHePEiROsrq7ied4ufDQ/MMDAwAArKysRpZ+Rctne3iabzUaVKk9qU3oWu6qexY6vQ7tnBDpQKN9DKw8tLZTyAdnE/h+vlW8unVLhHzSBCvpyOux+HoxAIBtyKFprtOpW4yXZzbMqdlUN9OIpvcSZDtcD2A+fQiaT4a233iKTyTA2NobrukxNTfHOO+/g+z6O4/CNb3wDPwgQAoqlEjdv3mywRCWrcM7OzjI9Pc365gZffPEFxe1tjh07hhShAfc8j2qtitaawcHBiHza87yo3rlWq1Eql5iYmCCdTh+qUWmFEl5WtRwcfLIDMfbzWYHWEq0lCAuNxvcDLEuhtNVQSxVRAt7YKylDarSg0flHC+TQyzU3sVR1u2EZvtlMhdnWoMbrvETXYtoniUE+SeP2rNxDNyrF/RiA0dFRTp06FbWNlkolbNtmYmIikkkxGlUIgdVg9U+i3mudF+OjY3zvu7/J4uIiDx48oFAoMH3kCL7vU6lUKFXKDA4OEmhFsVRqKttzPY9avU42l9ulgtkPP0JSOdhepbafptFtd+3iEHkQ2p2/Hzx6JwzeYcZNkrlvymnEuqGEECgUnuuhbYkSXkhhqjVKBeaCGvWoCqEkvvLCM2gBWjTeT6aY7KukapfRiy5Y9GBQRdsC25c7+IuFb62vr3Pz5k0cx+Ho0aMcmz3K4uIi8/PznDlzhqGhIebn51lZWYGGR2mY2XuFF44ePcrRo0dZWlriwYMHbG9vMzIygpNOMTQ0FCWn4vcVBEHkKWcymZfz7qnjnIdzpFLhHDDijltbW1SrjfmlFUILhG+hKVEOMsighsDBUx6gsSxJoKwGIXqABmwBWBZIGyH72wD7Dv+7eWDdjOpXBdPZy6R+XiEO13X57LPPUErx/vvvc/zoMRYWFvjoo4/IZrMMDA6ysLDAJ59+GoZXjXvupKG+uLgY4bJjY2NR0f7MzAwzMzOsra1x584d6p5LoVDg5s2b+L7P+Pg4hUIhImgxcEAmk0mEnXrxkl40afQXbf05jsPY2FjEuVoul6nUSmitsKUgl9GcPlHn2FTAr25plpYEAp/JMc3xWcHYcMDtBzA3D44jmRoTHJ/xyKQ19+ct1rb6K3Wze5lU0cmkQAvDrSpDyUGjjioI9VwQyEYHgxAyrBAItV4RjY4WJZpddq11lEg47Azts7YwnsWFupdriuv4RCG4EJTKZYSAbC4Xkk3H2MYSmYMa6rxXr12jVqty4sRJRkZHQm4JdsKv8fFxxsbG2Nza5PHjxywtLuF5LqOjowwODrK1tUWpVMKtu2ilyKQzIfm1QXETlAl6gU1eHs/ePK1UKjx48CCqi5dShgWeSiKlYmRM8e5bAa+dgaU1xcI8OFbAsRnFN78OR49ApS55OC/J2AFnjvu89zbkUgF1N8XqhiQI4s1PoiMhi92p/a95dhHKpliSiSELLQTbRZ+a6wMWKUcwPJBCCihVAvwg5Ce0LcnYsMQPAorbFkoobLWTfTt9+jSWZZFKpaLBiXu0h6Gl81WcfAfZ69/uubTiWwio1qpIIcm0zb7vfGdzc5ONzQ38IGB1bZWNjQ2mZ2a4fecOUkqGhoaYOTLddB1jo2OMDI8wO7PBwuIi6xvrBEHAwMAA42PjDOTz+J5PJp0mk06H0ZYGKSSWtKIymX49uu51kk/PW3yanvXT2Hji1SQRKROACO1QuST5+AuL69c1Dx8rtNAoZbO44vOTTxSZlGRuIdSLcj3Jg8cW5apC47CwDAjVMKq9JdPtXgfKWOnxEcW/8VslUo7m8y8FX14XlF3B9KTkt35tm5St+NHHDnMLDq5QTA4K/t3f32B9C37wkwwr2w6OUFG9oe/7ETdmkgLmy+P5nOjmN+uNRJWTcrp+fnl5mQcPH0bifADb29usrKzgOA4zMzPMTs/sIsWQUjI5OcnY+DgbmxvMz8+zublJrVqlWq1SLBaZnJzk61//OhMTEwC89tprnDpzGoA7d+6wsrLywnXXfaU9a20hpUALi2JRsrWtQSmCALAESguW12BpBVA2ygqQKDzP5vGKYH45zBsJAdlsfz/dU6JKKUXgB+hAEwhNzdM4DjgpjbAtcAWBL3B9hWODFD6BL9AyfL0egO1AOuOi1jW+tKPzzs/PN+2scYXVl8fzf9QaHkTKSXX9bL1eZ31jnXq9HsljPHr0CIDBwcFI9jop46u1RopQWiWfz3Pnzh2uXrlCqVhicnKSY8eOMTs7i+/7lEolxsfHGUUzMDBAsVgMk2gveJj8LBjaJ3UtmoCQECVNoAMsrfGkwiYgkFao9qwlWKHWntQ0NH89BBItJVKbWlAZ4fs9l1S1Ts7dHodCNeq2CgXBh3+TwZIBlaqi0kiyraxr/vLHKRwbtktGkkBRKFn86V/mEFgUikGjTIFdmOphq6ceRGvifr2FZ5nzoJ9ysG7lRPEkpSmbshr9+52e8djYGMePH6der/P48WMqlQoDuXyY5U+lSDmpjqF6oBSLi4vcunWL7e1tjkxPk81kyWazBEHAvfv3GB0dY3x8nJu3blIqlSJJn73iyM+q8XpWPdZ2MvQ9WMmwZbQP6ErKUAVaqvDrUgmEZWFhFAFCuSakQER2qPE7WqOFkVQhklM5EE81GoiG0VaBZLOgAeNRKixLoLSkUNxZTNIKkxWBFqyu29HPWRYvj+cEEuh1A2olGY9nSg1tn2XJJlWHnQW1E6UcOXKEkdFRNJpisUi1WuXEiRNcuHAB27aj7H0rGbVSiqWlJW7cvEmxVGRwcJBsNsvGxgaWZTE1NYWUkqXlZdKZDNOpsGNrZWWFIAjwPG/fhudldHX4G4vo67MyklMx12FJa0f+fOeCwzkUJeUFWggazH+Nqqf+nnHPNSayJWtrWVZUFxbP/MapAuP/Nx5L/PWvgjzK8y6n3cszaseupLXGdd2wT19aEZl1/Lzxdec4DrbjoNERYYrv++Tz+YipysiwGIM6NzfH3bt3WVlZYWpqioGBAba2ttjc3IzEBGu1Wkg5GVPi9H2/KbmxX37Vl5UByePzrIxLLx2DO40DzRa833vYU52qaTVNpVLNF9Pi2scXZlwF9VnLlr489r94pqamyOVyjI6OIoRgeHiYM2fORPpR6UyGs2fP4nkeruuytrZmHIWmBWie87e+9S3eeecdMql0hGfFPdTV1VV++ctfsrK2yrFjx3j9a29w5coVtre3IyFBYzxdt46UcheXb7Nxf6l/9iI7GLsqUzpFXQ24QYjdcFYvEIYd/5H2PxbS9oXZMN3wVGXbYupwgiqIlasEgYfWYFmhJEs/N9pqpPe6Ux02V+XTov47DK+gU31m632cOnGSd997j0q5HJGrALx64RUAlpaWADh98hRCCArFbcrlclO1xw7FW5hwmhgbb4qSzP3NLy7w8ccfs729zbmzZ3n33XfJ5/NcvX6N9fX1XffheV7UveU4TpNhbdVCe5Y3+uetSaSX1tR+7kM3yEV7HxNNveZRKrsNIpUwNxSW+im0aunsVDvfCyedQGDhOKGUipRWA04QSQqqTX/b/SxarVToWejwh0LdlvjF6NhCsCJFQiNv4HluRLLyVcUpX8SjUCiA1oyPj+M4Do7jNDxEN5LdsSwrpO7TGsuxo3C+3VxrFYF8+PAh169fZ2FpkfPnzzM1NcXa2hrnz4Vqqqurq4kbi9aaarWGUopMNtuEyz5PnumL6EXvZb3onq2HhdISFQh0g79ZN76tg5CctQm+af0dJZBSEWpF73yil+fQe9+eACXC3aLmetQ9F7Fd7DpA5iJCxn9JUA9Q2npptF6AxWCebaG4zZ/+iz/Dsizefvttvvn+N7hx4wa/+MUvsG2bt99+m9dff51f/vKX3Lp9O6RTCwJSqdQuRvXWBNTm5iY/+9nPWFxc5PTp03z729/miy++YGNjAyFElNk3PKpJh+vW8TyPgfxAZFSTBNtetqEe/Nx4eteiow09UB4ohWU5gEYpCUJ1jCgNC59ARd13vR52fwMWGsdQNMtv8kx3T8zmxJWRpQ6Z218cPtWXFG87z7xWq0VUakEQRJn/7e1tLMtifHwc98qVSAEgNGrJ47m4uMgnn3zC0tISr7/+Ot/73vdYWlriL/7qL3dUK22bTCbD9vY229vbba+vVqtRq9UYGxtFGtrKJtG3l8/wRVtHQgak05JMxqLuetiWzeDgQFhmJeKqJMmRgOcFVMo1VAzGPNDsf1hYLWOGksTF0HzsqBQKIdDKSLxKBNZT7fI5SI+kn/s4zGTIk5Dj6HQP8ZA9Kq0SEGjFxtYmwpJMTU2RzmRwPXdX9t/8f3FpiavXrjI3N8eJ4yd4592vs7GxQSqVYmxsrKl8a2pqilQqxfrGOr7vY9t2Yv3tdrHIdqnI0dlZfM8PadOV5s03vsYrr7zCD3741xQKha+MXtmTmisHOX+75Sha31dKolRAENTRykdLO4IlW+dysoy3RuOjAaUCtA52RVXtar37rFMNC2BDvHSH19BY2nb64vHsWeiSfzXlVJ6V7Od+Fla/96C1Zn19nY2NDQYGBjh54gS3796JZdzDz21tbfHZZ59x7/59po5M8f7773P37l1u3b5FEAS8/+57TExMcOrUKe7fvw/A+++/j+d5UT1qu2srl8tsbW1x4vgJMulM1CJtsFnT7fUss/fvx0A975tFL9efVM5nopH4vw3hiikDNZGVGbc4KVD4nbBBIK4Q0O0aeldTRSAa4lu2FFgyLPwXKITQSBHiD1JoLAm2JbGkxLYsLCmxpMK2NLalsV7KqTyVhbZXPtv9Ghff97l06RLZbJZ33nmHU6dOkcmExm1jc4Mf/vhH/Ml//99Rc+u8+967+L7PT37yEx4/fhwZ3xs3buD7Pr/727/DqRMn+fa3fo3jR49Rq9W4fu1604JonehBEPDgwYMIh1VK8a1vfYvJyUkWFhbY3NokCIJ9jdGzZoReNGXWfu8jaWMJgiCaT6aipNWoxuvsTUQk6E8ssyv1X5O3GfqmDcG/kPxVNwxuq3b2Dus/EcYaliTIlqqBr66Re5HrIuPKukopFhcWuXfvHqfPnOaDDz7g0qVLXL9+nVu3bjE9Pc0bb7zB1tYWn376adQoEp/Ely9fZmJigvPnz/P7v//7kQbV3/zN31CtVlHoRKNqzrG6usqDB/cZHhoik8lw5MgRqrUaX3zxBZ7rRs0Gz6On+qJ5pvsdg6SIQ2tNrV5rwJiNeakVKthR5I3Dg6EBplEaKjr2/bcmOxMlqluFsKIflQ2AF4kmQDXkCkwLQhI5dbt/t5NRiRdit8PunlTo+jzhnk970rbK9GqlsRocqApNtVblhz/+EfOLC4yPj1Mul5mcnOT48eOUSiWuXLkSkagk/Y5C84Mf/jWrq6scPXqUer3O1atXWVxeQkgRMvh2mBtBEPDLX/6K4aFhzp8/z/z8PJ9c+jRsQohd//NoRLvN7ad5X712ne1nXadSKSYmJhrlc9UwMVmtg2p4pZbAVhJpVah7KSzlEAgfrepICRIb5UuUIiy1QmHZAkvaBIGRUrF2cZa0gzntPQ1KTHq6XXiZFEa1ez8+ofshDX7ewpbn6dr7uW4TJpkQ2pCOp1KpEOsMwXcA7ty+w+2btxhoKKDevXOHWr2OJSXZbDa5ELHxmgBu3brFzZs3o+vKZUPya6122DaiDRtQptdbCHRjnhk4wtD9JXm4z1Mo/CJULuznHqamphgcHIy65paWlqh5aygRwo7D+YCvXXR45VSWDz+S3L/v4SCYnXV47ZzDxESaTy5XuXlLk0oJTh+3ePWcQyYr+fyqx9yCaoupJrVzJwr/dbrpuJvbaeHFjWY74TQhBEePHmV5eblRsygoFosvVGj8VSjViRtUU0p19uxZTp06FT1r3/ej8ZBSRphWHOsyi8KMmZFEMYfhmjCQgu/70RyLd0rFsbP4eyGxi7XDPwCIl1STz/2xtrZGtVqlUqkwPT3dwEk9VKCRImBkxOOVkx4XL8Cnl9P4Cmy7zuS45tyZOrOTJe7OSVxhkXI0M0d8LpyBlAMPFtI8WExFc7EXj7ovTxU0tq2ZHAMhFNtFKFZCZpd0CkaHNVJqiiWouyHe6lgwNaFwvYDtoo0XgKVDz8CyLF577bXIoI6MjPDJJ588d57Di+ip7kUZVGvN8vIyX1z+gtmZWWZnZ4GQTOfBwwegw2c+OTnJ5OQkWms2NjZYWlpCKUUqleLo0aMMDAwAsLCwwMbmBipQpNJpXrlwIbquxaVFVldXEQgymQznz5+PjPfq6iqra2tIIZicnOTIkSMAVKtVHjx4QLFUpFKp7DvsfHnsf230nTRNeK3aICMHuHfvXriZKoElQAUplpdt/sWHAX/+g4CNTQn4uMrh2h14OK+QlqCwFRrDekVz6XKKa3cFaEmxbCGE2fhV26aGJjmVJEA3CS9TQQBaMTEu+Hv/ZomhIfj5JfjJJzbFqubYjOCP/1YVJwN/8a8FN+8I6kIwNmzxv/x7JZY34M/+wmZuKYVuJKqCIODu3bu4rsuxY8dYW1t77mUmWo3oi7hg200oU7Q/Pz/P+++/z9GjR0Ocq17jpz/7GUEQkMlk+Prb7zA1NQXA/MI8H/3iF3iex/DwMN8fGmJwcBAhBHfv3uXq9Wv4vs/w8DDnL5zHaiyrBw8fcunSJYQQTExMcPbsWaSUeJ7H3bt3+dXnn2FbFu+8/Q6Tk5NIKalUKly9epWlleWeNu7nJcx+lj3tbpI0/RhTofvAmAFhgZaCmiuo1i2UCjlJTORSqUG52sz/oJEUK4JS1eSKNNlMWLfabU331Psf90A83yfQUKtJbt2XZLOKlTWLwNegoVzR3LoPTgo2i5K6F6Asm1pVceVWePH1mh122+ggwlHv378fZocXF6MQ8mW4//zdc1JyM77YTXZ996RMxtgNDCAbJBYygRkoghJaWk5NyB/nd21Nur58ll+NedlaI59E4tTOmdSxf++J+b/bzqeUBm2xUVT8qx9l0drDD8LiWCEEyyuaP//XGZAapUArCdJjrZjmn/7LgdAVBzQKpUUTbmaSBwclp/IiAvnPwwRWSjE2NsbY2BgTExPRs0ylUpw5cwbf90mn0hE9oNaakZGR6L18Pk8mk4mM3uTkJGfrdYIgIJ/PRxl+KWWTd2qSFFprbNtmYnKSc+fOReG/8UzS6TQnTpxgcGiQ+YWFl5poXzGj2jdEp4kUgHs1qLuMajz51MwxaepNFdL0zAqblDCqmSIsa7HCWlaNCNWrtR1SZkmBClTYMCAaitUti7GV4OJl8uD5xI2NkRRChDgqYQb+5MmTOxu0VmFXlBAoFXDy5MnouW9tbYV9/Dpknzpx4kSjm69BKdjokRZCcPbs2WgOhb8VvuekHM6cOdPwTiwePXrU4MjUjE9MMDI6wvrGBrVa7eU8e+4mW78GNZRV0aHuX8+OWGTXIhxX0I0fq+c2VdHQaZEyTE7RwB0cx8a2d8TcjCU3BrG1S6FWq6Ebvf8yRmbQjq7tSYXgh2XAX6TF2s3zj/fjLywsRJ1L+xmDveiWdUp8tBZol0qlrnPleUli9XLPz8Lc6eY0tau/bapdpk9ZlSY70/RORwggtFuy8SkZcan27al2uiEhRLRLhEJYFqlUqiMxcyt+8TLT+vyGUb0uIMMI1Y1Sr13TR68bU5K0SqcFEj9fvFXxIA3Gs7LpPS+w12ETu/hBgOsFIXSZxDSldUOItMEVTSj4hzBzRCOtZnLqTr/XU6JqlzxKRNe6U2vYbZeJH0EQJEpavMjh8FfJ8CqlmJ6eplAoMDQ0xMbGBpOTk6RSKWzbplwuR40B9XqdarXalAAwtYDlchkhBKOjoziOw/b2NrZtMzIyEvGwuq6L4zgUi0WklJTLZfL5PBCW2IyOjkb1qLVaDSkl+Xwe3/ej3zDSK8+iUTgIY/Usqqk+wUHA8wLqdR9tOqV0vIBfd9wgA0BKsIXuis22Oo92byGebPTBCgKtEUrheQohvF3utPFkTc+s1hp0KB/sBT4aHfFpPgvG7jAMYD+eXT/nedZLZ7TWnD59OjJUg4ODnDt3jsWFBY5MHWFtfY3xsXFc18V2bOr1OkJKarVaZDzr9XrUKHDq1Knwe6urlCtlpqamuHrtGhcvXuThw4dcuHCBtdU1LMvi0cOHnDp9mlwux9bWJuPjExS2C0gpSaVSbG5uMjo6yvLyMtlsluXlZYrFYtfo6XnwAvsJp582LJDUOdnLtWh6hlMjmwUStEBrAVqhI0kVRaz9btdGFMKpDc82Mm060RC31ajqbSDCEgMF1F0Pz60jZbXLMBiIVxLoMOuvlUbr4KlhnS+PwzlMt0k2m6VWqzE+Ps7w8DDpVJqhwaEowhkYGIg+W6vWcByLsbExgiCIIp9qtUq5XCaTyUBDuvrRo0dkM9nIM61UKiilyGWzpFIpjh07hhSCdCrFkakjoWdsWbieF1YONCIro7A6OjrK0tJS5M0+j+Hzfjbbdob1mYbouueKYs9O4aQkqbSN72uEkKTTaaQMNaqElh3HMggUnueH7c0NoupeD7ufBxAnOglU0HFCmt0g7MG20A2wN3Sr5Usr9ALCHVJKLl++jOu6DAwM7LSmIlBa4dbrPJ5/jLQsAj+gXq8jLYnjONFcMjCB67pcuXIlkrZ2PZfFpUWq1SqXLl2iVCrx8ccfR7iYMZi2ZSOtBpzg+wSxfn/HcajX6xGZted5z4cxOUR44EWVXtFaYQmwLVCBj2VZDOTTTaTo7S23xnM9yjoghGNN7z/7b1PdnahqGFcpG6wtyYzwxrMNs2Zhu5c2hddCfGVJqr8KC3VjYwOtdeRRxtmrhBAUG1n3dospvnEb3akmtiqlInlro5Laj2PwohvPfu/tRR0PgQXIkGRaaaQMUMpHNjZpU/OsCcN9Q8JPAyQQQof2rgEXmNLSvj3V1knXSmklBNhCIm2NVlb0YzsgboNvVcdlC5op/0Lmf9E11D/I0P9JwggHmRF+luCPTvcVJ0fJZrNIKSmVSh0z8EKEPfsA9Xo9ei2Xy1Gv1yMv0nx+aGiISqVCPp9na2uLfD4fVZ+Yzxn11nqjYSDOllWtViNvOJVKRZ97HpM5/RSzd/p8LzLS+722bhnzbr/ZCQZMlkHZqa03BNRaaxSCQCt0IBBaEtiNLH9gPq8QBEhhoXRYZ6+x0VqhdHKLaqvHv4ulKunvNnfSAHeTjKCOJFdEC2F1nAj2ZVnVi+UBxctJXnvtNYaGhvjBD37Q0Tu0bZtXXnkFy7L47LPPonO8+eabbG1tcefOnRAekJLJyUm+853v8MMf/pA/+qM/4p/8k3/Ct771LcbGxqKuKN/3efToEVNTUywvL3Pt2jVs2+bixYu8+uqrfPrpp9y5cweAd999l0KhwO3bt5sggK+qt3pYm++Tvs/d6rgmKaUQCDzXxbZsUH6YvFKaINCgQFgyqsXXGlyvjtJ+RLzfz5ja3QalW4iW9Jl2fz+ph/40PbxuZM4vKqYaVzh1HCexyNsko8xrlmVh23aTqun29jazs7M8fvwYz/NQSvHqq6/y4MGDyLsVQpBOp7l37x6ff/559NupVIrh4WEmJyej/zuOg5SSoaGhyEMdHh7m4cOHEeb7Ioz/V2Ge9TMPd2qRQUiF8gWe9nBFPXrP932ElliWjRa6oUiiUSoIQ38ZwgiCeCTep1FtJ0MQD92TeFVN4imJ6b8dSfXL48XyjAwvqsE9W9uPR0ZG+PVf/3VSqRQbGxtcuXIFCPv7P/jgA8bHx7l//z7r6+ucO3cukp5OpVKcPHmS/+l/+p92qUL4vh/VoJq5uLKywoULF7Btm6GhIZRSPHjwgHw+z+DgIJlMhiAIKJVKzz3b/0sjS8Qfcf78eYaGhkin01y+fJmFhaVGq6kmlXLIZwMs26JU1LieBEK60kwGLMunUpW4rotlSdIZRToNQjhUKxYCGcGfPRlVrXUqyYjuwsMahlqgQTWSUKY0SstIUsXWGi0lWlgI0SALtgBtE/iQSgWgMxEW5/t+U0LjICZAJ2q6J+nJ9iK7+yKRccc31/jftm3z6quvsry8zGeffcbFV17lra+9SbFYJJPO8MWDL7h8+TIffPABQgjq9Tqjo6NsbGwwMjJCrVZja2uLoaGhpjH72te+xv+/vf8MkiS58jzBn6qaOQlOMkhyUiyLoSiqCrQaTYHGYKbJTk/vzPT2rozIyIrMjazIyHy5L/dh58PtncjJzcncrGzvzs7N9pDe5o0GGo1uAI1GFYDiJCuzKjmJDJbBiXMzU9X7YG4W5h7uHu5BMiMrwyCJyoxwN6Km+vS9/3vv/z99+nRsYH/605+ytraG1prBwUH6+/uRUjI1NcXZs2fp6uqiv7+fQqFw3zGi7QSrb4Vd7nWiareo/1o9W3d3N4uLi9y8eZNHHnkEx3EQMgBrySg4erzM11+Fz37G59/8borX35OkleaVF3y+8gqcPAy//y34qx91090T8OXPenzpRUilPf70By5vf+iiq+RR9RjqtupUYyo2GZZF+aKCqwRGh8QpVljAR6FAQiAsEosRBmkVSjj4FhwsKm0xODjSj2/qpZde4r333mNsbIze3l6uX7/+qUrwPKhHciH7vs+7777L448/zpe/9CX6evvizP3MzAwzMzNorVlYWCCbzTIxMcHx48eZnJzk8ccf5+LFi/HkNcbEJVEzMzNcvXo1DuWiDq21tTXOnDmD1hrf91lcXCQIAjKZDAMDAywsLHRUOfBpjzL262bQzhHJp7iuSxAEXLp0iVKpRBAEaGsJAsXyssuFKz6VEiwseMggjdWaqdvwbhZuT8LtO4pAVMiXLVcnwHEhnYL5+ZDBN8n83zGm2mJ0UMaSTXVz5ojETVVYXq5wZ0kSGMhmLSeOClIph9l5h9UcIAIyCp5+KMBaw+07KdaLAitCDM11XQYHBzlz5gy+75PNZmMuzb2YOAfG9u7CAdGRSqX4whe+QDqd5vr16xwaChsDwneyMVGjd7+wsMATTzzB2NgYx44d4/3336/BP6Oe/6WlJSYmJmrqnqPOrCeffJL5+Xmmp6cpFovk83mGh4fp7u7m+vXrLWusD477a+O21sYVJBGZD1aihItGsLwi+e7rWX5gDL5NYVQFazNcn5Fcvu2jhAbrIB0f33O4dK2bT677SCuxDmSz1FQSbLU5yHZ3mUBrjLCMHSrz3/39Zf4v/22BL74c0JP1sAZOHRf8d/9Vhf/+HxZ57Ng6ypTwtGVw2PDP/0mJv/+NCiO9JXRQwPdDwmLf95mcnGRgYCDucNmNxoBPi377p8W49vT0cOTIEX784x9ze2IizupLKenp6SGbzaKUor+/H2MMuVyOXC7HSy+9RKlUikulIsgoGXbV/9Fax73/2WyWxcVFrLUsLS1x9OhRjDEUi8UHeoO92xn6vVqHSVsRzYmNvE/1mkojVApHSIzSOFLjWoXr+kgR4DoglEE6GmFCx1GKAmlhUEqiLEhjmz5Do585QgivHlupZ/uJRNYCCwuLiv/wJw6ugLlFQT4nAcOtac3//ocZUhJuz3jkA40r0iwvefzrf5elHGimFyTWT2NkKT5vFNrVv4B2X3z9vbaD4eyXBXU/LeytwrhoUltrOX70GP/4H/6jGCu/cesmd+7c4atf/Sqrq6thqKY12hr6Bwb4/Oc/T3d3N57ncfPmTcrlMleuXOFLX/oSFy5cqPFS/YqHsGC14ZnPfIbHH388TpJdunSJc+fOkc/nWVhYYH19PRaSXFpawvd9yuUyx44di6/zaTCKu1W3erfneTv33S4vwybyJ2sR0iBxMRikBGtTWBkW91vjbCSerFttBFBoYZE4IU0pGoRESIFStaWijXin25ZT2fi7IWUtuXKKS7cUGNCmjMVDCod80eXqDXCkxCeNg8QYj4InOH9ZgMgiZIB0A0Q1UdUOZeDBcX9gb1Gi6sMPP+TSJxc3JhrgBz6e5zE2Nka5XGZtbY10Oo0xhnPnzuG6Lr29vaytrVEsFhFCMDExwcLCQlyHGnVY/d7v/R6+7/Pa66/jOg7amth4+36I1a+srPDd7343xsGEEKytrfG9730vDuEOwv9Pr+PQqAqpHYes3ch3q2dqyvy/6ctC4CswqoIjLMpRKJECnUIIE7Z/4SKERAkPazSWLCBAVUkJRAprDFLpuwJiH0ywu/dcUVju+/6mnvro/c7OzsbvOekl+r4fq5smQ7pCobDpOuv5HAAVr0KxVNxUlxhpYSW7tKIj+tnB8eA4Ap3KqTQ8R0xoze4lqoQQKKlwjAgxBuHgKpe0q6oVACBkhDsorHVCogsb9eAaysUCJqb9q33YA8/0/j4iTzGJdybL5JKGt93a0PoNvh7eiRoJ6qV49ivUc3Dsxu7diUFNfiEx3+KQ38bNobXGMhE9x94unXuq7U5GA8iqSLBwLDKVahomGmMSjyIJqqMiqiUx7eImnYSl+x1G2Cn2tV8NRDPm/UZdeJ1K3bR6142u8WmMCuplSDpdL/djFLhpTpGgNW3DbgjC2mXP96vS1FX2f6oyT7YWB93gKg+NrbYagcBxRNhZVS3+bwcmcDp5yI2bcJDCSZCm1O8QoVBb/eTWOiyZqUUVDrLzB8fB8SDCRnu5EVgcgkBQKWuMFVWXsEpJWpVKoZVJ1iKUU5ESUG1HV22H/7WGFYLA4HkB1cKBtiaC1pYg0FVJa7mnk+3AUB8cB8eDvhGF8tLSUVgT1o6Gnm9oNEULLMFC/Ll2NAfqK6faVFNNGEdr8CsBlYohX5dI2PRUCfc1lFUB0FW5ArGNgTrAxw6OB/MQ22BLul9D/l3xZIXBdcNmJD8IUEKSzWQR0lYF/kRLo6p1EDqOhCxXm0QDW9imLVmq6h/CVgFcawxG2/Ye3lYZYCJoQKqOB7sTDZ5N97yPjfF2nuvguP8M4t3kB75f5087CrttnwuQQiIxCBOgXJdMJlWFH20NW1ojWxH4PkYX0cZitO3o/bWtphqy9kukEAglQCpM3UPUaFjH+lQJQ2otQkpc5+4pqu5377bd5MqBl35/e2D72UjvV890NzhAorrk6O/ReZMquo0IZ4ypGlJrt/RSOzKqyQcX1fybFCCVBGMQtRE+yXKEetw02hlCDk11X03iu21gDwzowbGT8Pd+ov5ru1Z9FwxspAahlKrpgkqW5SWrl0LqQLHJddxqY2goUV1fvmGtDnWzMVXc1lS1XZLfqfds662/RQiQUtCp2Gx9TWu7Yf/9anDvhnFtVtd5YNTvf3hgPxrR7eZQorGpVCqs53JNeaI3eZvWhFR9IpSmtsZS8spIKXCtg5UCYzTWmrBUSgqkdZEiwFiLDixYE9erSqnalvxuy1ONNoqQVjWq19owjs1qBVsRVt8rwbED6esDeOHTPvad1DvfjTW4bVw0sVYXFhbI5/MNnSulFNlslnQ6jeM4rK2tUSoVQs/SSDA6lEapgJYSbX2MsPh+KJ3iOgIpHBA+whIaVFktCxUSYUMl6G21qbbrLW41eI3Y/hsZ1welkHm3JuOB4Ts49sKg7zVJ9XbFFZOearlcruGBSJ63p6eH48ePk06nY/7eUqkE1pJyDIMDPsePC4ay8OHFNMvrBmU1x49bxscsXY7k8nWHOysBKVdx6oRmZNjga8nElEupTEe46raMaiu97kZ0bK1+38mAH2TFD46DkH/njsf9JCEzODhIOp2uMbSlUom1tbV4DAuFArOzs5w+fRqtNZ7nYQmTTEpI+vssn/uM5clHDCt5xfzHBonkyLjHF16Ew8MG3wZMv51BZnxOHw145VlwHfjLHxs+vJjpjKQ6klOpt/61Ba0y7OlHYgFpLVYGCCxag7GAkDjCknYtUjp4QfgzIQwSTdp1Ecrg+wpbbVqNBu3EiRNMTU2xuLjYErdoJVXbarIcdKRsHocDr/f+Dfk7bWfeL+qq7TxzPUT43HPP4SiH6akpvMCPP7O+vh7/PQgClpeXY5Ke0EsFKyyVAOYWuvjRTywfXixze8ZDBGk8pbl4TbK2DgO9imuTYe6oXHE4d0mytKxRKcvUbBphIQj8piTV9U6m0+phNyWvLAwPw1e/7DF2SPPRRcVP34NcQXBi3OGXvhwwOFjhb37q88k1B08rRnsd/vF/tYZvivzV3wgmZ7uR2o1vZnR0lHQ6zaOPPkpvby83b97cNLi5XA7HceLs3U4hgwfBoBwobD64RvjT8q6ttVy4cIGHzzzE4cOHWVpZZmZmhpWVlU12wBhDPp/fNA4GKJUFV29rmMziBaFDqGyK9XVFPmdAaAKjEULh+5rFFcHqWgqkQhtLOm0A21Rpuv7vTrsPpwMNGFJOhcNHAoZ6CDNlgURYRVfWMjZaoScL2jMEnsZKj5RrOXbUsrAIlbLCCwJSTiq+iVKphO/7rK+vx/Rv9ZNibm7uwLs6OA6ONo3mp2VDFUKwsLDAytIyAEOHhnn++edZXl7mzTffbAmrbEhUh0xmgZEYDAiBkmmkNhgLgaBaHSARwlaT8ArfCLCGUO1UVhUFNo9xI5u0ZfF/zPyvw1KDxaU0/8d/yhJQplC0VCoaITQT0/A7/8kBIcnlFVpb0JL5JcX//f/tYoSmUHAReARsSBpPTU3FO000CM12hO0a1QNjfHDcbUPXadfTbnZJ3UsjuptRYWQPTp48yZmHzmCsZWJigpmZmY42FKUUGAdtKoBFWE3ghHX2wgiMCUmejPUQUmCtQApLWOskUUiUUm1r520iqW4mUx1RZwUBrBY1WstqV0IoT+35sJZPIaXAWFvlV7Voa1gtSIRww+SUdVGYmiLbZgOSzWYZGBiIqQIj/GRhYQHf92t0ij6NRnQnIV+rUOUAIrm776pRUurT2mq61Ths9dn6n/38z/88AwMDXLp0iYWFhRgC3OrcyWS4MSasOSU0igaDRIW19sKCtAhrwapqyajd4AYQFoTtiOy6bZLq+KTV87qui+u6NTtK8iGSySMpZVwOIWXY6rrVYYxhfHycM2fOsLKyEp/zyJEjvPPOOywsLHzqFuLd1F/vdJEfHHsTqh8crQ3jxMQE6+vr9PT00N3dDcD8/Dyrq6tbni8Sl7TWYiWJLnrZeh2EFFcIWSXhR2wSm2y1XtouqdpQKQwf1nEcXNdtqGoZ4Rj1nmQzz7KVsZmZmeHSpUsYY9Bao5RCa91Rz/D93rZ6AGscHA/ihqO1pq+vj/X1dW7cuEE+n69pM93CYmFMSD5trYgZ/sN1E60dUW1iqqX4MzZ0HqUFIWWN7es4/N/KU00uYillzcMls3GNsNEIQ41YYtoZbK01XV1ddHd3s7a2Rk9PDz09PR0zoO9XI3s3vZj9ZIDv9zbi7Tzng7JB7mStNYrcPvnkEx577DF+5md+hlKpxPT0NHfu3InrVFuNb6VSIZcLNc0sde33Wz6HBKFxXBdLuiOZbadR2N24xtFgrCHAonARQtWItLXCNiPXOQiCGB5opDtUP6Czs7MMDw/zi7/4i3ieR1dXF5988snGQDX5bn3d6nawyd1KirX7Inba2bJT2eL9hL21ejf7aUPsBD+8l9DPfnmvWz1zo3+vr6/z3nvv0dXVxfHjx3nmmWcYGxvj9ddfb4NTVYFwMBqEjMqiCD3UGo69TV+k2pCPQKCEqmrv1a7VZmvWaXfihC5zSExQLpfRvkel4rY90OWyF1YRBBVc17T1vSAIeP/99zl//jypVArP82IZ4v06CQ8wtAfD2z6AXnZ/DBs5ZS+//DKnTp1icXGRmzdv8q1vfQvP89pYiKCUIJVy0drUJq0IG5qa3ctGOZbY5DjuWvhff7fGQCXwKFfKybtqZmVijCPCWh22llOJElVnz54lk8nUuPQffPABa2trW+5425n499NieRCZpR6UKoUHoXmjHW++WCwyPz8fd1AlE+KtrZQl5bpk0g6VSgXHcejp6W6oqxfeSxKWDKXWy+VKyKtqTAtn09avQ9dp98WKBPF0w0ERoua3tsamCkDGNWPtTBApJfPz8ywvL5NKpeJdxvf9GEY4OD79hq4+zL6bRnSrVt/9Mr6flvKrRs7R+fPncRyHQ4cO8eijj/LCCy9w9epVzp07t+VzGxOgdYAxfoJVz1S9z3rHziaK+0Mv1VpThT11lSaweedpQ+q/evGqRi9WCosrBDItsNbpuCYt2mVcV7U1IRzH4fTp0zz88MNkMhlKpRKXL19mcnIyhgHamYz3C4fqTnq672XrbqffbfUce1nq1alxavT73TZgzc63l4z4+21DbfT+o58NDAxw+PBhjh49Sjqd5tatW3HDUCvjliSgjrL/WiedRFsTFSedudrnCI1x0qhuIcXudxb+2/YHqRGjVWRUkzhFs8Gx1jI+Ps7g4CDvvvsuq6ur9PX18eSTT7K6usry8vI942S9V+HQXnsF98oju1vXupeb64MCU+z2uc+cOUNXVxc3btzg9u3b+L7fNNpNGrlG8zmZIE/+LGkko3OErFQ69mjr21RbHU4nA2Sr/2u0qzSz3o3qWNs1Lq7rks/nWVhYwBjDwsIC6+vrD4Sy5G4b3Z14sp16dJ9WKOJehsIPwtEoWl5eXmZ4eJjx8XHu3LmTSDTZTQ6c67pIKWOI0Cb0pYwxeJ4XNwREHmrS0EZOn9a62rm14Ul2XFLVLNyvx1SlUFBVzA7rvgzCWqyQ2BhTtdWOBVtt+ZI1Dm5V6aqtmyuXy/T393PkyBGKxSKO45BOp2sGdjs8rA9i5na/GsZOcctO7vt+qM293+fidoinO/ns6dOn+fGPf8zZs2c5evQoV69e3VSM39XVheM49PX10d3dzczMDOtr61VbZEm7kM4AVlOpGEzEtap8XEeASFGpWKwQSKFRQuM6EuW4BH61vErI7WX/m/X9AygpQ2lqUe2NNRKDQFiLqTK9CEvM9GKExcFBCsLPEfXQyk1tYs3IqhcXF8lkMhw5ciRuHFhYWKBQKDywu/lWO/xuYXhbSW7slChjq9/vB+7c3ZhfW93vp03ssVOYqdnvojngOA5jY2NkMhmy2WysALC0tBR/vru7m5GRkbh1PpvNkl8PaQAdCcNDmice9untUrz1fhezKxpHCR46oTl9zOCmDB9cSDE5Z8lmNQ8fDzh62FAOLJeupljLh4a1/hU1SqBuyv43e7GR+FVkMCEsM7BWoIVEIEOPFYFBodDIKlBgRBD6p1aGhlVakBttpkNDQwRBQHd3N/l8nlwuF7vavu9z69YtZmZmSKfTeJ5HuVxuCC886NjWvfRQdjqmnYS+e2mE9ksIfj85C3stTnnnzh3Gxsbi64yPj7O0tMTS0lL8uWKxSKFQiD3YYrFIYA0WBUiUglMn4YUnNJOzFWaWLEYoMhnDYw/DqaMBy6uGyVmJRdLba3j2cchkKpTylg+vZAiCoClJdUtPdauBskLiKMHhUUl31rK2rllYsgS+JZOWjI0Jenssi4uC1TWJxuBKwYkTkkxKc2dOsJ4L+22NMTiOw8mTJ1lYWGBkZIT19fUazDS6l0qlQrlcbgpOHxjS9g3EdvWC7qbBvZeikLttXHYaQTzox8cff7ypTb7eQ8zlcnGXZZzTMQKBRlvF0lKa19/R3LhumJgJWfQILJdvOBQrgtEBzdUJB4uhVBZ8fCXNWt6SzRimZlwExHIqHYf/rSZM1KY62Gv5pc8XGRuDdy/Aj9+UVDzBoWHB114tcWgYvvtDh+V1iTYOw1nDr301T2DgO99VrKxJjJHxwjHG0NPTw9TUFK7rNpxcERtWBD4fGNLtL8hmofVO2mt327u5G3jv3SqN2g4k0A788mnwZDuBgRzHwXEcCoVCS327DcOriWpPK4HkyjXD5SCFFTouUS2UHS5eMVwyCisMUoTfW11XrK4pjAgTX9lMmEVKMlV1bFTrbzJi/hfGEihNoQIz83BnTlHxwlIDS8B6HgoVmF8E3w8wwkFbydoarK7DwrJCW3CrbWNBEHD79m2y2Syrq6sN2WCstRw6dAjXdZmdncX3/QODusNFvl2Pf7v3sZu8sJ+m8LrVAj3wXGs3n+HhYY4cOcK7777bVvWPFWGXVGhYBVI6GMcgkFhbzfZbi5Ui5FS1IRtASEsd8kErQRX2BCnD/261ETasU60X2ItOEmgNCNby8IM3ejBWk1vzqQShgVxcdPjea2msCFhbD7sRwGetqPiz72bQxmU1r4AQY40W28rKCisrKy0Hqaenh3Q6zfz8fEOjemBE7z5+2Kic7l5gdJ0yXu1EMvnguDeOgRCC7u5uxsbGtvXdRnOlFg7b2mNOllxtNc+crXbR2jpTiw1gZQ2MlQjrknINVFNTqwWBQwohwXUt0mqEdVhYkwhrQutvJSgadSK0gB52lmnupIPn02xEd9KBdT9uYo3KAu+XTevgqA/nt9eptdWcD39m2er0W7HqJe7XdZrhPPWGJyYysAJhJa4KiapDlmwRs7oIJKaKv0ob8hJaKamUSxAZaETHE24n8hNb/e5+MqzbTeI0MzA7bSvcSci+W4Z9qxbrZnN8ryVN7lar6b3sLLxbXYCx3bCtMenGCVlLyD1Sra3f9L1qPX3stUbGOOQIEDKCEkRbc8dpd9A2CFXCG3AcRSqVamrNo0xZ9P0KYKxFNjCq9/vE2o+TuN2+9U4Jv7fjlXVaMpVMCDRbQMnPJTtk2oED2g3/d3sj7wR22I3a408VBBAH6VuH69ERBLpKOaqrVH9RSVTE+k/spYYGN/x3aLsMCHAcGTuNjd5Lo/fkdLJw6nWn6tUFkydP9vcnW8X2Mqv8oIRiIT9tOa7Z3clkvVesS+0w/myFfyZ/18ncupebYP1m0exIpVJks9m2FTzvdXjeyfNvZx1aNvDPtjYlBIHW+IGpckHr6vWrNfLW1NyHqfGAo5/bsHFJyI7GxNnOpPA8H8eVW4Zk9YfneW3JqWx30T8o3moQBMzNzTEzM9M2leJ+gjxaXT/qx64nv2g21yLp4E4gh51uRO3Oy1QqFeu4RUelUkFrveU87unp4aGHHorfb7v3vN/WwE6UAHY2xyQQhuxYiZQmVn+21tTSlFpb00pvjQUpazziTvhGnK0eNPlvYy0BoANNZWWd1dX1tgdEm9C9DrTGWLXld9oVCWzn2p/G3v+oha+7u7shI9j9epRKJQqFQtucub29vbHK5n7z2hvdf1dXV0PDV294W0m3309QQCtav92KaBqOkzVkMy5Bdwrf95HSIZvNNnX86q+jtSHQGouJ2+/b2bQ6pv6zNjSsVMlbO5mDtmYwDQfH7kzYJBP63WLv2qpNeKuEUKuFVqlUWobIjdjPHMdpC4tthzdgp+3P7XAStGrAeFCirbthwK3diHqklLiuG0c1W5VG+b5PqVRGm/A8YXRht+epNrvZMK8vkEIgHSe0i1sAtg3PU10E+233vF+91WTY3MqQbOWZtYN91UtIdBKWtntPQBwyt3vvQRC0jdltVV+7FVH7TudLq/NHeQjR4bo6OJofkVFN0gA2SjY1slPR73Ti++0cTqeTQQmB40isMRhj6zCM1l5S5FU5zv4B3zuFBnaSMd5tGCL58iP2nmbwTTKR08xItvOMjQh9O/FsW9WObiqhaaOltlQqUSqVdmz0OjFerTydRt2IybnfbAxc16W3t/fACu6R0xGG9Dp+F8m5n6xUSlYvxbh+h9CKbHdxh/TUIX9qGPfbTQsz+acdQ7DdHb3da3Uy+O2eq/7andzLbt93J5igECGbubASaTTI8DvSukhhQAmUTWGFqpa8WbBBqC4mJEgZNn9IDcqC0AhUVfrXgHWwhN1uQoZNH0JqdLVOWUiDEg5CmCp3ECBUeBtCYAkQUmOExViLNWEpi4MFIxBS4yAQ1gEpEEoihcVBQLXPGwGOtThWYqVFSKr3LapBlQQRShVLKRHKYq0L1qCw1VpEGf8XUx0jGXIAG1ldfGjAIIQJx0SEp5UisVqkCi8nw7G2IhwjYwUG3TDkb1SsvpVKxl5jwJ3ita0I6bcjR1PjNYqqHWogm5I0jvE7sCBwEFi0EQRYrF9A+wahDb6FcqDDSCfwMFZhrQIjQkxVeFgMEgcpHepLuepL9Kr34bbNUlUzIDaSrLZbhnLJf+8W5ncQDjWfoPWlbxshjEAJSyArIDOkfItIBQQmXOxSBxgBSmnQColCCQgkGAvCWiQCx4RTxigHY3ywKYTQKKlDjXXrYI2L42q0SdNDgAUqsdHNoB2DwEfYsH5QWAGkUQbS1qCFJVAVBJLAcUPiYN8lUBppK2FUZCQKi5ahoVXCBRsQuA7SahxR5f81VYNqQ9pJaRXaqnDDMBLhaBxpCGwGoXUs+CYEmJTGteAZByUtKeOipY8QKawNwAhstb/cpHyEcRBGYWWAGwThBiFSYAOUSaNVCUdINJs3wWZe+n6Xtbkb+H0zx6rRJhThp0I41c3exxqFokKloPFJo8U61lTQ2kUYgSs1gePiiAoGTaA9XOOgnG4MGi1sRxucs1VY00i2oJl316y4fDthWSfZ/wcdlG/2PqKdW2vNV15J88LzRX7/Tx3uzHl4Mo3S8NlnJC89V+a7P5RcuwnCV3RnBC8+XeHMKc3fvpHi5qTBKkvKFXztZwSZ7oDv/MBjfdXFqDJGwG/9WoCw8L/9sSFlwfdBuoZ/8CuafBH+4Dsu0oIlz+FhxVdf9Zi6I/nhmxLjh8xljz6m+fLLPu9+4PLRNYmpCMDj8UcyfO1nc3zvNckHn6RCD1ZUOHpM8mt/p8hrb7u89a4B6dON4uxZywtPB7z+VppLNwxSWFKuw89/2WNkUPOdv5XMLCmUhS4nxT/81YCMyvPv/zBLueJjrcV1FL/99zx6uiT/8c8CltZDoctDfYZf/EoRfMl3f5JhcTUAY3nsJHz5pTLXbrm8cS5F2ViMLvPM4/BzX/R5/yPLD98BESisAxZTAwUkvaxk8q2dtbPTJob7JXxvdkQE1uPj43R1dXHt2jVWV9aR1UgqnSljRQppHQI8MBJhu3BlCVQYVSijMdbgCBdHSYyyCFEGo8LovIPDafdBhKzbFSKXNS6U3dqbisOCbYSvre7xQTW89Z6/qQPUk5nwof4iJ46FNXjaCARlhNAc6tOcPgzKgLEeAotF0TugGToEwglbjtFgU4ZDhyCTCXEpo8EKjRNYDo+CCSDl+xipwEqshKOjsLIOgbYhaoDBVYbhYSgUDQThfWsLaddy+BD0dPlY7WK1xiBRosSJo9DdZbCUsdZFW401AadG4JNeH6HDkN3XlkwKjo5Bd1cFo0OP1ciA3m7NiXHISonyApDgVzT9GRgfB9AYEya9/CAg0wUnTxpcJZEmwEcQoElnYGDY4KaKGAi9Xy0ZGoThNR8XSyGwCONgKoZjY3B7OACTAlEiCNSmd5esYKhPlOyFh7lXhm+vOSVEg88PDAzQ399PEASUSiVSqRTKsRgD6RSMH3H52ec9egc8/ujbWaZnKsiU4KXP+DzzBLhuwHf/JsXlCUl3t+CVZ3weewhWix4/fquXO4uboZotjWqrMGOjTSzSpgplUaQMyV4tNiyuBYwSuIIQNxIaYdMI4cdKhFKApxSu3QDus9ks2WyWIAgoFApVwa3m97IbUsqtetfvFznrZlHDhsdjSbbgff8N+PGHDovzEkQQSvZawWvvKN654LCybhHCC5M/nuWHP3H4ybuQXw/BLCHBK0v+4M8lSMV6zgcVIIyDlZb/+T9XZXRk2F+tlARt+Lf/2cUYQwqNFSEuNTsn+Xe/Z9GBDEtWMChp+eSqw+0ZQaUcYHWIxwoLn9y0/I//BgrrGYTwEGiMFdy+o/gf/7+KQskHZRBWoX04d8Hl6k1BvqCR1fpCP7B8+3sOrivJFwJQEmxYj/jv/iBFKgXlSrKKQPAf/0iRzkiWV30gnOOrq5I/+PNQZn09p0N8Wlhu3Rb8r/8lvH6xoHCEj5WGy7cM/9PvOJSKDpIyvolEjzcnCZuRh+yn3v69qPneqmsucsRkTV/+xrG4uEhPTw+nT59Ga83c3ByB8UFadADlkkVk4NGTMHrIY2LGRXoBhTKkMnDyMIyNeHxyI03Z1xQrDj29AaPDcPV6memFFEEQtru2Y4Ocdh442b6llMNQX0Bff4BXUcwuSCoVjaMUw0OS8THN2qplZt4hsBWUTHN43HJstMTsUprpO6BkWDKjlOLZZ5+N2f5LpRJXr17dFcD8QYYCGv0svy7JrYMVHkIKlEiBsRSKhlIxQANSbHhLxRIUS6FhVo7AVn2EXM5iq/SNIcQUese5Faf6swCLW00SpFhdDpBCIaIsjlBoK1hbE2HLoLRIG2JVgW9YW3FApMPrytACBb5lcSGFsGERd9jvLzDasrxkMCJsmdZGgzAUfZ/iSphwi7o8rbUU8gYIEFIgRehJGyRrhQBZEIAiCZuVioJCUWOtQiiBEAaMoFAErA9CopRL6H8bVtfdMJnrVI1zIAi0y/JCgMFDIKuVMyIUn2vTcO1ECfd+Dv/bNcS+73P16lWuXLmy8fzVBiNfO8zPuvz+H8K3u0rM51MYbUG4nP/I4cplQ0+vYD0vkdZQLFh+/J7kw0sZ3JRlvZRGytrSrI7D/1YeorGC0SHBP/7VAkfH4SdvBXz3Rw5l63DkqOG//pUSI0Pwh9+E2dkUgU0xNuDzP/x2iUIR/sOfBgQ6SyA2BqVUKqGUYnFxkXQ6vSeT4EHhz2zZACA0EoWVYVKIql6YIAwhVCJ5IsUGS0+YXKpWBFiLEA6CaiLHhpl0IUVCY9cFoQAdtvvZFMjQYBtr46SRECE/r7Uy1kAjPkdAmBYToZGSAmnSWFkhYhuKH88aZPVbSjrhL0RQLU6xiLh7L2o9rPaPV70Ei0EIF2N01RdNjptGkgZZlSu2GZBB9flllTM4CkrDjcMKDUaBdcNhoKodXyVGNqb6PIiGGfPdmKt304juBw+6WamgEAahDNoY1j3LWlmh8VHCYEUan4BKIFhZBCl9pDEI6RJoSajOEs6XbNZ2Hv5v9XKM0QSBDzagostMzsDiMlycEOQqBoTG9xQTEzAzAxOzgrIfYJVDJdBcugnreVhY7MJog2NDb0NrzUcffUQqlarRoLqfwvH9JPXcrJTFWkt/b4q+PsvioktZm5DCUUh6ugQDfQ7LK4aCZxHWohxFX7clm4WVtRTligwNjDIMDVgcKVhcsRA4YSArBeOHQuNyZyEks5CEIfnhEYE2AfOLKaRQGBGQTimGBiReBVbXNhiDurPQ3y9ZXTcUyyEmJkjR1x0w2K9ZWnYolkOBSWsN3VnFyLBiZc2wXggnvBLQ0+XS0y1ZXbOUKjbcPyQMDkiUA8srGt8HYSzSkYwfcrDWZW4h0UAhBYfHDFq7LCwJfAtSeqQczfBQisBXrK4aAh32k3dnLQP9kC+45PIQEACW3h5BX5fL6jqsF8PqAhC7apjuF890J5I9tsVz1TejhP81gIuwacCvsvsHSCsxMg3CByNQxiLRGBPmEgQ+klRVHdqpKgMopJRtZ//lVgNgqzWpxmiEFawsu/zxX/Xwf/xJlvMXXYxWSCGYnrP8n9/O8h//NMvsfBorXYTVLK8p/rff6+YPvt1DsewgpQtSx+fWWlMqlWqKbXe6MzbqntiqRKVVveBWxmsvak+3O1mbsYM991SZ//bXK4wOUGU1C2UknnzM4x99I8/RsYDAhnXIKUfw7OMVvv6zRcZGArT2scbiCPjKK0W++uUiXV0WayzGBmjj842fK/D3fjYfYqTGAy0QKP7uz5f52c8HIVZuPIyGoX6Pr/9skZeeLoaBs9Foqzl5LOBXfynPY6cCpNDVsj3DqSMev/WrRc6c9sFYwqpUn/FBj//m7xV46lEfq8PyLCksj570+NVfzHP8mEdgNMaCVJovvpDnGz+XZ2AgzPQaBEoZvvFzeX7j63mUY9E2vBcwfPVVj3/4jTW6MxprNYGx9GYFP//FIl99NUdPt8ZYjdaaI2Me3/j5Is89WSbthv3ixgjOHDf8N79S5PknfYzwwQQYxJYRVTsLuBWdY6s522gON/vdVvXYW9VtN1qHzRLY7a335lVHteuvCteIsIBNGEuVGBUpwqhEiFA91aLACiy6+m9LyA4YVo4o2dxpaTQuTieLduOkbOqjTfag13cpSClrDGb9wu9sUHcWktwL6sHd9EabGfB6A19vVBEQaMh7AcaoEA4QFiEMJQ1F34MggxYB2liM1fhemLW3xqJFmFTSAVQ8sIEmsB4aibQSP7RDaO0j8QmEIG1S6ACMD0aDkQHSCowWBGUwBjQ6TN5YRcU3eH6od2aMi9UVrJCUSgJdBil8tJFo7aOkoOgJih5YG2AChVWaAEspsARB9edaYbEEgaVSCfsEhA5Au2jhE1QEuVKYsLCJCgqsZW0NBrtDD9Voi0RR9gVr69DbDcgAbQTYgELJUCqBkAatDLZqzFfXwdeQzvhIDdaEuKsVtEyWtqvcea/n6m5R+92t6K15yegGNBQnkKSs+p1iS2erI0y1Rp9FbtyYUop0Ol2rClBnVJMGs1wub3rQ/ZDQuZ+B+kbF4/UGNdrE3vtYcu2mYG09CBe1lRiT5sJVuD2tWFi2YWcVFs83fPhJmovXBSvrYbWHwOJryQ/fzKCkJVcO2dRT1qJR/MUPUiAMSqjQK5CGwBq+9f0UgbFIBdgQJ11cFfzFj9L4nsWYUIBNCMHkjMM3/9phvQDaBFXPQnJrzvC7f55iLRdWLigIZXqWLf/lWynW12U1+x+qTlyfSLO4FLCSN0gRFolpLXjjQ5e0I1la17E3EhjLX/1tF6mUh+eZWCzOIvjej7vo6vJZy4dNA0JCrmT52zdSpBzL+nro7UshmVt0+PYPwfMtXsliCe91cjbFf/kWFAphw0FoTA3WNocAjDH4vn/XjOVu6nbtpzVmjImriVp52OG/iQmiqgyBYKpdeR0+k1PvMW4epMgQRomDcDEpKXFriFHERoaX2v7aGPbXuuHPd3tHvpu75V5O/FZeQNKb2aqrTQhBbs2yvqZwRNiGKaqGMp9TFNYVSImjgrBNz1pWcwJyYV5byvDdIyzLq9XrCxn/XAHzi+GOrhRo4aJkaDhmFkONSinCaxgrCLRlfjlMkgkhkCrMhRc9KC1ELO/h5wUS3/O4vSAR2iKlG4ZmWAIjmLkT1nFJYbDVzbpUspRKDpZqh1TVA1leE+FaEdVcmnUQwrK4ZLE4VSdlQ0lgdc2ykBM4ViBk6N0LC2vrKsJQUFJWdeEFC8sCYat6RyJM7xktmLrjYIUg3FkMAjcMTZskUSNYrN7g7aW3uBXBzL6I4ET8f1s/lwhrjT0vqOKlhth6Rs+RUBWIcFtRLRkVOvy1U206DT3Z9sbSadUqt6HZEp7QmioDgI28VafBQzczAmFNYOhK7+2L2U3IYCtau51ee7sNDw0Bctmc1GYj/Enh1vzb3SJwUR2Pn7Q2AderTWfbnIhUW1wpHf6uGcyoAFINricb3qPswDCopufbTA4uN9WZyviOrLWgkg6Fatmt2Il8x06SQO0Y1k7Ou9uNOTXPKwSI9s+ptQ2hLLOZqyRpYGsR2+jnOuS8sCJ2Kttdi047Axi5ydoYtDVYz1aLDdrTj7fW4vsBvh8QBPqeU//thsFulfDaLQ+5k24a13XbluXdaQh4Lzva7oduuq3mRj080yjvsFMF4d2M5LZL8XhP1ylhg0bKdUKjKjYb0hqoLGloRTVaEhIpN0oM2322DqybxWAwVY9TB2VKlUorR7XmxiN8o5l29n6Y9Pcb7prMqiql4s1qJ8Q1d+P5d3P8O1VI3atn3w63RSMD24zvczuE2e08VxtM9ns2B3YiENnO4ToOruvg+z5KKbLZTDVSrndSo4jcJsT/NL4XEfGbTe+ppVFtN5QIMVVQNgTnrTVhZ0JTs7rhcofnCLWEkoKBe/nCOnk5W5WlNPLgtmJ4bwefanadTp6zkZZTo3vYbe9lN3HrVpUMW3lNW1FEdmIkWkkJdYpddqowGzke0TttBuVsB3ZqJT/fKQzWiarDTtZco/e9nfURsv9rlJI4jhOPa6uSNWstQeATBOVqqWdoZCN71shzT/67wzhcoKQIWwXZXBfWAJ2oG5zwYdoJ/zslDd6pEb3fjqiuNwgCpJR4nhcz4Dd66bsZ0u8FbtYQSU2nY6KR5OH7PpVqlNTJfXZ6r+3IwLT7+62uK6WMJd+11vteRXU7G81ee7rNIrlGkV0zgvaNZ0hUY1SNc7tHR0ZVsNFtEv5VtFjEssHEEdXOhAend7+TidXOJInwt4GBARzHiY1OfV/yp0GGu5lSbJQdv5+fsZFRjuq+jTE4jtNST2kvN7m7afjuFkSWrKhIQpDRuol+FnmwxphQj6/OXdw1jaoN33OjNMFGpSMJN1tUSx5ilvWa2zEJIyzvmeG6m7vpXhlopRSDg4P09/c3Dcvu5maxW2U291o6u9Nn3E0MthGOer94q9sZk7tpcKONyvf9OLITQqC1TpBabxjUyACH3ukGDJNsg93SqLbCtGpxmPDPBut//WKOvteI0MOEZByxZIWoeaD6Vrb94j22WlztGJadGPBm7yVKTHWy6DrFwvZSa6vVRrAVBWW70MFuh7K7CR10+hw7TSbt5nrarXPtpOSrrSSXDSV6jA27/4wweJ7CSIsSAmEcKl4BhMB1MwhhcJAEQmC9EkY6IByUFNWabIck7WCr+2/I/N8sMRM1ACRd581G2DYk28Vmqs0BtqZdNXm9qDGgHQ6A/boT76b3ci9Lle6nsHk/3Mtuv6tPS/ffXnmkybEfGRnhzJkz5PN5bty4EQpBypD+r8uFsSOSw2MZ5ld8rk8IlFbITJ5HTykG+wTL65IbExpsQG9Gc/oRUFIzv6KYXzAbsOdullRtJlgIwYDNg5c0rLJ2glgdssI4YRdLFN4ke5wbZbKT19/Pi3w37m8vn3E3So7u5Sa2G/e928q5exUNHRxb26LkO3Qch5mZGYwxPPbYY0xNTbG4uAgIjNGkU/DFF/M88Qj8z/8+w1ufSJxAMX4o4Oe+pBk7VOY//EmK195zyAjFqWNFvvhZCIIKf/S9bi5ctptyFs3krhsa1Vayxa3Ctohuy02pKqmrIGKNsNaSSvs4Thrf85FkYkyju7ubfD5POp1mdHSUqampfT/B9sow3UtPdT9RGO5miH4324jv1fx7kA2yEIJ8Pg9AoVBgenq6qhQQkqlXjMvt2YAbszA2DEURVsgEvuDtT9L0jxZ5WYL2LdLXlIqSt8+n6e3xOTJmsFrh2FoegY4w1VY66yEPhMbNWl56QvL04x43puCNdxTr+TTdWcmrXwh44uEyr78N5y6k8ZFklcPXf9lyYtzjez/yuHClF+UG8Q5z4sQJjh07xrVr13AcB2PMJqzwbtLqtTNou1VC1K5URTu1xO0Yn1Yef6flQ7vhXXbSbrnTBEi7P9tu6LqXZWadSprsBL/drzBGq/NERrXeXkjhoCSUvTR//C2HP/zzjWQ5QG5d88ffdPnjb4bRtUXjBZaZO5L/9GfpKH4mmzUh/aU1bc1rp93B1kZjheXwoMPXf3ad8WFYXgLPF2jhcfxEwJefh8E+eO0nYIxFa8PYIPydL+WZW4HlFTBSYMobLOgXL17k6tWrjI+PUy6XN+Gs+81T2kuooJMMc7Mi+AcNw2u3zXKvx2S3u4N2sxTvQYQaksMvqmQ2wogGTpqIYYLQhJqqCkZV4tzWA53NN9+2+FSTUIDWFmMclnJr/OBNF6MlH14U5H0fgWRxPs3fvFmh7EkuXnOoeAFGpVgs+/zpD2B9Mc3CoouhBDJTU3MZBAHT09MH2NIOQ+H9FpLfrzjuwfHpXztRUrxRFJwgsIrNbifM/06zG6rvOtA6AHxyBZfXfmIJjAXrk7IGi2JxRfBXr3XjCINRButkUdYnl5P82Xf6MAoyjiWle9AyaJnh3y+LcLczl1vVlO5mOHqA0+3uPGpWxrOb5OoH7273DWujjb1Ru3mtZxsNbLVCKW4W2Lp7z1pby6caHY1Yx0PwVyANWEfhugaluhKEHg5Sqvj7YcdLKn6wIAiqPJMBjnRrCm3bDeHu9mTZq+vtdTjaaEy38iZr9X3sJpy9vtSunp4u6kpphs9vdZ52C6vrr9fsmVu1Iza6ZjTnm/H9dorJ3s3i9gfFiIpaOpGW8NpmI2qQcjMtY0O606iSKS78J1Y82WouCCHaL6mSMsQYhAjJqJVSuK4bO8hSqhpDWU+a4vt+wwc+OHbfk+oUZ4zeh5KqSnsWqeeapueVVUnT6H0qFZJbG7MhvqyUivkIABzHqSEqj+aVrVOJSN6j1holZcxzaRPnijbwegKSpFMQtXrWc5cm66Gj+0+Smey0VvrAW7z3Xmro3IVMU+GUSJaD2kR5qMBaQUS7GmCRNlSBiGismym2th3+N/IQhSC+kVBPXeE4qaaeZCP8IQiC+7L17tOAITUywhFOlEqlyKTSDAwM0NPTE5epLC8vUygUCHQQGzPXdXEdl65slq6uLrq6umIuV2stuVyOyekpzpw5Q6lUYnZ2FmMMXV1djI2NsbS0xOrqKqlUipGREVJuitWVFbq6uujt7d3kcSwsLDA0NIRSisnJSYrlEj09PRw9epSenh7m5+dZWFjA8zyGh4fp6upiaWmJfD5PNptldHSUYrHI0tISxhgOHTpEX18f8/Pz5PN5rLWMjY3R19fH+vo68/Pz+7r55OBofw1UKj7FYjkU9RPtE6IYayEIQICbSoGQu8enWhveUbX4puoJqBrD2SjcrC+WDSEA2zbge3DsHv5Xfyil6O7u5pFHHuHhhx9msH+AdDpdE14Xi0UuXrzI+QsXKBQKdHVl+cwzz3D61Gn6entxU24ssSMQrK6t8u1v/wWu6/JLv/hLBDrg+9/7PrcmbjE6OsrP//zP88ZP32BlZYWRkRFeffVVent6OX/+PI6jOHXyFN3d3aRSKXL5HEGgOffhh7z88st0d3fzZ3/2Z2hr+Lmf/VlS6TSlUokXX3yR2dlZfvKTn/Dkk0/yxBNPcOXyZV5//XWGhob44he/yNTUFG+88Qau6/LKy69w6tRJPjp/nrfeeotCocBnnn6as2fPcvHSJf76r/962/OzFW53EJ3twrzuzMSGjHjKQZsN1qm4wdPoBESawEstcaYqklARifb8dpwYZ6uFmcSkIoNaqfihIBbt7+a+r/F9TRAYouhsJ9yLB8fOxqurq4tXX32VkydPQpUYvR5Lz2azPPXUUziOwwcffMDZs2d56oknQQpW19diftze7h5KpRKv//jHLC0v0ZXJYo1BCckXPv95vEoFjCWKr9LpNIcPHyadTuMHPr19vbz77ru89/77/Myrr3Lm9BneePNNJicnsdrwwgsvYK3FdV2+/LnP0dPdw3sfvM/FTy7yM6++yvGjx/jsCy9SLpdRQnLi+AmeevIplpeXsdpgq8914vhx0qkUpWKJUydOcv6j8xSLRbBgtNmzkP/AoO7WxO7E5Igwqko5yCrkVNvBWUs8vTmsl2GiSlgkG3Iq7XB8OJ1MkKiWS5uAYtGjUMh3MCIyhg863XMOjt0/fN/nxo0bCCE4NHyI7q6uhl106XSaJ554AmMMruvG4f2lS5dIp9OMjIzw4vMv8P7778fniyaZ7/ukUileeeUVLl++HE5oC319fRw9epTp6WmklAwNDdHV1cXq6moczXieR7FYxFUb1IbDw8MMDAxgjOHChQvkc3kuX77MyZMnOXLkCJOTkzGGe/bs2fj8QghSqRTHjh1jdXWVYrHIiRMnGD40zNLy0sFk+JRGa44TqmFYa3Bdh66u7kQYb5oaxYilyvN8jLbYDu2VrD9x8121StQqarkH2/2jlKjyqYoHik91vx6VSoWPP/6Y73//+7z//nusrq42DHsjD/HJJ58klUrxzjvv8M7b77C4uIjruhw7doyVlRWuXr0aJ7ii762srHDt2jUGBwd5+umnQ+hHKQYGBhgYGIg5UQcGBhgbG6vR2UqGzUnIqKbSoKp8muzLLhaLXLlyBaUUDz30EF1dXVgLw8PDDA4OopTC8zyMMTz88MMxMfTB8Wk7QsZ/Y4KY/V9KqnaI2HON/kTcxI7j4LpuNfcTKquG3zedG9WtQ5QNTMJRctONNPvjui6u6276+8Fx7yECKSWlUonzFy7w9jvvsLq6uilSif6bTqc5duwYfX19SClQUvH0009z8sRJLl66SLlcjpUuLSGRubGGd955h6mpKQYHB0PYIZvlxPETSCFIp1Jks1mMMfG5I+lgkbiPyLiurq6Sz+cRUnLmzBkGBwY4efIkgdYsLC4S6ACtNZNTU3xy8SJSyqp6gOLE8ROk0xlS6TRuKoWxhuPHjzM8NBQ/o+M49PT00NPTc9+LU4oOxeo+nRBYyP9sqXZLVeHLmPzJhFUBofE1WBtyqIYbtw6lrS2xnEq7ME7b2f/IBlurY2e4UV1Yo7KY3XDlP6241F6QPbc7phuwjuHGzRukUimefeaZ2ADW32N3dzdPPvkknueRz+c5NDSMDgImp6ZCqjVTfU8izKAaa8nlc7z33ntks1kGBwcZGhpiYGCAG9dv8NFHHzEwOMhzzz/HyMhIeF0RJr5IyhJX77dQKPD222/z7LPP8uxnnuHw2DhHjh1lcmqSj85/xOnTp0EKypUyl69cpre3h0cfeZTBgdBDnZuf46OPPqJcLvOFL3yBkydOcvrU6dgLHhkZ4aWXXkJKyblz56pMR52/y3s9Vz9ta6WdRF8rjlVjbZxkrzG4xsFYA/gI4yKVwUoBVmJ0ZHcECFutVW1PvsfZzsvaqWLlQa/y/lsAQRBw9epVlJQ8//zzdHd310zo6B0MDAzw7LPPcv36dXzfr2JPXk2SJwgCzp07x/r6OgjB/MI8b7z5BidOnKBUKnFnbo7bt2+zurZKsVTEcR1GR0fJ5XJMTEyQy+VYXV2Nk6PnL5wnlUqTLxSYmp6iXCnHia5z584xMTHB0tJSjPkWi0VyuRwfffQR6+u5+Dlm78wyPz9PEAScP3+epcVF1tbWWV5ZYT2XQ8gN7y6S3mhnUdc3TBwcd9/gNjKo1oI1AgKBkT6eV4kblASCICiHrqIUCBEggmrzUlURIDy/QSQgz3bWrbMbhmCrVr3d8FzvF8N6rzzPTsev0b35gc/U1BRDQ0M8+uijcXNHvVEZHBzk+PHj8Wc3yuyq5/F93nrrrfjf2himZ2a4MzdXY8QBKp7HtWvXuHHjBsYY7ty5Exs1IQR+4PPue+/FySpjDNdv3GDi9m2UUlQqlXhRRYmy6HMLi4ssr6zEnmgknyGEYHJykqmpqY0I65qoKfpP/ncrhdz6JMfdVq94kI15hK9HkI1SivX1dUrlCmBxhMZJA67CDypgVUi2by1CBiHxU+BgJSihkEqD0NhqOZW1ClAN1VCaechOs5fSKBMsAWFlXNYgACEsWBFSZ1UbBESV5UUIgZUBwjhh8a2VCByENHWk1/ZTxXR+Nw3hbt6XFIK+vj5SqRQ3b97kzJkzNYY1eYyPj+P7PleuXMEYw+joKCdPnMQYw9WrV3ni8cdZW1/j0qVLKCf0RMfGxsIyKWM4c+Yh0qkUy6srWGvp6+2Lsa6oU2tycpLRkdEwgUVYM5LP5bh+4zpDQ8McP36MtfV1rly5Qjqd5vHHH6dYKLCyssqpU6dCIz13h5mZGRzH4czp0wwMDFIqFZmenubEiRPVRFU4Y69dv87p06cIgoALFy6gjaG3t5fHH3+c9fV1ent6iNDeKlUwa2trLC0tcWj4EMPDw3i+x82bN1ldXd1TfosHzZA2o4mMEp0DAwNks1lSqRSTk5N4FQ8rLNIRjI9onnrMpzsLf/NGN8uroByPJx8KOH3CIJ0KP323h7lFTXfa8OQjZY6MwVouxblLLsVibO1adi3G2Hz7L8diBBghEAShcZXh5ErYbaywgAJpAAeJwAiJwiKkBQKk3WgdjDycmrbFJpra98NEulcexG4UmAsp6e3t5dixY0xMTHDnzh2OHTvW9NmOHDlCLpfj8tUrDA4O8sLzz1OpVJiZnua5556rhuF55ubnGB0dDSsAjGV8bIzDhw+zvr6OX+1cGR8bY6B/gGxXluWVFSqVCqurqzz91FN0dXUxPz8feyNdXV1UKhVeeP4FJqenuHz5Mul0mqeffprF+QVu3LjB8889h7WWK9eusrKyQk9PD08++SSjI6MsLy+Tz+V54vEn6O7u5s6dO0gpmZ6e5tlnno2mMufOf0RPTw/PPvssk5OTSATZbJahoSH8IGBldSUuCXvk4Ycpl8rkiyFR8gEUcPfmvLWWbLXDL5PJVB2BsOBfGwVWcvYRw9MPwfUbhrlVHwIHKzyeeBROHIGZuRIzc11UtCXjwLNnQ8O7lBd8csmtJq3sprXdyLi2H/5bUDa0omnXYXRYgPRZWFZ4nsUKwUB3ihNHoFD0mFoQGG1RJs1AT8CjjwTMLcHE7RTSlVUsQ/LEE0+QSqUIgoCFhQXmEiHiAUZ6dw8pJJlMhu7u7rju01rLiRMnNn+2GipHEtlRpj36XSaTIZVK8YXPf54fvf4aSinS6TTd3d0cO3YMrTU3b97k6rVrCCm4PTHByy+9zMDQILdu3WJiYoJyuYzjOKRSKc6dO8fw8DBf/OIXeeyxx/j4449JpVJxll4IQTqVxnVDsh7XdUNjPT7OoUOH6O/vZ3BwCNd1SaVScXsuwHvvvYfneVQqFVKpFK7r8vwLL7CeD/HZVCpFqVTiow/PMT4+zle+8hXWq5jt6uoqTz/9NP39A0xPfczFSxdZXlnZtNHdDamcB9GLFUKQy+W4detW2EHlOBQKhTABZcEYyfyiw1+/DtdvBtxZtCjtgFBcvJHCN5ozRzRTswJlAsolh/cvZ1gtagb7LPN3UogEdNQ28387hsJg8dGMDGv+7i8EnDoCb5+D198Gz3M4Oqb5u79Q4cgh+NYPYHLWQQsY6Nb8098uI4H/9AfgBwrrbIT/Q0NDYX95ENDf38/s7Oy+bmPdCav6floMDWnspIgNY29vL4cPH2ZmZoaZmRmOHDkSf09rzY0bN7h8+TJLS0s1pCnJc+dyOUZHR3nppZfizbJQKHDz5k0ef/xxHn74YdbW17h56xZepUKlUkEQ1pouLy+HHTA2nCvHjh3j0KFDWGu5c+dO42dgw5sol8sUSyX6+vo4ffo02WyWUrEYEsEkjqg5wVrLm2++iRCCYrFIJp3mlVde4Z133gkxYN9neXmZrq6uEJ8NAtbW1lheXmZhYYFSqciZM2fIFfKsrq19qiCt/TiHk9fVWlMoFDZ/BgvCUNIul69IbtxIUSlLEBWsNZQKik8uS67fcPA8gcbDaMvyqiFfcHCkItABqZRtwb3ahkZVnT9C2Hlg8T0PawyZlGF8FNIpWFyGYlFhrSGbDTVgtIWFlRReILGOTyrlcngU7szB/IoT9okHG2qsd+7ciQuy8/n8fcGxerfO1cm1tpJ2bqu9TjkMDQ3FE2VoaIiFpUUufPIxBktvTw/Xb9xganKSxaUlSqVSuHvXFUbbqjzZ9OwMXdkuThw7ztDAINZYisUCE7cn0DYUaXviySfJ5fOsra2BaNBrV/3BqVOn6O3tpVQq8c4773DmzJnqwhGIapstduPafuCzsLgAAs6cOUMQBOGGrcKcgBUbnTPz8/P4vo/ne1gB6/kcN27c4JWXX+alz34Wq80Gjio3Sr0ix+DGjRtgLc8//zzPPfccpVKJK1eudMTMthP560Y0jp18/35JesXvua21E9kvENbiG/CCsP4UZEiaIixBYAkCqj8HITUgCIKQrcpageOaqphpcwiiI+b/qBjW8ypYDbOLgv/191yktqznwbOh/MD0tOR/+U9pjDWs5S2uCDBasLSi+H/82wzaM3hBGiV8EBuY6s2bN7dMWG1V+7pjLPEBzKQ2CkuzXVlGRkZq3oNSivn5eWZnZxFCUC6X8X2/hiaPRIddckcPgoDXXn+Nv/t3vkFfX1/sTRQKBS5cuEB/fz8jIyMMDw9XjepmvtPoHt944w2+8pWvkMlkyGazBEGAEILuKlPWQP8AruNQqVTCDbva0WWt5ezZsyGOms9z6NChDZpAGWb3z507R6VSQTob8/LcuXMcP3qMY8eOhZ64bT5PfN/n6rVrDB86xNNPP83hw4eZmJio8eB3OmdbSed0ujk/KFCEiJtIbFUaxcZY64bys6htnbcWhIwpAoWQcTmVELKt52sz/K9iCjZAB4LlpbDV1EqJcgIUEi0EKzmFMhmECDCuQdowYTW/nMY34MoAhIOQwUZhbqIcZ6uwf69KVT6NhrTTQnTHcTh69CjZbHZj961OpiAIyOVym0KeZFIx2T6aNIbLy8u8/vrr/PIv/zJKKY4fO84LL76I53mMjIywsrJSc+7ke47+SClZXV3l6tWrfOYzn+GLX/wif/M3f0OlUmF4eJjf+I3fwHVdgiBgYmIibkEsFovxvd65c4eVlRVOnz690WItQhz4a1/7GgDziwvxNSuVCt///vf5B//gH8QYbOgZVythqs/Y09PDZz7zGcbHx+nr68NxHFZWVmIvdTc8060+v5WiRCcGejsik/fLOmhFYl7rSG4U+yfPI+VmRZRtYaoRl2rcKysBGeA6adKpdEgcXG1btFIh0QQ2hRtYcMoIenGsoVSuhKTHrkvaqobM/83ksR8EI3i3vYD6MXcchyNHjtRMmrm5OS5evBh7mNHvIsOZJHleW1vjo48+wvd98vk8Fy5cYHJyEoDbt2/zl3/5l4yPjzO/ME+pUmZoaCgWfZyfn0dKGZbCeB4rKyuxHHBULlUul7l48WJMvOL7Pn/6p3/K2bNnGRgYoFgscvXqVaZmphkeHubixYssLS3FWOn09HT8GYDV1dWYFCbCiVfWVjl/PmSuEkKQK+T5829/i8cee4yZO7MA8bPlcjnK5XKcYO3u7qZQKPDmm28yMTER4sMtwv7t8N/ulkFuVFfbyqvtJOG232qzG4XnW0EyUedU5ME2Gq+Wxf+NBnRjoCMeQoHjpOjp6YUe4sUUZX7rvYuNUqk0QlQJLyplBgaG2yKwqJf42GogWmkH3e2XvFttuZ16DZ1qJdWfR1bLqUyY7mF+fp6f/vSnGzrqDZjPk+e+c+dOnEAC+OEPfxifNzCaG7ducuPWTSCsB63/vtaaTz75hE8++SS+ThAEvPn2WyFWiqVQKvKXf/Xd+N5LlTJzr89vuq/5+Xnm5+dr/h3Nnffeey/++RtLS7H3adncpCKEYHFxkcXFxXgzWV1b47Ufv14zjteuXePatWsNDV+nEtc70bxqNuc78UZ3Oo92gg23GzULtlYTjqKNQqFUlZZu7c2bxK0Eutq6KiSOI7FIrBVVmlXRmUR1o4cWIuQlPH36dDyxojbAoaGhKrXWZvXMqOQGwgLpTCbDQw89VNP+18ng76QN8H4pOWnHG2i3HnU7kz3aJBcWFvjhD3/IwsJCW5UY7YqrNdq8291Um7FXtfpcs+/V/9028Qbr51wj+KmRztbBsQfOyjYM9Mb72/zeW72nDQ/VYK1Aiq2hybb4VJM3EAQBt2/fjlsCi8Uivu8zOzsb402NPJjI21hZWcEYw/r6etxT/vDDD3fsxh9M3N3zmBsZB601KysrvPHGGywsLHQkxtfM4LdKPrZjyNoJgaN5kWwprZ+P7YghNpq/yf8265C6W/WodzNa2o/X6vQIdfQcjLF1eOnm6Fw2sSuyjRb7esHMtoX/or5a13UZGBiIeVKTXVGNJqW1lv7+/qriqopJiLfryW0vZNifraM7uYfdzvhqrVlbW2NxcZGJiYn4883URbe6t3YISGgjjNsKT4wMXbMkZqcbQyP4qJnBbMbMdnDsQRS3jXWZSqXIZDL4foDrqhqxyEaqJvVRVG3SStAuub7TTigmpeTIkSNxpr4VttlqAu4U59wOrrPdxdSucd7JYtppomk3vSOtNR9//PGm5ot2PM+tDHiz5Ec7Y7jV/OwEntiuB78XXtpWtaXtlFDtliHfa06JnYxfzfmliJnEmtXq1v8sCHy0DpAypK5sJjxaf07P88LOLGOqMIDepFHV7N21halaa5mdDWnTCoVCQ8G/+snfiL0nid298sor99dOuQseabvGZzcWTaff9X2f27dvd2x09joE3Om5d5I1v5eh814Z892e93tZDdAaJ20vqq3PxzSCh7Y6j9a6mgtqb122paaa9E7rKwS28hLrH2w3JsReTqq7WSi9354rSX23E2N0L8fwfjl2K8LZTl1pK298t+Gs7Tznbs2fJNN/ZBzra6ybVWxEkEDyv+0eW3qq9eSsxpjYhW5FbdYIW2uU0GpFMrsX3uJuhf37xWjupiJtq6ROO+PUamO9V57V3fKi7yVvw27Os/24AbZTG7rpOdjs0AWBj0CiHIU2BmHBWI21IsZN4+S87zfQpWpvbJxWEyLKqNa71PU/28lk386AbTesbmdRbBXetlMs/WnwbPfK6/g0jUmreXUvK1R2KyK8V6QwnSSDk2OdbCiKaEitMEgE2mgK+XUkaazSGARSC4T1MSIN0iLQCKFCHgBtMFZghakaXdW2Q+G0+4D12bJ2HrRR2cv9nindT/f+oDAh3Q/HvWw42as5eq/nVjSOSim01iilako4o3LPiPm/q6sL3/dZW1vDNz7WWISFrm6fbDZNsSDJ+SUcPwV4dHVpUimHiu9RKIIWClf6DHT7IFMUypJSycZJ/3bHw9nOADcrxm8HXN8Lo7rdcOheJIQ+rQb+03h06jEdHLs//lFkHDGiRexkECZXFxcXQ1WHM2cYGRmJpdfn5xewViOFYWwMPv9CBV2Cv3zdYXldo4Th9EnJC88ElPLww58Iplc1WTfFY494PHSywsI8vHveZb202d61cizbrlOVIiSotlWVTEeGzC/aWGwCekinwsnlBQJJSF4thSCdMVgjqVRsTWlCKpVCax3yXZZKMZhcf/N7NWl3mjD4NC6mTmtFP83e506MwX6NZu63d2mMYX5+nvPnzzM4OFiTbIq81lwuR6VSwRiD1hopwSLRgUtuXTDYHfD8Z+HyTcHixz5GSPLrMNIHp56EyTuCmXcElSCgUIBTh+HxM7CcN7z/sa7aJdNyfGM5lWYTKUpSxd6cDKWDpRSMHILjo4b1omRixlIpg6Pg2FHBifGAmXnBxHQo9Sqk4aFTkvERj+s3U0zPCowTxBjIsWPHKBQKDAwMsL6+ztzcHL29vTVsScPDw5TL5U0Fujs1GO2Ug+yX0pbtGvXke2wlWtaOYuh+NRx7Na7NyDg6McbJ7yerK/ZiE2y3jvp+2RSTz6O15vbt20xMTGx6jmRLfNTxqXWIpQplWVp1+OFbAbcmJbPzAikcQHF7JuA7P5QcP2q4PS1DhVXPcvW6w58Lw+CAYXpWIKwlCLya6oFmEXfTjqpG7aDGhNR//f3wC1/0efoh+OmHhqnZUHXw0JDl66/6nDoGf/QduD3l4mvDcLfDb3ytjKvgytVqmYPe2GnGxsY2bsZxWFxcjPXhoyOifos4NA9CsfaPaDePDGskC6GUQikVT5IgCGLsqp7Dod441GNd91s42ejnyc6sRg7Gbl072VJbv87qHZmD8L89h8Zay+rqatONUWvNR5cUH11MIWQFKV0EAs/CuWuCc1ccFIAICa2LZXj/ggMixGRTKbtJMbhVeanTTrgTAsIaoy2uMmTTMLcCt+8IKhUFmDDstzB1B+aWJLoqNymVwVi4swQrBVDSYlAxVjI5OUlfXx9aaxYWFgiCgPn5eVaqOj8QyhmXy+V4AR+0BXYWOj3yyCNIKfF9n2w2y9WrVxkZGaGnpydkvPc85ufnOX36NDdu3MDzvPj7Y2Nj9PX1MTMzw/DwMOvr66ysrDA6OoqUkrm5uQalJ9tfPDvpWmu3dddaG9MFRm3Tw8PDlEolisUiSil6e3tZW1tDCBHrbUX/TqVSVeJ2D2st6XQ6VqFdXV2No6qopTviWC2Xy/G9dHd3x0xK/f39LC8vI0QoLKi1jsm29xKmuN/hmHaYtSKDp1AYaVDWRWMBiRRgjQI0VgJGAhIjDcJaJBYjJLbOM92KOc/ZavKFDNmmOvlgbU3yVz+SCGmZX5RoE35mYVnyl69JAiNYWBQgDFJI1gqGP/hOCq9iKVUEjpIItcEZMD09zcLCAlrr2BMtlUqUSqWOBnC/4a176Vl1cn/GGE6ePMns7CwrKys89dRTLCwsMDY2RrFYjMlxHMfh1KlT3L59Ozaq2WyWwcFBxsbGKBQKZDIZenp60Fpz5swZbt++3XYY2urZOuExaEXI3G6Y3tXVxVNPPcXk5CTT09MEQcCzzz7LysoK77//Pq7r8sgjj/D222/jOA6PPPIIXV1dvPXWWziOw/DwMFpr5ubmcF2Xo0eP0tvbGxNv3759m/X1dR599NE4Mjhx4gQffPBBPLaHDx/GdV2mp6d58cUXuXDhAnNzc4yPj1Mul5mZmWnrue41DLOX128FbzWqLmrWDh317VeBrvDfFgRhlG2FqkoCGUCFkk8YQlfBoOQG63+zOd42S1X11ghpsDRCQMkz3J4J6QAdxyGb3bj5+eUqU7sypOXGRaZmQy9JYUBIFLW95RGh737GL+/lzrwdIpl63GdoaIh0Oh2LpAkhOHToEJlMhnw+X7OJRRP00KFDCCGYm5sjnU4zMzPDI488wtNPP83S0hILCwvx5I5gg3bvc6+jjWa0fdZaxsfHKRQKnDp1irm5OYIgoK+vD4DR0dFYdsVai+u6HDp0iHw+z9DQEPl8nq6urthLHR4epre3l/n5eXK5HE899RTj4+MMDAzgui4zMzMxmXWyW623t5d0Os3c3BxKKR566KFYSrsRteF2cgL3wnvcS6emk+fd3JdflVaphvgIi7UyFL6qMdCmWkIlamygEJJ2iv/bqlPdWNi13oHruqTT6ZpMXNKKRyFhEtdIhu+dejYPMq70yCOPMDo62vbntdYxO310FAoFVlZWOHPmTPwe1tfX43C1vs4ylUoxOjrK6OgohUIBx3FYW1tjaWmJxx9/nE8++aTGsJw9e7ajMH11dZWbN29uikh2aiyicP3MmTMMDAzE55qbm+P27dsEQcDQ0BDXr1/n+eefZ2RkhOnpaXzf5/Lly7zwwgv85Cc/icfj5MmTzM3Nsby8zGOPPRaTXEfn7e3tRQjB0tISnuexvr5ONpvl0KFD3Lp1i7W1NR5++GEGBwdZWFggn8/XGH1rLYuLixQKBc6ePRvLsAwMDPDII4/EygTWWqamppiZmYm1rw7WzdZRWhT9bodHoF4rrd3D2Y7VT2oHNcqGNUp0ReF9RL91AL6316Ptui5nz57l0qVLNVhnK+MT4X1JTGl+fp7JyUmefPLJmIqxVCqRz+drEleDg4O4rkt3dzfWWi5fvky5XObRRx9lYGCAXC6H53k1FI6lUilWCGjHoEby17lcLpZc2S3vy1rL4OAgJ0+erDHahUIBrTWjo6MMDw/HtHCnTp2KmblmZ2c5ceIEZ86cwVqLUoqnnnoqTp6OjIzQ29tb0w8eLdoo6ZdOpzHGUC6XcV0XKSV37tzh7Nmz3Lx5s2aji55Va83U1BSf+9znWFtbo1gsUqlUuHPnTrxehoaGOHz4MGtra6yuru6byO1ulRV2ep1o7XR1dTWsq0/y79Z3iSavGSV5O9nEtiRUCS8uGoaj9ZhYK5whSU4QeUoPYkdQp96FlJJUKrVJnbOdXTr6foTxAXz88ccxHhhBApVKhYmJCaanp+Nw1vM8ZmdnmZubq5l45XI5xl2j+VEulzcZx1bPPzQ0FBu2dg1pO8TV8aSuqlFMT0/XeIbGGA4fPszNmzdZWlrCGMPLL79c4w1++OGHfO1rX6NYLHLo0CGWlpb48MMPSaVS5HI5jh49iu/7HDt2jJ6eHiqVCo7j8NRTT7G+vs7g4CBXrlwhl8vx4osvkk6nWV5epqurK+bMaDTv19fXuXbtGs899xzz8/ObcFXP8zh16lSNU7Jdbt/t0AxuJ0TfSx7jdhyWaC63In5K2rJ6w2qtjZWD6ykDW3mwTns7hIwL9pMtYklLv1XBeFTjFX3nIHvfvmGMxq+TLHvSS71x40YcVk5OTsbnSWKilUqFixcv1ry35DXn5ubic0dZ860WUCtDuN2KgU7mTTTnkrDVrVu3KBaLMeTx4YcforXm/fffj73ut956C2MMlUqFDz/8kFwuF9c/9vT0EARBPAb5fJ7FxcWYuP38+fNhm6Tvc+7cObq7u8lms7z11lssLy/H9xGpvhYKBW7duhVXwnieF38uOUb3y7rZL5BElDNoxabXyHONxndkZCQWp0xu1m17qu1IWETWuqurqyb0T3qdrQY4k8nEIWb9zR0Y2OZe6la74lbhUnK3hbC1LzpXqVSqmVxRR0qzluLod1Hov11W/e0U0m+3rKoeK15bW6sh4FhcXMQYw+zsbBzuzczMoJSqcRqi8YrGaG1treZ6xWIxHqPIGK6srNR8LplTiH5ujGFlZQUpJZVKhampqZYNB61+drCOascksjNbVRE0Grvu7m4GBgZIpVIdV5g47SxsYwzHjh3j6NGjuK7L8PAwSilmZ2ebehKNMIytuhH2I665H7zV+tbdTjzV+i6eZrtzPT7eCtNq1JrXaqI2MnSdclR2uhE18oSj5zXGxM8bEXLUOweRJ17fcRZ9rv78yXeULPCv76BK4qjJJG4yD9GoXKjZM+3VurjX63I31ma999muE7JTT9zZypOILpbJZABwXZehgUGU48RhSivDWt/q14o/da/YdfaSm7XdGsKtCL2bGR/P8/jud7+7qdOp3UkSLcT6hZts8WvHEDaDFtrxAuq/u76+zjvvvNNWN1ancyKqfZ6bm4sL6JuFfo2MZn2LajOj2Oy8jX6XPE+0ydWrZzS6RvJn8/PzLC8v12T+t5LBbrfG+V4SCjVTB9nNddmsPXsrSah2z11vOztmqRIkmwI2t9Vtbm81NVm0kOxAspfHdvlVOxmHRoPaSkJmO4ZdCMHTTz+NtZbr16/HIWanmKqUki9/+ctcuXIlTjx1+rxRtHL8+HEKhQLXrl2L4YNOFpoQgqGhIR5++GGWl5e5fv36rnpgmUyGkydPopRiZmampn2x0+zx888/z9LSErdu3WpbjTV5KKUYGhri9OnTGGN4//33t90xFo395ORkTVnV/R6i3w0Ird77r99I61uxd7phdGzdUuk0R44cobu7p+bn/f39nD17lsHBwVg/XghBT08Pzz33HAMDA5t26Lv58prRFW73XHcjdIpaS2/fvs3hw4d3dP+Li4s1vf7buZf5+XkuXbpUU2bSznjXZ1hXV1dj7HC3j0wmQyaTYXp6mp6eno7eTX3HzO3bt0mn09ueJxFe+uGHH9LT01NTu93pMTs7y+LiYkdztJ7DeDuwW7Nz3E+t4tZastksXV1dm37num4chScNq1Jq27ZKdnpzXV1dnDhxYlPnx/DwMC+++CJjY2M1i2VwcJAvf/nLjI2N3bWX0MmL304CqBVGuJMukGbGTEoZlzBF1RftTPYkkW8SI+y09Cb6vOu6HDlyhBs3bsT1ls02mGZ/pJSxVHnUH7/bm2cST9vJkUzwbVeVV0rJSy+9xI9//ONte2lRzWU+n69JwHyajr20DcYYvvzlL/Nbv/VbKFXL4P/cc8/x27/92/T19cXzJ5vNcvr0acbHx+ONuZPDaQbWNsMA19bWOHf+o02g/NTUFBcvXoyzqdHDzMzM8PHHH3Pz5s2arOteypBsl6atVRjtyLAQXCgZY1xTU1MopTh27BhHjhyhWCxy69YtPM9jcHCQXC5HPp9vO/FTfy9aazzPY3x8nCtXrrTABw1ga1rp6mGJ9fX1GkKPzRhqcgMK4Z36iTkyMoIQgv7+/pj7thEeGfZQN9+ve3t74xbRSqXSkIKwGWNTI2nu5L9LpRJra2uMjIwwMzPTEPeN5DZCfLM536jv+3F9b3PpdarjbkmqbUbXHB4eZmVlhcOHD9dk9mvfkQEEUqqmMNHw8DDHjh1jYmIiLo9LrqdmxevN1la7nKqdrtPtViJsB99sxR9RL1p648aNeCNPzq+ZmRkOHz5MsViMxzEiGIpa6Fut3Ub35LQDtNcfpVIpLtyOjiAIqFQqNbWNUkqCIKBUKoW9/1WquJ2Q/94tLCY5DlEB/ksvvcTfvvYjlFJ89atf5U/+5E/o6+vjlVde4fXXX+fYsWO8/PLLvP/++5w5c4abN2/GxeeNnqUdOOTy5cs1xceNDYBEipDvtlX4GH2/kbGSMpmNFzTqc46wxejdNjNyoc5P8xK9xcVF5ufnG7Y3J++xkaGIxiyS16i/TqVSqcFAk39qDIncGgopFAoUCoUa3C3xJPHmYzHVzvLN72ZmZiYu4k8u9NrnFlvi7hGXaP2YJedou2ujVWKrPlG3nzHXdjaGaK7Pzc2RSqVq1lxUYhcxiEVRYRAErK+vx/Ise9KmWj+pt2KEqcemoodIZrDvp0PrkCxMa821a9cwxnDq1ClSqRQ9PT0sLS1x586dmBwjws+aZR+TiYyoP3mrULIZl6wQEmuiBW0RcsNjagRTJMuHan4XeVdVmyps60lciw+G4mhSKqwBKyTGaFR1dgnbPGnXaE4kca3630XGNtq8t2o8qTE+IvEXLapCb80jhUbPm/RQLRIhbNXTjCk7NsEPjbzlDQIauXFjwoSM9VskOOs5NJKVHhEfx05gs628sU4cn3u13ht1TEUbcZQsr38/jWSrtzMOzm7uKpF73SjZknxp233pe7FzblUZkBx8x3X4mZ/5mbinOCLCGBsb4+tf/zpLS0tMTU3F3s1WYYO1lnK5HJOTRAm+5MI1VmO0iSdErUcBQjhYE5XpCFIphZAm9jbj7iij8T2/isfZGoIcEAiZqhoqi1KCTDrZlhcabK012hhstNsLsMZiCbAGlEpjNGgbem+ZtEIpkbBm1LQq13tYyVbmVCrF008/TXd396YxLJVKfPDBB2QymQaG0GCMJdAagUDKhFQxBiEl1iiMAUFAOp2q3oOIN6P6+RzOW4m1SW9eYYyDsQGOI0m5qmpg650Qje8H1WvY+J1Yq0OIxDqE08viuArXFfHn6iNBY6oesdh4d8lmg/7+fp544oltYa4RT6zjOLEe1H7DXDtZ//VNLBGW36hFvpE6xlblah0b1WYM6M12guiBIy8u+V0pJRcuXNgUvu1lX/B2e6BbGnIB2hhee+01XNflN37jN0in0wRBwE9+8pNYlOzpp5/mvffea/hSml2vUvEJggY1m1Zh8LFGo7Wp8X7DvxukUljjEFSNIcIltGO2BivVpoTVBs8GVe+WGuxbOho/EFgLjrIo6SQmcrTQNYHW2CAAGTKj2yBkqrTWx4oAQQpfh96rFBZHic1BszEYXcIYiZBubKwiAxH9aVRMH72TSqWyKSS31iKFxWhNgEWh0DrZTq2RwkEbg66SEwvlE96igxC2Zj4bXcEYkNahLC3KBIn7khgcAmtJGYvAqVuYCiEMWA8daAIlEEYihSTQBiEsvi4jRRY/kEihca1fxaJlHawC2nqgDdo6WEGV/3MjmRYlkRt1/9TDDo088pGRER566CGEEFy6dImVlZWW8jvbWVvbxWe3k9jb6b11ohZd/3dnqxCvnWy24zgopfA8Lw4/ogREV1cXPT09MSv6TjzV7WKqO6lTTY5B5C0UCgXm5ubIZrOMjY3R39/Phx9+SD6fjzO0Qgi6u7vp7e3F9/14PDp5JotHWmmOH/UJrOXGpFOXnLBVTzFhsZo8w/iQZqQ34OpcF/mc2eSFGxMgrMIia+CDKKmDFQhcTo37KOVz+45LpWIR0lTZ0zcSQGE4bAG1+ZmMIZOyHDkEhVLAzJKMhSOTGfPkO+vu7o4p+uqZumrHLuTJHBqQDPQWmF9yWc0nvH9b7XKyIdyxQVpcjQoS0JaUgsdPV6gEgltToL1w89hIpBkspooDNAqZDVrD2AgM93osLmaYW02hTQ4putHGCyEWoZFUbyBOfNXWQWfSMDYUkHZ9ZhYlazmJbuJtJaGH6PeHDh3Cdd3YUNYfvu/jui7r6+vcuXMnbqG926rHe4nFRrmdZGQUQQLNksnbvXenWTa6FVZVX/OZyWRiRp+TJ0+ysLAQs/k///zzrK6usra2FstR7LfW0Fb3E+3sxhiuXr0aj8u1a9cQQjA5OUl/fz/PPfccWmuuX78eG9fx8XHGx8djLs96g7CV0qXBcnhU8I/+vubiFbh+O1w4ruvGbObGWMqVMCS3kmqyKvkeQwzu5RcDPvs4/D//fRh2KiVrypmMMeQLPlgNstE7MqTTmp/5QgXXhT/4iwCv7JJKZRFSAC5WSErFIAxtRZOki4XBAcMv/FzAzDT8xd9IfEtNn3Y9p8TY2Bivvvoq3/zmN1laWqoz+HWZeATHj1b4uS/A377p89YHKt70o2SS52vKXpCYx5szxgBPPW157LTl3/2eZXJaxueJvPeKr9EVH0F1Y0gQs2M1VkiyGZ9f+WWYWyjzO/9FIHBIpQTWZEFqhHAoFAK0ieyqbVAFYjhxzPKFF+G1tz3efD8NqBoDkUwA1xvYZ599luHhYS5evNhwrq+srMTkOo8++igTExPMz8/vuf7Y3bQDxWKRGzdubIogS6US586da5h43e79OckvtzpJVFQdkao4jhMX9FcqFTKZDIODg2QyGTzPiydmoVCgXC43bRm8Gy+hUw+x0eF5Hq+//npcFHz16tX4HD/96U8QIgwno1Kijz7aXHa21f1tAshxkbKMtZBfI67r3CCnkXhegOcXQu/QSrA2dJxqqBkN0oZ4kl8WCGFwnBTZbHYj4+lrioUVdIPkmq16ntYKMFWvzUiktKSzCiVTOI5ASAe/soIXhOzpkcFKlkmF4T+YYOM5lXJIp9PxZhGxP0VjNzc3x49+9KMaGr9m79ZYiw4iZ1nEdZ2ZTAZHhSF6rlCi4nlhKVpsVA3JkiijNUsLoE4RwinWIZVKkUqlNmjg8kUqFb/qtcqaSEFWvfv1lRReJcBNhXG8wCWT6UJJhVSAkHiVNXTFVPFWasrZrLVUPFhYUpSLAUpoIHx/mUwmNgbJmtr6OfXxxx/jOE5Mz9hozqfTaUqlEuVyeRO2f68M6W52QnZ3d+O6LoVCIR6rbDYbs5VlMplYVgjCmuyIiD9KDtYnCFsa1Xba7QYHBzl+/HgsAyGlZGBggJWVlZjr88iRIywtLVEsFuMBuHDhAkeOHOGzn/0s3/nOd9r2VJthup2QfewkLElOynw+XyMXUqtwEIbAGBchg4blREopMpnMpkL3ZF1oQyINGzA1m+Lf/q5Lbs1rcN/V3RVTzcCHiZGkhIS1BiHgBz/J8Pq7mlLJojdhdgKEwJigGkGrBl6goFyxfOv73WAN+bzEKoMwEmQoTSGRgNnI9ltbkyyLnnVhWfBH3+7CCyy+MTiqtYcQef7Nsrob4T0YDVdupJmec8kXaukJo6onUYUoBKZqeNnI4EcbAIIfv5Xhw8uwtARSmE1jJqxFGANKVsd5A680QiFswNK64d/9YVf4e62RThpkgCGSSpZYNAiNtc6m8QrvxXL5hmJ2votSBSqeJZORbRus6enpLY1BOp1mbGyMUqnE4uJiw4qUnUq6b3WOTjhz201qRQm4s2fPEgQB169fj8ukjh07xurqKktLS5w5cyaOOh3Hob+/P9YfC4KA1dXVGNpr1c66pZxKklQiCrsiVnStNblcjpmZGQqFAvPz8wwODrK2thaHuUIIRkdH0VrHapHbMXy7xR7TyUtOshJNTk6ytrYW72I1GkLWVjP0AikdELommx3tkqdPn2ZgYGALjlFLlHsJzx9Q9iTFeYM1VMNsGnZNYZPGeSNjH11vOaeRqxJLGaWyDUTMbDVkF3E4HE9MDNZKAiyLqzr2hh0lUU3DfLtJVicaM8/XLCyL0PMVIJzOOt9a8i9YQbFiyJf98JFE6/ecDP83baZlyM2E55DKbGKBtwlIY7MHHVVvCOYXLNJKkH74vELVlF/VbxINbpKKr5lfEggbVl1E99JKz6oTg+j7PtevXycIArq7u5vWCe8lZrob3nGjJpJUKkVfXx8fffRR3AATOUsPP/wwuVyOTCZDqVSir6+P0dHRWDF3dHSUxcXFtqCQtglVopvzPC82rIcOHcLzPBYXF1lbW8MYQy6X49q1a3E5UXKA0uk0Fy9ebLv3vxVJx05aQTutnYsMj+d5FItFHMfZNJGFFQjpI6TB81x0IkMdJQuSpRyN76vxAjdIJILebgNWkSu28Kyr4bmNDalIlO9YujPQ22NYWYGKbgRL2PiPrfeWYjjC0tcjUVKzlhdh4kaGXm5z/H2zsXKVoLvX4vmWfJEtIZJGDQbNN1JDOqVxHUGpJAkMLekM6/+bnGdD/RZjDWurEmvdmgRa/X1srm0ErKQrbclmYGUNLE61lEolygvr3mKDZ5JC0NMFQhgKBQh04xbsVmxpSay40ViMjo5SLBbxPI/h4eFYsHA/HdvxcqNI5/bt2wwNDeG6Lnfu3AFCkvbHH3+c8fFxlpeX8X2fhYUFenp6OHHiRCxDtLCw0JLMqN4mtS38F+GKi4uLcYtiuVyuSShE2cXkbh6FHo1KEbZjGDulOduN3S+5aOq5SVMpy3NPWoy1fHQpoFiUNVns+oU6NjbGyMgIN2/epFAo1F3DxNI14RLT9PY4/NwXfRaWfV57K7O1x25CLzJKeoDAGMtTj1Z46qzlj/4iRSlnNiUzYuMX5e8TXopFIDGkHM1nP+ORSsGP3nIolQUaiaov+A7hzGqplKjzBKGn3/LKC2UWl+DtD9NbtlNGTE8XL16smdwNsXIJR8Ykjz9S5vwnDremkxR7GxtQtOmEGz2xp2/ie7F87rkK3X3wlz9wWM+b5q2qbDaqxoIUmrHhgM9/NuDyDYd3zqVDTFSKTYqd0QbUCBd1XcujZ3xOHzO8dz7FrSnZ0DNrtq4efughurq6yeXWw3PWfS6Xy8W6ZJEO1qeBBaseLx4dHUUIwezsbMxjOzs7y5kzZ3jzzTdjB+rWrVvxhhIRjTdrUGmwMbvSWut2gmX4vs/q6iq5XC4u6m/kVdQnadrBY5r9aeez7bDobJdZx9R5nxsF15aBHsOv/WLA557dICROp9N0dXXFUhrJov3+/n6OHz8eA+D15MQ157eGkeGAX/oCPHKSGrE90cCQhZ6OCQ2r1RijY1jhsUcsX3gOhLQI00itIend1j+rBmNQjuTJx+DJRyGd8jA6iFtjw+fYOFN0Lxv3sPFcXVnN82fh0ZPh/WzFvtXT08NDDz1EJpPZhKnW1rZqsJqRIc2rL8Kpo0EDMuxEK67YgF2sNZjE+bTWHBuHn30ZhgcFwgRNyt5snJRL1tcaa/FtgBKGl5+Dr3w+zJ5ZY8GolsmY+npdz7f09xg+/zycPePhOKat0DyaW4fHD3Pq5EnSqTTpdIZ0Ol3zJyqn6uvrY2hoiEKhOZ1Y2AAAEChJREFUsOtGdTfpNtu1I8mfZTIZCoVCTbs2hPJC09PT8WYdNeTcunUrVsOt37i2glgcIYR/v0nd3ovWtyQ+GNeKCoHVlulluDkFpbJCSRFnDqOdL/lSZmdnWVtbq1HV3DAQdQkuAcUKXLkGn9xoLryYdMOstSEEUU22RG2Ps4tw4RoUKhornfh56gXNIlORfFYhBNoagkAxNQNKgvbCpJQxGitVDYxRjxPXt82WS3DzNswvUy0Fsw27WaIxW1xc5Kc//ekmHoV6gymqG8LSmuHqLVjNqZrPxecnsQHEdbhghUkQrBguXIa+Lij7Om7j3VTATi1xRzw3EGgB84sO5z/xKFUA6xMIF4yHbdgAk3QUkhu55Pqk5KPLhuV1agxusuGgkXCdtZaLly7hOIqlpeUqVwENx/Ho0aNxQqbdXEa78OFu4qWdfieSqTHG1PTyRzXn165da+j5t2vI6+Ap33FdtxAV7t9NY7Xb0gl7eSQNTHKCaGtZXIP/85sOxQIYrZFCtvSOc7ncJoPa1JBrweyC5j9+O81Kzq9JHDbDpsNazSgGj4yE5O33XS58kkaXNYigaaIncuZq62UN0hq8iuVv3kwjEeTKgFCIGgNva+CEjZ8lryNYWpX85WtpgiAiRmmOT0JYSzg1NbV1tIMlMJZbU4o/XVXkC6ZxdIOtw7EtwtpqnenGs7x7weH6lMP8skbgNFcNrmk/rcJE1oC0rOQkf/RXKRRhg4WSMux2i8dG1CW3Nq4fX8dqJiYV31wPGy48z+K4jbHcRgZhfmF+U1TU6Lh58yZa64bMTNv1JttVR9hLZyiCLpNkQsnwvZGqxlbEMvVEPbGX6jgFJ5PJLNR3sNwNo9eJ9O1WL2YvN4NGWlvJoxLA1LSoadXuZHeOqPsi/LGGdENoggpM3QkXYVj5VJuxj5NBiajWkvxBeCyvWFalh7QCkeh02phcG2VY9aGyxWCxaGNZWPJRImyVlGqjIiFOziSMJ3EHUjJBIvB8WFgKEDhxWVijRFGjsWyVXIow0XIZZkoBwoKUqi4ZJxLZQZFw8pNVE+Gvc0XIFQ1SCFKq/cLwyHBjDAbD7KJESpA4CKsQQla9apvonhIxhLPBzbBx355nmFsAIcPSrUbrQzTzppv0sdePaaOOx3Y9tnbtw25X6bSTa2k2Llvd11aJ7fo1LqUknU6vyb6+vmvZbHbfsEe1wkKb/e5uwwDJF2QF9KY1owMBKafxhG22e2+EbLUGKf6OUEhrGes3jI+IFnItosaMWku19XODjm54wOXJRz1SmTBsTybSain/Nvt/EoXARQmX4+OSk0cD0o4J2ytxm+zmgoYUghayacGp4zB6SFefXWwKRRv1sCevkUyy1QTjArrShtE+SLubvfgo1EfU359N4MlhDfCZY5ZThz0UBi0aCMjFeHaDcRMGSYrBHsljR6FbVin7VKWuMSPBgyvYbPwBpQTjh+DouCWdcuLNqh2j2kjaqB5GamYo9orAaLdUA9pR82iEh3ZaztnuM6VSKQYGBj5xurq6ZqKSgvqbuN+w1r029I28z+604de+bvB9+LPvgqc3v4xMJsPRo0c5evQow8PDDA8PMzU1RbFYZGVlhffee68hZ6e1ltHBDL/5ayVuTcKff08l3k8dJthw0kW8pPDZ5yu89Bn4//z/fEql+n5xEXtXG4TLifOYEFNIZ+BLrwSkXPjz70nyedHUG2g1GYcGLV/5kmZmBn7wumgafZw4cYLBwcG48eT69euUSiWWl5f56U9/2tCQK+lw+oTPF18wvP6Ow8XrjbxImo7ZhtGGL7yiOTIG/+H3BAu5BpFTE+ni8FkUGs3YiObXvwoXLkv+4rWwQUJYEbcCiziyqN+QEti6tJx9WPOZz8CP3jBcvOxsumY09qdPn66RgBFCcPLkSVzX3aQHVv+OjDHMz8/XYNedCELux1zIXsKP9Y7T+Pg4AwMDFx2AJ598snjx4sWu/WBE21mUex3yt3t/QsBIP3zpZbh2C/wqBV/EIh4VUEfthPW7ZMQX2kxAUQrD6IjPc09AqbAhV10sFlFKVstCqkqdm164jMNZaw3Hxg2PHIscojCBFtXQRufZXDdZNTDCYAUomebEmI/rgpIGEwQUimso6VTDbFWDT0X8BPWuasq1nDoMeGH23/d9CoVCPEZRmV5E19ZMeXSz525AGvp6DE89DNdvB3xyzYnbpmXVWyyX/Y2ElGicdDDG0JWCJx+GkX7BwlpQHXcVv6tKxWsxUSRW+vgaTh6Hrm7Dt35UIdAqJPBQERWdJfCDlgs2CCRCah49ClNHDdduhAkWz/Nq+GXT6XS1fVk1PE+EKTYzKqOjo5TL5bjU725DfvvNSHdS5mmt5ZlnngkxVYBHHnnkd621/309/2CSGLmVpHS7UritBne3XfLtDt7me5PVP6IG/4txTy2YXjTcuAW+L6qgeICUGx5luVxmZmYmroFLenWlUgkIOT6paYUMDVK5IpiZhos3I0Z9CAJNEOiqoyTiHvbwvUX4qEyExILVZZiYBq9iUEJgkfh+SCkY1qUmWfFljUxLZBi1tsyvVDuF/BRaWqzvYSRAAERdOGIjfSMF6IRaJQLPg9k7mpUcCBOybfm+Rggde82hRM80a2trWGs5d+5cdcwEuVyuyrUga/DaMGkvWc97TM1BriixyJCsJDBVaj9imsVw3BQogTESjKjZCM5fNTx8wlLUAZIUQWDillZjws4wK6rUh8gEHhqNWYr5BZ/LtwwVH5RV+EqjPI1WQXWNmURrsQgLbdEx5holvW5NKa7d0BQKYZeWtgZTTb5YE24C3d29TExM4ji1KgDXr1/fRJrdKIyOjHMrx2UrD28nHuDdTF7vVM4puUFF4/r5z3/+X1WTnpZcLnfyn/2zf3ZreXk5LrOp57Ts1FvstHtpLzWrdmJUtdZ88MEHrK+vx4zhG88mUSKFSpfRWqADG5N4JM/Z09PDY489xuDg4KbxKxaLvP/++5TLHlDfX26RMk3KtZS1j/UbJR42d+VE54kMpbUWJytJW4eSJ6vyH0HNOYSgSpYsqkTIkYHQ4TMJixUOrmtwjMCzIben1CEjVTjJnNBTRWHRCFELC8SbhQTHBXQKEwRYYWpCX2tDQosXXniBnp6uunelyOVyvPHGGwk9rKR3LlFK4DoaT2tMIOMEX1xKE1VRJTS1Gs0/KS1OKk3ZswhdQYikimyywkHEXKyRQRXWweIjpCDlhn3+pZKHkG44LnIDoqldL9XqBJPESQVWQCZtMYHED8ymCEAIweDgIM8880xDxYRWyZjosydPnox7/1upKuyVN3q/VATVS9oIIejr6+N3fud3TvX09Ew4AL29vRNf/epXF/7zf/7PI1HokLTC7RbdfhqPKETOZrObwvNwUAMEfeAIbDrOENUs4mQisBFG1dXVheuqmIwlwtqkslibQgpBFxZT0/Ndm1xp9q6izztWYZRmQDoYdMIrq5Ig66Dq+SXlpMNEUph0UbhkQl/MkRgpkKIEgUXIiNVI1rD3b5wr0WwgQvo7KQRCBlhb5YWti3yUcmhUNWZMgJTQ39/bcO5ZoVHCRVpJt1RYaerGjDizbmLSaVP1cjfGRCmFkSCsZajbxSgRbxIR/V89oXbyuQPpkWIAicAKDW6K3n6QwgeyCOlXN2gR1/OGjRIbDRPR+QQCiROSkAkdabkkxix8b67rdixjPjIywokTJ+La6ohsPaK3XFpa6ogD4H6US+r02eohKK01X/jCF8hkMguQaFP9pV/6pV/44z/+4w+jGrVmgmnNdrl22kdbDfi9DP9bG1VNT08X3d3ZqqcSSS0rXNfBUYowaHUhKOJpk+C2DD+XSqVqOqjqn6W/vxdru5CxcRK4joPjuDiORGLxpYRAJ9pkRRz+J9moNkqZqpl7GfKARsmmQFgcP8Azthb3jLxIG0IeVmyQrAickKZOhWVBjg09Kc/XmJiIhQ3IwZraEqsanFigpERXz28Ci+f5aB1UjcjGZyMKuvqNyHEcDh06FD9jLH8tBK5ysakUDlVjSUKqOiKmthtZf0ttLW10HaUcpEqhTAVfKqwWGOPV4N8iUVFg6+a6MgKUQDldSBkgtEVLjdYCrF/Vt6pm/W3kmYZjGRJpJ2SuhQRHIbFVCscAP/DiDjudUHAIoxSn7Yhyfn6edDrN448/HkvXCCF4++23OzaoD8pRj0v39fXxK7/yK7/gOE4RCMP/6Pj93//9W7/7u797st4SN9Ke2svwvdPKg05xnk4SZZ3U024HX75b4dCunEvUlg/tZs3hdrkb7mWE1Ao22srh2K2x243nN8Zw9OhRnnrqKXp7e/nggw+YmJjo2OvdaxjvXkfD0UZf38X2T/7JP/nkG9/4xmdd1y3WeKoAv/7rv/7E+++/X/jkk09qsDDHcWpIWu83t79Tw7ibhnA/LPhm6rc73QxadZvslvHf7Y3qbi3qreohOzWOm6kad+9QSjE7O8udO3ficHa7OnKdMEl16gzt5F1vV4Ip6WRFWPWGGKTgqaee4ktf+tJvRwY1Ea8RhVXFf/7P//kvHzp0aFM9m1JqUzi2n7GPTv40+u52dun9tpHsRBai3ULp3TJqWxFVtPPu9trodnLtThpYtvNO92KziFo2d1uYs90x2I0x2u31E8kXJRUfonsbGhrin/7Tf/pfDw8Pn6t5jkaDNzk5+bV/+S//5XfCch82FaYnNdf3gxexF9fZSyrBe+m17kXovpuRQTNv5W6LRW4XNtqt+94qKtjLrqdOK3f2as3dy2qAKNRP1vwmHc3e3l7+xb/4F//qmWee+VdKKX9Lowpw/fr13/zX//pf/17E7gK1/KD13Ryd7tw7lbvdi4XRaKLeS5KZ3Vh0u2Ho7uZz77VSbrucEvsBw9ur0HY/XatTOfntylZvdyOp71gTQjA2NsZv/dZv/S+f/exn/6+pVGp10722urHbt2//3d/93d/95vnz50lWBUQGtpMwcS/xku0Y9L0MY++1Ud2OZ/ogGNW9LFw/MKp39z53eq5WBCpJQvqkQU2lUpw+fZrf/M3f/L899dRT/68o29+RUQUolUoj3//+97/513/9159bWVmhVCq1RUDdLuvV3cDF9ku51m5n/1uN6U6N070yonfTsO3Um9+vRvde3lcnTFB7OZ47UV6u/5PJZOjv7+ell17yv/a1r706Njb2Rst50s7FjTHu3Nzc5959993/6Y033vjc/Pw8lUoF3/fj4ufdTGjsthHtNJzf7vW38hD3k8G+G0Zzq5BqO0b2bhqfTufRvTJm93Jjuhfn3m06wuizySjccULZ9MHBQT7zmc+sfu5zn/sfTp48+UfJLP+OjGryWFlZeeLjjz/+Fzdv3vz15eXlgVwuR6VSSRS872+DcbczxverYbyXz9wJNrxT2eSdwAUPwrFfvd69uFelwkad3t5e+vv7/ePHj//lE0888W/GxsZ+VJ+M2lWjWu/Bep43UKlU+n3fHzDGuBwcB8fBcXDcf5u77zhOMZPJLGSz2YWdnOv/D8KyJX4u4woTAAAAAElFTkSuQmCC;" vertex="1" parent="1">
          <mxGeometry x="100" y="90" width="341" height="335" as="geometry" />
        </mxCell>
      </root>
    </mxGraphModel>
  </diagram>
</mxfile>
